<?xml version="1.0" encoding="utf-8"?>
<svg xmlns="http://www.w3.org/2000/svg" width="399px" height="62px" viewBox="0 0 399 62">
  <defs>
    <clipPath id="clippath0" transform="">
      <path d="M 0 178.004 L 571.041 178.004 L 571.041 0 L 0 0 Z" style="fill: none; clip-rule: nonzero;"/>
    </clipPath>
    <clipPath id="clippath1" transform="" style="clip-path: url(&quot;#clippath0&quot;);">
      <path d="M -1323.894 125.534 L -38.552 125.534 L -38.552 168.028 L -1323.894 168.028 Z" style="fill: none; clip-rule: nonzero;"/>
    </clipPath>
    <clipPath id="clippath2" transform="" style="clip-path: url(&quot;#clippath1&quot;);">
      <path d="M -120.284 104.768 L -118.911 186.939 L -43.65 185.681 L -45.024 103.51 Z" style="fill: none; clip-rule: nonzero;"/>
    </clipPath>
    <clipPath id="clippath3" transform="">
      <path d="M 0 178.004 L 571.041 178.004 L 571.041 0 L 0 0 Z" style="fill: none; clip-rule: nonzero;"/>
    </clipPath>
    <clipPath id="clippath5" transform="">
      <path d="M 0 178.004 L 571.041 178.004 L 571.041 0 L 0 0 Z" style="fill: none; clip-rule: nonzero;"/>
    </clipPath>
    <clipPath id="clippath6" transform="" style="clip-path: url(&quot;#clippath5&quot;);">
      <path d="M -713.322 301.538 L 229.038 301.538 L 229.038 425.823 L -713.322 425.823 Z" style="fill: none; clip-rule: nonzero;"/>
    </clipPath>
    <clipPath id="clippath7" transform="" style="clip-path: url(&quot;#clippath6&quot;);">
      <path d="M 229.038 295.084 L 116.85 295.084 L 116.85 419.516 L 229.038 419.516 Z" style="fill: none; clip-rule: nonzero;"/>
    </clipPath>
    <clipPath id="clippath8" transform="" style="clip-path: url(&quot;#clippath5&quot;);">
      <path d="M 651.696 -508.667 L -628.362 -508.667 L -628.362 -1849.866 L 651.696 -1849.866 Z" style="fill: none; clip-rule: nonzero;"/>
    </clipPath>
  </defs>
  <g class="page-1" transform="matrix(1, 0, 0, -1, -13, 159.003998)">
    <g transform="">
      <path d="M 0 178.004 L 571.041 178.004 L 571.041 0 L 0 0 Z" style="fill: none;"/>
    </g>
    <g style="clip-path: url(&quot;#clippath0&quot;);">
      <g transform="">
        <path d="M -1323.894 125.534 L -38.552 125.534 L -38.552 168.028 L -1323.894 168.028 Z" style="fill: none;"/>
      </g>
    </g>
    <g style="clip-path: url(&quot;#clippath1&quot;);">
      <g transform="translate(175.6279 119.6406)">
        <path d="M 0 0 C -4.224 4.803 -8.171 6.468 -10.957 7.111 C -15.869 8.244 -16.475 6.043 -23.815 7.076 C -28.864 7.787 -31.775 9.279 -34.721 7.51 C -35.832 6.843 -36.735 5.841 -38.226 5.927 C -39.908 6.025 -41.09 7.434 -41.851 8.34 C -43.849 10.722 -44.356 13.47 -44.492 15.117 C -46.671 10.269 -49.364 8.266 -51.312 7.319 C -54.267 5.883 -55.914 6.684 -67.307 6.639 C -74.199 6.611 -76.02 6.308 -77.108 6.094 C -81.9 5.152 -83.065 3.857 -86.569 3.236 C -89.349 2.743 -93.566 2.682 -99.229 5.141 C -107.351 6.661 -115.474 8.182 -123.596 9.702 C -124.64 10.45 -125.683 11.199 -126.727 11.948 C -129.424 10.707 -132.148 9.414 -134.895 8.068 C -135.816 7.617 -136.73 7.164 -137.638 6.71 C -139.809 7.843 -141.98 8.977 -144.151 10.11 C -144.946 8.295 -145.74 6.48 -146.534 4.665 C -148.735 5.746 -150.587 6.285 -151.775 6.571 C -154.882 7.318 -157.684 7.351 -168.246 7.388 C -169.094 7.39 -171.085 7.397 -173.283 8.408 C -174.392 8.919 -175.198 9.521 -175.665 9.906 C -178.43 5.219 -180.383 4.7 -181.451 4.801 C -181.823 4.836 -182.269 4.964 -185.058 7.115 C -188.382 9.68 -188.887 10.377 -189.891 10.314 C -191.48 10.215 -191.432 8.393 -193.43 7.115 C -196.07 5.427 -198.124 7.347 -204.797 7.115 C -207.883 7.008 -207.617 6.591 -210.991 6.503 C -215.506 6.384 -216.817 7.11 -219.499 6.979 C -221.786 6.868 -225.1 6.133 -229.096 3.099 C -248.191 6.334 -262.228 8.817 -265.034 9.293 C -265.647 9.397 -267.348 9.681 -268.618 11.019 C -269.115 11.541 -269.413 12.085 -269.594 12.492 C -270.746 11.408 -274.46 8.191 -280.008 7.932 C -282.613 7.81 -284.749 8.382 -286.149 8.898 C -287.074 7.555 -287.999 6.212 -288.924 4.869 C -292.292 6.481 -295.131 7.039 -297.092 7.251 C -303.598 7.957 -305.912 5.462 -311.25 7.183 C -314.366 8.188 -315.094 9.528 -317.171 9.089 C -319.892 8.514 -320.869 5.746 -323.705 5.618 C -325.035 5.557 -326.13 6.107 -326.768 6.503 C -327.196 8.699 -328.013 11.331 -329.695 11.744 C -331.541 12.196 -332.658 9.54 -335.685 7.728 C -340.119 5.073 -342.7 7.792 -353.45 7.047 C -358.103 6.725 -361.994 5.912 -364.34 5.414 C -367.7 4.7 -370.518 3.902 -372.644 3.236 C -383.923 4.983 -395.589 7.362 -407.561 10.518 C -409.162 10.941 -410.75 11.372 -412.325 11.812 C -419.948 7.136 -423.776 7.307 -425.87 8.477 C -426.839 9.018 -428.085 10.135 -429.273 9.702 C -431.079 9.042 -430.539 5.606 -432.132 5.005 C -433.666 4.427 -434.777 7.379 -437.91 8.611 C -442.421 10.385 -444.615 6.034 -451.054 6.979 C -454.93 7.548 -455.982 9.395 -459.018 8.613 C -460.79 8.156 -461.385 7.28 -464.19 6.571 C -465.599 6.215 -467.117 5.831 -468.819 6.094 C -472.097 6.601 -474.173 9.215 -474.945 10.314 C -476.675 9.228 -479.584 7.649 -483.453 6.775 C -487.533 5.853 -489.918 6.339 -495.84 5.958 C -498.1 5.813 -501.546 5.498 -505.794 4.715 C -505.628 18.089 -505.462 31.463 -505.296 44.836 C -504.557 45.49 -503.438 46.345 -501.925 47.051 C -500.526 47.703 -498.605 48.312 -495.651 48.381 C -492.198 48.462 -489.852 47.745 -487.061 47.051 C -477.078 44.568 -476.403 46.114 -469.624 43.978 C -466.148 42.882 -464.511 41.904 -461.901 42.375 C -460.909 42.554 -459.602 42.973 -458.619 42.263 C -457.496 41.451 -457.858 39.934 -456.878 39.475 C -456.068 39.097 -455.085 39.791 -453.683 40.631 C -450.909 42.295 -448.606 43.265 -448.257 43.406 C -446.515 44.109 -443.699 44.228 -439.038 41.477 C -438.134 43.53 -437.23 45.583 -436.326 47.636 C -435.562 46.716 -434.329 45.521 -432.535 44.907 C -430.243 44.121 -428.93 44.933 -425.603 45.193 C -422.611 45.426 -420.357 45.028 -416.027 44.264 C -411.109 43.395 -410.766 42.713 -408.881 43.192 C -406.91 43.692 -405.96 44.774 -403.093 45.121 C -401.723 45.287 -400.951 45.38 -400.02 45.05 C -397.449 44.137 -397.508 41.358 -395.589 40.762 C -393.934 40.247 -393.119 42.075 -390.301 43.192 C -386.101 44.856 -383.867 42.4 -377.438 42.906 C -375.287 43.075 -375.04 43.389 -370.72 44.406 C -369.579 44.676 -362.115 46.416 -356.285 46.908 C -348.22 47.588 -341.649 46.015 -334.632 44.335 C -329.276 43.053 -325.85 41.699 -322.269 41.477 C -320.668 41.377 -318.838 41.492 -316.766 40.405 C -315.892 39.946 -315.427 39.51 -314.488 39.445 C -313.239 39.359 -312.394 40.014 -310.764 40.976 C -309.23 41.881 -307.609 42.698 -306.829 43.015 C -302.495 44.774 -299.291 41.16 -296.409 42.813 C -295.507 43.331 -294.381 44.512 -293.936 47.606 C -293.682 47.285 -293.28 46.829 -292.712 46.376 C -291.028 45.032 -289.061 44.655 -286.428 44.543 C -281.141 44.316 -280.179 45.457 -276.468 44.864 C -275.005 44.63 -273.969 44.236 -271.899 43.449 C -264.401 40.597 -264.3 38.391 -260.496 37.95 C -255.883 37.415 -251.404 40.123 -249.983 40.982 C -247.895 42.245 -247.807 42.831 -246.02 43.53 C -243.112 44.666 -241.742 43.739 -236.882 43.813 C -231.637 43.892 -232.016 44.989 -228.107 44.662 C -224.598 44.368 -223.433 43.411 -220.586 43.934 C -218.319 44.35 -217.365 45.268 -215.694 46.077 C -213.898 46.946 -211.31 47.671 -201.986 46.32 C -194.257 45.2 -187.73 43.498 -187.389 43.408 C -181.939 41.972 -176.532 40.173 -173.601 41.993 C -171.232 43.464 -170.326 45.066 -170.326 45.066 C -169.72 46.137 -169.81 46.66 -169.193 47.128 C -168.93 47.328 -167.882 48.017 -164.147 46.611 C -162.699 46.066 -161.446 45.432 -158.357 43.61 C -154.661 41.431 -154.007 40.895 -153.302 41.225 C -151.536 42.052 -152.648 46.829 -151.24 47.25 C -150.608 47.439 -150.086 46.565 -149.097 45.794 C -147.369 44.447 -145.635 44.519 -135.511 44.662 C -133.304 44.693 -132.168 44.701 -130.618 44.338 C -127.973 43.719 -127.76 42.889 -125.968 42.64 C -123.026 42.232 -122.476 44.316 -118.609 44.864 C -117.694 44.993 -114.258 45.48 -111.048 43.772 C -108.999 42.683 -107.825 41.116 -106.317 41.548 C -105.559 41.765 -105.319 42.315 -104.78 42.842 C -102.655 44.922 -98.822 43.776 -94.874 43.489 C -94.015 43.427 -91.161 43.744 -85.452 44.379 C -76.146 45.413 -76.352 45.906 -71.745 46.239 C -64.694 46.748 -59.135 45.959 -56.096 45.511 C -52.497 44.98 -51.143 44.521 -42.753 42.519 C -36.894 41.12 -32.131 40.05 -29.073 39.374 C -25.09 41.198 -21.107 43.022 -17.124 44.846 C -12.322 42.883 -7.52 40.919 -2.718 38.956 C -1.812 25.971 -0.906 12.985 0 0" style="fill: rgb(127, 22, 33); fill-opacity: 1;"/>
      </g>
    </g>
    <g style="clip-path: url(&quot;#clippath1&quot;);">
      <g transform="">
        <path d="M -120.284 104.768 L -118.911 186.939 L -43.65 185.681 L -45.024 103.51 Z" style="fill: none;"/>
      </g>
    </g>
    <g style="clip-path: url(&quot;#clippath2&quot;);">
      <g transform="translate(14.2672 125.1749)">
        <path d="M 0 0 C 2.734 1.457 5.974 1.89 7.94 4.892 C 8.79 6.19 10.759 6.74 12.219 7.63 C 12.194 6.125 12.169 4.619 12.143 3.063 C 12.259 3.095 12.636 3.128 12.942 3.294 C 16.95 5.458 23.537 4.772 26.971 1.814 C 29.165 -0.075 29.16 -1.428 26.948 -4.074 C 25.946 0.496 23.107 2.292 18.022 1.156 C 12.104 -0.167 6.313 -2.231 0.343 -3.107 C -4.712 -3.849 -9.985 -3.757 -15.081 -3.237 C -17.611 -2.98 -19.962 -0.933 -22.65 0.435 C -22.672 -0.865 -22.692 -2.044 -22.733 -4.481 C -25.902 -2.21 -28.339 -0.463 -30.983 1.431 C -31.409 0.607 -32.043 -0.616 -32.676 -1.839 C -33.013 -1.906 -33.35 -1.972 -33.686 -2.039 C -34.388 0.805 -35.089 3.648 -35.791 6.492 C -33.35 1.634 -39.137 0.552 -40.075 -2.725 C -40.163 -3.033 -41.264 -3.176 -41.892 -3.167 C -43.081 -3.15 -46.719 1.141 -46.668 2.344 C -46.447 7.506 -44.639 9.46 -39.311 10.285 C -43.417 11.56 -45.9 10.378 -46.674 5.803 C -46.971 4.044 -47.892 2.246 -48.973 0.806 C -50.349 -1.028 -51.823 -1.067 -52.41 1.723 C -54.478 -0.109 -56.231 -3.547 -59.423 0.179 C -61.746 -3.318 -65.752 -3.407 -69.126 -3.204 C -75.813 -2.801 -82.47 -1.591 -89.087 -0.417 C -93.36 0.341 -97.523 1.71 -101.769 2.655 C -105.725 3.535 -108.312 1.712 -109.676 -2.159 C -110.017 -2.012 -110.358 -1.865 -110.699 -1.718 C -110.232 -0.281 -109.803 1.17 -109.286 2.588 C -108.822 3.86 -108.262 5.097 -107.745 6.349 C -104.124 5.971 -100.502 5.593 -97.437 5.273 C -97.615 5.606 -98.303 6.891 -99.615 9.343 C -96.139 8.957 -93.709 8.687 -90.748 8.358 C -94.736 13.645 -99.208 18.205 -100.701 25.682 C -96.384 19.789 -92.732 14.804 -89.081 9.819 C -87.841 8.505 -86.601 7.192 -85.361 5.878 C -79.42 -0.471 -72.131 -2.24 -63.804 -0.417 C -64.845 -0.297 -65.887 -0.177 -67.341 -0.008 C -66.946 0.896 -66.666 1.537 -66.402 2.143 C -70.445 2.733 -71.018 6.163 -70.914 9.099 C -70.854 10.805 -69.018 13.191 -67.388 13.924 C -64.984 15.004 -63.223 13.203 -62.574 10.617 C -63.647 10.748 -64.728 10.888 -65.779 11.025 C -67.023 7.338 -67.685 3.837 -62.904 2.441 C -58.645 1.197 -55.663 2.841 -54.078 6.779 C -55.842 5.947 -57.824 5.012 -59.684 4.134 C -60.874 6.762 -61.77 8.739 -62.665 10.716 C -60.816 10.996 -58.967 11.276 -57.117 11.555 C -57.117 11.555 -57.204 11.629 -57.204 11.629 C -57.875 10.853 -58.546 10.077 -59.217 9.302 C -59.209 8.952 -59.2 8.602 -59.192 8.252 C -57.962 8.502 -56.164 8.324 -55.606 9.08 C -53.75 11.594 -52.348 14.331 -52.302 17.752 C -52.133 30.331 -44.392 35.125 -33.267 29.716 L -33.382 29.842 C -32.07 25.583 -30.693 21.343 -29.469 17.058 C -28.74 14.506 -28.461 11.811 -27.615 9.307 C -25.737 3.75 -22.183 2.047 -14.233 2.694 C -14.013 1.424 -13.79 0.134 -13.423 -1.988 C -9.786 -1.447 -5.862 -0.863 -1.938 -0.278 C -1.292 -0.186 -0.646 -0.093 0 0" style="fill: rgb(209, 162, 42); fill-opacity: 1;"/>
      </g>
    </g>
    <g style="clip-path: url(&quot;#clippath2&quot;);">
      <g transform="translate(9.3133 138.6104)">
        <path d="M 0 0 C 1.324 -0.994 2.786 -1.85 3.93 -3.023 C 4.945 -4.065 5.605 -5.46 6.7 -7.119 C 5.787 -8.424 4.613 -10.101 3.44 -11.777 C 2.993 -12.146 2.546 -12.515 2.098 -12.883 C -0.544 -13.39 -3.187 -13.896 -5.829 -14.403 C -5.908 -14.099 -5.986 -13.796 -6.065 -13.492 C -5.195 -13.21 -4.329 -12.917 -3.456 -12.648 C 2.078 -10.946 3.429 -6.007 -0.593 -1.867 C -1.953 -0.466 -2.136 0.121 0.099 -0.032 Z" style="fill: rgb(229, 232, 119); fill-opacity: 1;"/>
      </g>
    </g>
    <g style="clip-path: url(&quot;#clippath2&quot;);">
      <g transform="translate(11.2744 153.6896)">
        <path d="M 0 0 C 0.738 -1.241 1.476 -2.483 2.214 -3.724 C 1.084 -4.202 -0.775 -5.342 -1.043 -5.04 C -1.986 -3.976 -2.383 -2.418 -2.988 -1.047 C -2.988 -1.047 -3.064 -1.128 -3.064 -1.128 C -2.764 -0.749 -2.464 -0.37 -2.164 0.009 C -1.442 0.006 -0.721 0.003 0 0" style="fill: rgb(229, 232, 119); fill-opacity: 1;"/>
      </g>
    </g>
    <g style="clip-path: url(&quot;#clippath2&quot;);">
      <g transform="translate(9.4119 138.5785)">
        <path d="M 0 0 C -3.412 1.399 -6.823 2.797 -10.141 4.157 C -11.043 0.687 -12.931 0.112 -16.349 3.486 C -10.1 3.146 -12.585 8.452 -11.24 11.249 C -10.042 13.74 -9.568 16.586 -8.775 19.276 C -8.463 19.176 -8.152 19.077 -7.84 18.977 C -8.394 16.449 -9.422 13.919 -9.413 11.393 C -9.382 3.391 -3.836 -0.184 4.236 2.049 C 6.552 2.69 9.06 2.621 12.204 2.955 C 11.335 -0.307 10.813 -2.262 10.292 -4.218 C 8.922 1.047 7.149 1.787 -0.101 0.032 C -0.099 0.032 0 0 0 0" style="fill: rgb(229, 232, 119); fill-opacity: 1;"/>
      </g>
    </g>
    <g style="clip-path: url(&quot;#clippath2&quot;);">
      <g transform="translate(3.506 126.8785)">
        <path d="M 0 0 C -0.748 3.422 -1.433 6.557 -2.265 10.369 C -2.595 10.329 -3.968 10.163 -5.341 9.997 C -5.441 10.293 -5.54 10.589 -5.64 10.884 C -4.27 11.339 -2.592 12.519 -1.599 12.088 C 0.112 11.346 2.027 9.873 2.725 8.219 C 4.122 4.908 2.703 2.047 0 0" style="fill: rgb(229, 232, 119); fill-opacity: 1;"/>
      </g>
    </g>
    <g style="clip-path: url(&quot;#clippath2&quot;);">
      <g transform="translate(13.0273 144.8578)">
        <path d="M 0 0 C -2.18 -1.844 -3.579 -3.871 -4.605 -3.694 C -6.106 -3.436 -7.339 -1.596 -8.686 -0.43 C -7.603 0.766 -6.603 2.812 -5.414 2.932 C -4.065 3.067 -2.546 1.479 0 0" style="fill: rgb(229, 232, 119); fill-opacity: 1;"/>
      </g>
    </g>
    <g style="clip-path: url(&quot;#clippath2&quot;);">
      <g transform="translate(20.1737 144.8745)">
        <path d="M 0 0 C -1.198 -0.587 -2.798 -1.966 -3.511 -1.597 C -5.019 -0.815 -6.065 0.879 -7.3 2.199 C -6.283 3.158 -4.947 5.096 -4.31 4.885 C -2.629 4.327 -1.252 2.837 0.246 1.718 C 0.164 1.146 0.082 0.573 0 0" style="fill: rgb(229, 232, 119); fill-opacity: 1;"/>
      </g>
    </g>
    <g style="clip-path: url(&quot;#clippath2&quot;);">
      <g transform="translate(21.4065 154.59)">
        <path d="M 0 0 C -2.374 -1.546 -3.699 -2.94 -5.198 -3.17 C -6 -3.292 -7.103 -1.409 -8.07 -0.431 C -6.862 0.77 -5.824 2.452 -4.376 2.976 C -3.61 3.254 -2.13 1.519 0 0" style="fill: rgb(229, 232, 119); fill-opacity: 1;"/>
      </g>
    </g>
    <g style="clip-path: url(&quot;#clippath2&quot;);">
      <g transform="translate(8.2863 152.6424)">
        <path d="M 0 0 C -0.511 -0.522 -0.94 -1.189 -1.549 -1.536 C -2.762 -2.227 -4.182 -3.344 -5.309 -3.137 C -6.194 -2.975 -6.768 -1.085 -7.48 0.038 C -6.035 0.576 -4.608 1.46 -3.141 1.532 C -2.158 1.581 -1.12 0.479 -0.091 -0.095 C -0.076 -0.081 0 0 0 0" style="fill: rgb(229, 232, 119); fill-opacity: 1;"/>
      </g>
    </g>
    <g style="clip-path: url(&quot;#clippath2&quot;);">
      <g transform="translate(48.8314 144.2221)">
        <path d="M 0 0 C 2.015 1.091 3.938 2.794 6.069 3.125 C 9.097 3.595 11.961 0.374 11.842 -2.75 C 11.772 -4.595 11.42 -5.812 8.698 -5.347 C 4.903 -4.699 2.155 -3.038 0.09 0.079 C 0.086 0.076 0 0 0 0" style="fill: rgb(229, 232, 119); fill-opacity: 1;"/>
      </g>
    </g>
    <g style="clip-path: url(&quot;#clippath2&quot;);">
      <g transform="translate(47.4058 150.2835)">
        <path d="M 0 0 C 1.59 1.725 3.023 3.648 4.827 5.102 C 5.925 5.986 7.89 7.545 8.529 4.351 C 8.567 4.162 8.881 3.911 9.085 3.892 C 11.001 3.714 13.275 3.457 12.724 0.946 C 12.513 -0.016 10.162 -0.645 8.693 -1.144 C 6.84 -1.773 4.892 -2.113 3.711 -2.401 C 2.117 -1.349 1.02 -0.625 -0.082 0.108 C -0.087 0.118 0 0 0 0" style="fill: rgb(229, 232, 119); fill-opacity: 1;"/>
      </g>
    </g>
    <g style="clip-path: url(&quot;#clippath2&quot;);">
      <g transform="translate(60.026 131.3885)">
        <path d="M 0 0 C -0.104 -0.845 -0.2 -1.691 -0.313 -2.535 C -0.528 -4.137 -1.277 -5.934 -0.787 -7.269 C -0.469 -8.136 1.648 -8.328 4.121 -9.26 C 2.179 -9.868 0.359 -11.044 -0.394 -10.552 C -2.084 -9.447 -3.244 -7.514 -4.943 -5.543 C -6.95 -6.942 -11.703 -5.103 -13.412 -9.821 C -15.337 -6.807 -14.837 -5.097 -11.702 -4.279 C -9.411 -3.68 -6.978 -3.586 -4.735 -2.863 C -3.358 -2.419 -2.222 -1.213 -0.977 -0.35 C -0.651 -0.233 -0.326 -0.117 0 0" style="fill: rgb(229, 232, 119); fill-opacity: 1;"/>
      </g>
    </g>
    <g style="clip-path: url(&quot;#clippath2&quot;);">
      <g transform="translate(60.0259 131.3886)">
        <path d="M 0 0 C -0.326 -0.117 -0.651 -0.233 -0.977 -0.35 C -1.804 -0.471 -2.631 -0.593 -3.895 -0.778 C -2.788 1.114 -2.263 2.988 -1.039 3.85 C 0.426 4.882 2.651 5.786 4.252 5.423 C 6.82 4.84 6.432 2.481 5.46 0.511 C 4.721 -0.989 3.822 -2.408 2.376 -4.948 C 2.117 -2.068 1.963 -0.353 1.809 1.361 C 1.558 1.624 1.307 1.887 1.056 2.151 C 0.704 1.434 0.352 0.717 0 0" style="fill: rgb(229, 232, 119); fill-opacity: 1;"/>
      </g>
    </g>
    <g style="clip-path: url(&quot;#clippath2&quot;);">
      <g transform="translate(44.0841 143.7581)">
        <path d="M 0 0 C 0.575 -4.311 1.151 -8.622 1.723 -12.912 C 0.097 -12.918 -4.197 -9.166 -4.494 -7.253 C -4.985 -4.087 -3.108 -1.177 0.11 -0.107 C 0.106 -0.105 0 0 0 0" style="fill: rgb(229, 232, 119); fill-opacity: 1;"/>
      </g>
    </g>
    <g style="clip-path: url(&quot;#clippath2&quot;);">
      <g transform="translate(35.0484 137.7119)">
        <path d="M 0 0 C 0.536 -0.283 1.275 -0.426 1.575 -0.871 C 3.724 -4.057 5.783 -7.304 7.762 -10.364 C 4.489 -9.716 2.127 -6.833 -0.176 -3.924 C -2.03 -1.581 -3.903 0.414 -7.295 -2.368 C -5.501 2.394 -4.563 2.641 0.075 0.072 C 0.075 0.072 0 0 0 0" style="fill: rgb(229, 232, 119); fill-opacity: 1;"/>
      </g>
    </g>
    <g style="clip-path: url(&quot;#clippath2&quot;);">
      <g transform="translate(50.6615 156.8595)">
        <path d="M 0 0 C -1.982 -2.244 -3.964 -4.489 -6.312 -7.148 C -7.368 -1.541 -6.222 -0.002 -1.07 1.018 C -0.713 0.679 -0.357 0.339 0 0" style="fill: rgb(229, 232, 119); fill-opacity: 1;"/>
      </g>
    </g>
    <g style="clip-path: url(&quot;#clippath2&quot;);">
      <g transform="translate(35.1236 137.7843)">
        <path d="M 0 0 C -1.919 6.083 2.26 10.468 9.315 9.774 C 9.316 9.774 9.232 9.866 9.233 9.865 C 8.952 9.331 8.668 8.333 8.389 8.335 C 2.784 8.366 1.013 4.538 -0.063 -0.059 C -0.075 -0.072 0 0 0 0" style="fill: rgb(229, 232, 119); fill-opacity: 1;"/>
      </g>
    </g>
    <g transform="">
      <path d="M 412.262 97.338 L 12.262 97.338 L 12.262 159.16 L 412.262 159.16 L 412.262 97.338 Z" style="fill-opacity: 1; fill: rgb(153, 23, 34);"/>
      <path d="M 408.036 101.483 L 16.036 101.483 L 16.036 155.013 L 408.036 155.013 L 408.036 101.483 Z" style="fill: rgb(42, 15, 15); fill-opacity: 1;"/>
      <path d="M 0 178.004 L 571.041 178.004 L 571.041 0 L 0 0 Z" style="fill: none;"/>
    </g>
    <g style="clip-path: url(&quot;#clippath3&quot;);">
      <g transform="translate(41.9315 109.7716)">
        <path d="M 0 0 C -1.337 1.502 -2.674 3.004 -4.011 4.506 C -3.541 2.246 -1.801 0.231 0 0 M 6.393 -3.283 C 5.773 -3.427 5.152 -3.57 4.531 -3.714 L 4.586 -3.714 C 3.73 -3.481 2.875 -3.249 2.035 -3.02 C 2.023 -4.42 2.005 -5.817 2.004 -7.214 C 2.004 -7.402 2.023 -7.687 2.141 -7.765 C 3.824 -8.886 2.701 -9.935 2.021 -11.111 C 1.734 -10.835 1.469 -10.58 1.191 -10.314 C -0.023 -12.711 -0.135 -12.764 -2.983 -12.343 C -1.873 -6.462 -3.512 -2.902 -8.441 -0.826 C -8.007 -0.664 -7.705 -0.551 -7.298 -0.399 C -9.762 1.16 -12.028 2.911 -15.136 2.819 C -16.412 2.781 -17.165 2.354 -17.621 1.178 C -18.107 -0.077 -18.852 -0.18 -19.862 0.818 C -19.645 1.181 -19.42 1.554 -19.196 1.928 C -21.088 0.515 -22.438 1.276 -23.574 2.959 C -21.76 4.699 -21.76 4.699 -19.627 3.647 C -19.641 4.231 -19.654 4.783 -19.669 5.422 C -18.645 5.489 -17.84 5.451 -17.287 4.339 C -17.047 3.856 -16.24 3.518 -15.632 3.385 C -14.68 3.178 -13.678 3.201 -12.565 3.116 C -13.003 3.999 -13.369 4.735 -13.821 5.647 C -14.739 5.263 -15.662 4.877 -16.585 4.49 C -16.643 4.586 -16.7 4.683 -16.758 4.779 C -15.796 5.317 -14.833 5.856 -13.871 6.394 L -13.913 6.39 C -11.679 6.403 -9.443 6.477 -7.213 6.383 C -6.677 6.361 -6.163 5.781 -5.642 5.458 C -8.076 6.079 -10.509 6.634 -13.088 5.849 C -12.726 4.075 -11.668 3.033 -10.358 2.164 C -8.921 1.21 -7.408 0.339 -6.096 -0.766 C -3.969 -2.558 -2.586 -4.875 -2.016 -8.072 C -1.063 -6.549 -0.251 -5.11 1.254 -7.028 C 1.754 -5.154 1.471 -2.946 0.719 -2.256 C -0.993 -0.685 -2.7 0.89 -4.262 2.328 C -4.202 2.099 -4.025 1.591 -3.941 1.068 C -3.867 0.611 -3.897 0.139 -3.881 -0.327 C -4.029 -0.341 -4.177 -0.356 -4.325 -0.37 C -4.78 1.577 -5.234 3.524 -5.688 5.472 C -6.527 9.482 -5.896 13.231 -3.674 16.681 C -3.226 17.377 -2.685 18.012 -1.943 18.999 C -2.637 18.858 -3.057 18.773 -3.477 18.688 C -3.523 18.819 -3.57 18.949 -3.616 19.079 C -3.18 19.375 -2.781 19.782 -2.299 19.944 C -1.309 20.277 -0.211 20.338 0.732 20.758 C 5.349 22.819 7.042 23.053 12.099 22.075 C 12.021 23.214 11.863 24.337 11.892 25.454 C 11.922 26.582 12.139 27.704 12.278 28.856 C 11.648 29.286 11.055 29.854 10.348 30.119 C 9.836 30.311 9.004 30.311 8.63 30.008 C 8.298 29.739 8.338 28.936 8.333 28.367 C 8.33 28.054 8.755 27.668 8.668 27.438 C 8.475 26.933 8.166 26.317 7.733 26.119 C 7.484 26.005 6.901 26.619 6.302 27.016 C 6.29 25.325 5.9 23.745 3.537 24.129 C 2.71 25.676 2.71 25.676 5.458 28.177 C 4.903 28.132 4.507 28.1 4.078 28.065 C 4.583 29.811 5.235 30.221 6.823 30.041 C 7.258 29.991 7.824 30.134 8.164 30.401 C 9.157 31.182 10.02 31.036 10.998 30.366 C 11.54 29.995 12.23 29.842 12.854 29.595 C 14.217 30.346 15.125 31.889 15.288 33.801 C 15.078 33.582 14.86 33.433 14.75 33.226 C 14.103 32.007 13.481 30.776 12.85 29.548 C 12.612 31.591 14.029 32.9 15.003 34.403 C 15.127 34.595 15.309 34.751 15.589 35.063 C 14.898 35.044 14.388 35.03 13.879 35.015 C 13.839 35.147 13.799 35.278 13.759 35.409 C 15.353 36.038 17.091 36.439 18.511 37.341 C 21.868 39.474 25.423 39.786 29.183 39.042 C 29.686 38.943 30.145 38.62 30.625 38.401 C 30.616 38.346 30.607 38.291 30.599 38.236 C 28.109 38.375 25.599 38.772 23.136 38.577 C 20.877 38.399 18.723 37.492 17.46 35.316 L 17.321 35.334 C 16.792 34.485 16.202 33.667 15.746 32.779 C 15.039 31.402 14.732 29.783 13.138 28.987 C 12.887 28.862 12.776 28.309 12.733 27.938 C 12.602 26.813 12.474 25.681 12.458 24.55 C 12.432 22.796 12.571 21.198 14.8 20.628 C 15.782 20.377 16.594 19.453 17.683 18.696 C 17.578 19.505 17.496 20.136 17.428 20.657 C 17.702 21.15 17.976 21.644 18.321 22.266 C 21.052 22.182 21.491 21.763 21.498 18.757 C 20.523 18.518 19.501 18.269 18.668 18.065 C 19.47 16.629 20.366 15.023 21.263 13.418 C 19.262 16.55 16.817 19.183 13.1 20.84 C 13.285 20.254 13.343 19.963 13.465 19.702 C 15.033 16.333 17.809 14.458 21.258 13.422 C 23.125 13.672 24.991 13.933 26.862 14.156 C 27.095 14.184 27.353 14.008 27.6 13.927 L 27.602 13.986 C 25.876 13.482 24.15 12.978 22.342 12.45 C 22.672 11.45 23.079 10.22 23.55 8.795 C 24.422 10.28 24.448 12.283 26.397 12.735 C 25.424 10.69 24.464 8.671 23.471 6.582 C 23.342 6.781 23.239 6.939 23.137 7.096 L 23.134 7.039 C 22.954 8.005 22.805 8.978 22.587 9.935 C 22.196 11.655 21.503 12.806 19.536 13.552 C 17.278 14.409 15.397 16.259 13.33 17.694 C 13.04 16.923 12.62 15.805 12.201 14.687 C 12.011 14.743 11.822 14.8 11.633 14.857 C 11.907 15.777 12.054 16.762 12.48 17.606 C 13.393 19.412 12.765 21.268 10.851 21.749 C 7.415 22.613 4.149 22.105 1.251 20.063 C 0.643 19.635 0.464 18.604 0.078 17.855 C -0.257 17.207 -0.605 16.565 -0.946 15.92 C -1.089 15.982 -1.231 16.045 -1.373 16.107 C -1.019 17.186 -0.664 18.264 -0.281 19.429 C -2.073 18.164 -3.457 16.694 -4.029 14.593 C -4.427 13.13 -4.276 11.737 -3.361 10.495 C -2.571 9.421 -1.604 8.901 -0.198 9.806 C -1.016 10.826 -1.659 11.916 -0.038 12.936 C 0.127 12.551 0.3 12.149 0.499 11.688 C 1.284 12.859 2.017 13.952 2.776 15.084 C 4.667 13.464 4.672 12.719 2.94 10.231 L 4.137 10.827 C 2.811 8.341 2.76 8.327 0.596 9.173 C 0.437 9.235 0.229 9.213 0.054 9.181 C -2.925 8.635 -3.756 9.151 -4.71 12.146 C -4.737 12.232 -4.811 12.302 -4.962 12.526 C -5.727 10.202 -5.716 8.02 -4.879 5.841 C -4.799 5.631 -4.649 5.403 -4.465 5.284 C -2.868 4.251 -1.255 3.24 0.287 2.264 C 0.25 3.272 0.208 4.43 0.165 5.589 C 0.299 5.593 0.432 5.597 0.565 5.601 C 1.009 3.621 1.452 1.641 1.895 -0.341 C 1.143 0.428 0.391 1.2 -0.36 1.972 C -0.211 1.224 0.148 0.648 0.434 0.037 C 0.802 -0.749 1.269 -0.844 1.903 -0.282 C 3.919 -0.468 4.956 0.868 6.042 2.348 C 5.119 3.355 3.639 4.318 5.538 5.77 C 5.77 5.462 5.992 5.167 6.406 4.615 C 6.977 6.229 6.886 8.24 9.171 8.132 C 10.842 6.462 9.794 5.011 8.289 3.75 C 9.31 3.746 10.096 3.743 10.986 3.74 C 9.066 1.199 8.601 0.245 6.548 1.966 C 5.263 0.13 3.504 -1.017 1.192 -1.234 C 1.152 -1.38 1.111 -1.526 1.071 -1.671 C 1.701 -2.045 2.33 -2.418 3.309 -2.998 C 3.042 -2.149 2.907 -1.72 2.772 -1.291 C 3.201 -3.39 5.156 -2.759 6.395 -3.342 Z" style="fill: rgb(111, 14, 30); fill-opacity: 1;"/>
      </g>
    </g>
    <g style="clip-path: url(&quot;#clippath3&quot;);">
      <g transform="translate(76.2205 109.9427)">
        <path d="M 0 0 C 0.451 0.561 0.857 1.166 1.361 1.674 C 3.375 3.704 5.219 5.837 6.149 8.734 C 3.757 5.582 1.444 2.533 -1.021 -0.716 C -0.538 -0.354 -0.266 -0.149 0.009 0.057 C 0.436 -0.518 0.769 -0.462 1.274 0.061 C 2.186 1.005 3.121 1.972 4.203 2.696 C 5.738 3.724 7.415 4.541 9.031 5.448 C 8.975 5.565 8.918 5.682 8.862 5.798 C 7.446 5.086 5.945 4.501 4.635 3.628 C 3.007 2.543 1.538 1.22 0 0 M -1.664 19.561 C 0.841 20.472 4.304 18.956 5.813 16.191 C 6.389 15.136 6.754 13.967 7.312 12.616 C 7.573 13.445 7.756 14.095 7.981 14.73 C 8.432 16.006 8.062 16.788 6.72 17.192 C 5.474 17.568 4.65 18.328 5.049 20.009 C 5.87 19.379 6.59 18.825 7.563 18.078 C 7.51 18.893 7.479 19.359 7.433 20.07 C 8.23 20.105 9.024 20.14 9.908 20.178 C 9.854 19.67 9.809 19.247 9.748 18.666 C 10.568 19.161 11.268 19.584 11.972 20.01 C 12.45 18.628 12.049 17.552 10.628 17.174 C 9.321 16.826 8.814 16.112 8.553 14.847 C 8.308 13.655 7.659 12.551 7.304 11.373 C 7.012 10.406 6.958 9.366 6.673 8.396 C 6.425 7.555 6.001 6.766 5.791 5.763 C 6.485 6.381 7.18 7 7.875 7.618 C 8.599 8.263 9.324 8.908 10.049 9.553 C 10.152 9.444 10.254 9.335 10.357 9.226 C 9.089 8.098 7.821 6.969 6.394 5.699 C 10.458 6.34 14.223 6.934 18.033 7.535 C 19.103 10.625 19.801 11.111 21.65 10.042 C 20.83 9.454 19.993 8.855 19.155 8.255 C 19.2 8.11 19.245 7.966 19.291 7.821 C 19.855 7.834 20.419 7.846 21.027 7.86 C 22.059 5.701 21.918 5.514 19.167 5.708 C 19.674 4.798 20.16 3.927 20.645 3.056 C 20.555 2.934 20.465 2.812 20.374 2.69 C 19.727 3.097 18.958 3.393 18.464 3.939 C 17.824 4.646 17.437 5.574 16.869 6.355 C 16.723 6.556 16.287 6.68 16.019 6.634 C 14.908 6.446 13.809 6.179 12.706 5.941 L 12.711 5.945 C 8.688 5.037 5.302 2.908 1.681 0.303 C 2.488 0.318 2.883 0.325 3.35 0.333 C 3.242 0.146 3.217 0.042 3.152 0.001 C 1.789 -0.852 0.415 -1.688 -0.941 -2.551 C -1.397 -2.842 -1.77 -3.308 -2.257 -3.49 C -2.648 -3.636 -3.35 -3.642 -3.559 -3.402 C -3.798 -3.128 -3.775 -2.463 -3.624 -2.057 C -3.464 -1.624 -3.018 -1.297 -2.703 -0.92 C -1.638 0.355 -0.614 1.666 0.503 2.893 C 1.156 3.61 2.11 4.085 2.659 4.86 C 3.938 6.665 5.106 8.555 6.218 10.47 C 6.97 11.763 6.625 14.046 5.599 15.15 C 5.287 15.486 4.825 15.737 4.384 15.888 C 3.542 16.175 2.666 16.363 1.804 16.592 C 1.843 16.785 1.882 16.979 1.92 17.172 C 2.809 17.052 3.697 16.932 4.519 16.82 C 4.096 17.858 2.853 18.767 1.105 19.151 C 0.195 19.351 -0.735 19.46 -1.655 19.612 C -1.653 19.615 -1.664 19.561 -1.664 19.561" style="fill: rgb(111, 14, 30); fill-opacity: 1;"/>
      </g>
    </g>
    <g style="clip-path: url(&quot;#clippath3&quot;);">
      <g transform="translate(73.3676 128.2357)">
        <path d="M 0 0 C -0.171 0.142 -0.342 0.285 -0.513 0.427 C -1.311 -0.543 -2.11 -1.514 -2.908 -2.485 C -2.764 -2.606 -2.619 -2.727 -2.475 -2.848 C -1.65 -1.899 -0.825 -0.949 0 0 M -3.836 -4.537 C -3.418 -2.022 -2.421 0.067 0.11 1.14 C 0.477 1.296 0.762 1.835 0.919 2.259 C 2.141 5.548 0.652 9.933 -2.372 11.996 C -3.145 12.524 -3.961 12.989 -4.757 13.483 C -4.854 13.396 -4.95 13.308 -5.047 13.22 C -4.745 12.881 -4.443 12.542 -4.053 12.104 C -4.046 11.784 -4.032 11.193 -4.015 10.415 C -6.446 8.982 -7.622 8.611 -8.986 11.091 C -8.569 12.597 -7.587 13.475 -6.155 14.11 C -7.569 15.588 -9.423 16.561 -9.616 18.712 C -7.771 16.776 -6.126 14.735 -3.611 13.49 C -0.551 11.976 1.487 9.456 1.833 5.775 C 2.853 7.412 3.806 8.941 4.759 10.469 C 4.86 10.403 4.961 10.337 5.061 10.271 C 3.772 7.272 2.482 4.272 1.19 1.27 C 1.189 1.268 1.2 1.322 1.198 1.319 C 0.225 -0.645 -0.861 -2.513 -2.802 -3.708 C -2.978 -3.816 -3.144 -4.052 -3.182 -4.253 C -3.611 -6.49 -0.943 -9.205 1.218 -8.736 C 1.431 -8.69 1.616 -8.516 2.028 -8.277 C 1.443 -7.967 1.04 -7.753 0.879 -7.668 C 0.575 -6.779 0.344 -6.104 0.036 -5.206 C 0.653 -5.404 1.088 -5.543 1.75 -5.755 C 1.301 -5.083 0.941 -4.544 0.659 -4.12 C 1.124 -3.31 1.546 -2.575 2.066 -1.669 C 2.639 -1.753 2.92 -2.853 4.134 -2.729 C 5.164 -2.624 5.424 -4.433 4.535 -5.977 C 4.924 -5.76 5.173 -5.621 5.458 -5.462 C 5.992 -8.531 2.514 -9.254 -0.258 -9.226 C -0.063 -11.181 0.134 -13.163 0.332 -15.144 C 0.136 -15.166 -0.06 -15.188 -0.256 -15.21 C -0.307 -13.855 -1.606 -12.793 -0.82 -11.158 C -0.573 -10.645 -1.237 -9.638 -1.586 -8.906 C -2.299 -7.411 -3.082 -5.948 -3.835 -4.476 C -3.834 -4.478 -3.836 -4.537 -3.836 -4.537" style="fill: rgb(111, 14, 30); fill-opacity: 1;"/>
      </g>
    </g>
    <g style="clip-path: url(&quot;#clippath3&quot;);">
      <g transform="translate(89.1227 121.7376)">
        <path d="M 0 0 C 1.842 3.909 4.362 7.701 2.157 12.321 C 1.865 12.931 1.502 13.506 1.068 14.283 C 0.306 13.308 -0.377 12.419 -1.575 13.466 C -1.354 13.697 -1.135 13.926 -0.909 14.162 C -2.359 14.906 -2.359 14.906 -2.75 17.146 C -1.373 18.261 -0.067 17.961 1.248 16.839 C 1.497 17.178 1.717 17.478 1.925 17.76 C 2.76 17.538 2.572 15.679 1.609 14.525 C 3.925 10.772 4.415 6.903 1.904 2.884 C 4.239 4.396 5.301 6.805 4.932 9.354 C 4.85 9.923 5.071 10.535 5.341 11.091 C 6.848 8.127 5.12 5.863 3.704 3.575 C 5.606 5.268 7.529 6.98 9.452 8.692 C 9.579 8.551 9.707 8.411 9.834 8.27 C 8.243 6.005 5.841 4.595 3.707 2.94 C 5.148 3.599 6.545 4.405 8.046 4.884 C 9.988 5.503 11.634 4.897 12.391 3.587 C 11.109 3.774 9.762 4.294 8.56 4.063 C 6.979 3.759 5.473 2.943 4.008 2.2 C 2.698 1.535 1.488 0.671 0.234 -0.105 C 0.153 -0.078 0.074 -0.043 0 0" style="fill: rgb(111, 14, 30); fill-opacity: 1;"/>
      </g>
    </g>
    <g style="clip-path: url(&quot;#clippath3&quot;);">
      <g transform="translate(67.5425 152.3682)">
        <path d="M 0 0 C -0.188 0.431 -0.338 0.776 -0.587 1.346 C -0.808 0.013 -1.189 -0.984 -2.663 -0.871 C -3.387 -0.816 -4.161 0.233 -3.775 1.031 C -3.462 1.677 -2.786 2.146 -2.262 2.704 C -2.393 2.813 -2.722 3.086 -3.05 3.358 C -2.653 3.634 -2.131 3.827 -1.886 4.202 C -1.31 5.083 -0.628 4.776 0.124 4.611 C 0.424 4.545 0.859 4.649 1.102 4.842 C 2.306 5.795 3.528 5.812 4.874 4.895 C 4.885 5.558 4.894 6.07 4.903 6.581 C 5.023 6.63 5.142 6.678 5.261 6.727 C 5.486 6.26 5.761 5.81 5.923 5.322 C 6.255 4.328 6.411 3.259 6.849 2.319 C 7.501 0.918 7.826 -0.404 7.08 -1.743 C 6.753 -0.319 6.655 1.187 6.041 2.443 C 5.562 3.424 4.518 4.206 3.569 4.842 C 3.213 5.08 2.308 4.8 1.86 4.474 C 1.619 4.298 1.668 3.464 1.842 3.028 C 2.545 1.264 2.085 0.394 0 0" style="fill: rgb(111, 14, 30); fill-opacity: 1;"/>
      </g>
    </g>
    <g style="clip-path: url(&quot;#clippath3&quot;);">
      <g transform="translate(72.5562 148.1726)">
        <path d="M 0 0 C 0.31 0.635 0.619 1.27 0.929 1.905 C 1.054 1.884 1.18 1.862 1.306 1.841 C 0.665 0.287 -0.002 -1.452 1.497 -2.597 C 2.732 -3.54 4.372 -3.951 5.833 -4.597 C 5.931 -4.427 6.029 -4.257 6.127 -4.087 C 4.479 -2.936 2.83 -1.785 1.225 -0.665 C 2.413 -0.542 4.015 -1.617 8.099 -5.366 C 7.753 -3.608 7.247 -1.935 8.703 -0.632 C 8.864 -0.649 9.024 -0.666 9.184 -0.683 C 9.064 -1.943 8.828 -3.207 8.863 -4.463 C 8.888 -5.36 9.191 -6.279 9.519 -7.132 C 10.487 -9.657 11.572 -12.139 12.514 -14.673 C 12.776 -15.376 12.698 -16.204 12.494 -17.038 C 12.4 -16.761 12.247 -16.489 12.222 -16.206 C 11.936 -13.019 10.597 -10.222 8.998 -7.529 C 8.024 -5.888 7.434 -5.743 5.633 -6.355 C 5.204 -6.5 4.672 -6.313 4.206 -6.389 C 3.783 -6.457 3.386 -6.676 2.755 -6.6 C 3.436 -6.057 4.117 -5.514 4.936 -4.862 C 2.406 -4.216 0.004 -3.378 -0.026 -0.165 C -0.017 -0.11 -0.009 -0.055 0 0" style="fill: rgb(111, 14, 30); fill-opacity: 1;"/>
      </g>
    </g>
    <g style="clip-path: url(&quot;#clippath3&quot;);">
      <g transform="translate(74.2732 133.9793)">
        <path d="M 0 0 C -0.801 -0.955 -1.609 -1.918 -2.403 -2.866 C -5.439 -0.989 -5.615 1.011 -3.153 2.924 C -2.497 2.701 -1.921 2.504 -1.532 2.371 C -1.031 1.596 -0.589 0.912 0 0" style="fill: rgb(111, 14, 30); fill-opacity: 1;"/>
      </g>
    </g>
    <g style="clip-path: url(&quot;#clippath3&quot;);">
      <g transform="translate(68.1537 125.612)">
        <path d="M 0 0 C -0.464 0.143 -1.035 0.319 -1.689 0.52 C -1.966 0.894 -2.326 1.379 -2.943 2.212 C -2.678 3.055 -2.523 4.445 -0.852 4.81 C 0.617 5.132 1.244 3.945 2.472 3.206 C 1.857 2.939 1.581 2.82 1.241 2.672 C 1.432 2.334 1.62 2.003 1.695 1.869 C 1.125 1.24 0.624 0.687 0 0" style="fill: rgb(111, 14, 30); fill-opacity: 1;"/>
      </g>
    </g>
    <g style="clip-path: url(&quot;#clippath3&quot;);">
      <g transform="translate(59.8203 134.0208)">
        <path d="M 0 0 C -0.496 1.345 -0.906 2.457 -1.412 3.83 C -0.148 4.326 1.072 4.805 2.534 5.379 C 2.446 4.14 4.001 3.181 2.807 1.995 C 2.007 1.201 0.954 0.663 0 0" style="fill: rgb(111, 14, 30); fill-opacity: 1;"/>
      </g>
    </g>
    <g style="clip-path: url(&quot;#clippath3&quot;);">
      <g transform="translate(77.3834 152.0416)">
        <path d="M 0 0 C -0.809 -1.207 -1.41 -2.356 -3.045 -1.7 C -4.484 -1.123 -4.93 -0.134 -4.811 1.295 C -4.641 1.299 -4.482 1.324 -4.474 1.299 C -3.652 -1.158 -2.096 -1.288 0 0" style="fill: rgb(111, 14, 30); fill-opacity: 1;"/>
      </g>
    </g>
    <g style="clip-path: url(&quot;#clippath3&quot;);">
      <g transform="translate(60.6826 139.6174)">
        <path d="M 0 0 C 0.618 2.108 3.77 3.584 5.97 2.803 C 3.694 2.474 1.53 1.914 0 0" style="fill: rgb(111, 14, 30); fill-opacity: 1;"/>
      </g>
    </g>
    <g style="clip-path: url(&quot;#clippath3&quot;);">
      <g transform="translate(67.9695 133.9741)">
        <path d="M 0 0 C -0.549 0.556 -1.107 1.106 -1.615 1.698 C -1.631 1.717 -1.109 2.408 -0.905 2.374 C 0.221 2.189 0.512 1.371 0.445 0.372 C 0.297 0.248 0.148 0.124 0 0" style="fill: rgb(111, 14, 30); fill-opacity: 1;"/>
      </g>
    </g>
    <g style="clip-path: url(&quot;#clippath3&quot;);">
      <g transform="translate(67.1287 131.433)">
        <path d="M 0 0 C -0.585 1.112 -0.044 1.704 0.697 2.146 C 0.83 2.226 1.419 1.918 1.439 1.748 C 1.555 0.775 1.048 0.222 0 0" style="fill: rgb(111, 14, 30); fill-opacity: 1;"/>
      </g>
    </g>
    <g style="clip-path: url(&quot;#clippath3&quot;);">
      <g transform="translate(63.4907 135.1099)">
        <path d="M 0 0 C 0.094 0.912 0.548 1.51 1.565 1.448 C 1.781 1.435 1.975 1.056 2.179 0.845 C 1.578 0.402 0.976 -0.042 0.375 -0.485 C 0.25 -0.324 0.125 -0.162 0 0" style="fill: rgb(111, 14, 30); fill-opacity: 1;"/>
      </g>
    </g>
    <g style="clip-path: url(&quot;#clippath3&quot;);">
      <g transform="translate(66.6315 130.7594)">
        <path d="M 0 0 C -0.865 0.22 -1.418 0.27 -1.863 0.517 C -2.046 0.618 -1.994 1.143 -2.05 1.474 C -1.498 1.404 -0.927 1.396 -0.407 1.227 C -0.243 1.173 -0.216 0.691 0 0" style="fill: rgb(111, 14, 30); fill-opacity: 1;"/>
      </g>
    </g>
    <g style="clip-path: url(&quot;#clippath3&quot;);">
      <g transform="translate(59.392 145.0872)">
        <path d="M 0 0 C 0.044 -1.1 0.088 -2.201 0.133 -3.301 C -0.023 -3.303 -0.179 -3.304 -0.335 -3.306 C -1.184 -2.2 -0.877 -1.091 -0.139 0.019 C -0.139 0.019 0 0 0 0" style="fill: rgb(111, 14, 30); fill-opacity: 1;"/>
      </g>
    </g>
    <g style="clip-path: url(&quot;#clippath3&quot;);">
      <g transform="translate(54.7814 139.32)">
        <path d="M 0 0 C 0.631 1.227 1.253 2.459 1.9 3.678 C 2.01 3.884 2.228 4.033 2.438 4.253 C 2.275 2.34 1.367 0.798 0.004 0.047 C 0.004 0.042 0 0 0 0" style="fill: rgb(111, 14, 30); fill-opacity: 1;"/>
      </g>
    </g>
    <g style="clip-path: url(&quot;#clippath3&quot;);">
      <g transform="translate(73.3676 128.2357)">
        <path d="M 0 0 C -0.825 -0.949 -1.65 -1.899 -2.475 -2.848 C -2.619 -2.727 -2.764 -2.606 -2.908 -2.485 C -2.11 -1.514 -1.311 -0.543 -0.513 0.427 C -0.342 0.285 -0.171 0.142 0 0" style="fill: rgb(111, 14, 30); fill-opacity: 1;"/>
      </g>
    </g>
    <g transform="">
      <path d="M 0 178.004 L 571.041 178.004 L 571.041 0 L 0 0 Z" style="fill: none;"/>
    </g>
    <g transform="">
      <path d="M 0 178.004 L 571.041 178.004 L 571.041 0 L 0 0 Z" style="fill: none;"/>
    </g>
    <g style="clip-path: url(&quot;#clippath5&quot;);">
      <g transform="">
        <path d="M -713.322 301.538 L 229.038 301.538 L 229.038 425.823 L -713.322 425.823 Z" style="fill: none;"/>
      </g>
    </g>
    <g style="clip-path: url(&quot;#clippath6&quot;);">
      <g transform="">
        <path d="M 229.038 295.084 L 116.85 295.084 L 116.85 419.516 L 229.038 419.516 Z" style="fill: none;"/>
      </g>
    </g>
    <g style="clip-path: url(&quot;#clippath7&quot;);">
      <g transform="translate(229.7749 179.6577)">
        <path d="M 0 0 C 0.07 -0.016 0.14 -0.032 0.21 -0.048 C 0.531 23.818 0.853 47.684 1.174 71.55 C 1.104 71.549 1.033 71.549 0.963 71.548 C 0.642 47.699 0.321 23.85 0 0 M 0.479 64.298 C 0.503 64.297 0.527 64.297 0.552 64.296 C 0.918 91.522 1.285 118.747 1.65 145.972 C 1.662 146.845 1.757 147.78 1.637 148.571 C 1.531 149.269 1.179 149.805 0.935 150.413 C 0.639 149.788 0.204 149.254 0.08 148.517 C -0.081 147.562 -0.002 146.446 -0.015 145.399 C -0.314 121.491 -0.591 97.583 -0.914 73.676 C -1.331 42.79 -1.792 11.905 -2.19 -18.981 C -2.202 -19.937 -1.778 -21.646 -1.47 -21.721 C -0.547 -21.944 -0.59 -20.238 -0.575 -18.942 C -0.505 -12.661 -0.467 -6.379 -0.385 -0.097 C -0.104 21.368 0.19 42.833 0.479 64.298 M -1.804 64.392 C -1.821 64.392 -1.837 64.393 -1.853 64.393 C -1.779 69.889 -1.708 75.386 -1.63 80.882 C -1.32 102.792 -1.008 124.702 -0.698 146.612 C -0.689 147.222 -0.586 148.008 -0.731 148.406 C -1.027 149.219 -1.43 150.262 -1.85 150.372 C -2.18 150.459 -2.75 149.427 -2.943 148.632 C -3.157 147.756 -3.084 146.583 -3.098 145.539 C -3.44 120.403 -3.778 95.267 -4.116 70.131 C -4.508 40.974 -4.901 11.817 -5.289 -17.34 C -5.314 -19.23 -5.53 -21.719 -4.192 -21.803 C -2.706 -21.897 -2.937 -19.239 -2.911 -17.311 C -2.535 9.923 -2.171 37.157 -1.804 64.392 M -10.332 -20.885 C -9.552 -22.625 -9.067 -21.738 -8.763 -20.013 C -8.636 -19.297 -8.67 -18.46 -8.659 -17.677 C -8.268 11.115 -7.87 39.907 -7.506 68.699 C -7.461 72.239 -7.601 75.782 -7.655 79.324 C -7.717 79.324 -7.779 79.323 -7.841 79.323 C -7.855 78.304 -7.868 77.285 -7.882 76.266 C -8.303 45.119 -8.723 13.971 -9.145 -17.176 C -9.157 -18.048 -9.088 -19.007 -9.252 -19.756 C -9.348 -20.193 -9.833 -20.293 -10.143 -20.545 C -10.079 -14.957 -10.024 -9.37 -9.949 -3.783 C -9.566 24.85 -9.179 53.484 -8.793 82.117 C -8.514 102.895 -8.241 123.673 -7.943 144.45 C -7.919 146.17 -7.73 147.886 -7.617 149.603 C -7.437 149.597 -7.257 149.591 -7.077 149.584 C -7.032 148.474 -6.935 147.363 -6.95 146.254 C -7.213 125.912 -7.491 105.571 -7.757 85.23 C -7.77 84.213 -7.705 83.194 -7.676 82.177 C -7.554 82.196 -7.431 82.215 -7.309 82.235 C -7.298 83.086 -7.286 83.938 -7.275 84.789 C -7 105.218 -6.715 125.646 -6.467 146.075 C -6.447 147.728 -6.024 150.437 -7.366 150.389 C -8.562 150.347 -8.24 147.755 -8.262 146.148 C -9.013 91.672 -9.745 37.196 -10.47 -17.28 C -10.486 -18.481 -10.381 -19.684 -10.332 -20.885 M -5.26 149.344 C -4.05 149.959 -3.838 149.537 -3.879 146.43 C -4.214 121.303 -4.554 96.176 -4.892 71.05 C -5.284 41.907 -5.675 12.765 -6.068 -16.377 C -6.079 -17.25 -6.084 -18.124 -6.119 -18.993 C -6.178 -20.454 -6.535 -21.261 -7.306 -21.075 C -7.403 -19.384 -7.602 -17.691 -7.58 -16.002 C -7.184 14.886 -6.76 45.773 -6.343 76.66 C -6.33 77.644 -6.316 78.627 -6.303 79.611 C -6.422 79.619 -6.54 79.626 -6.658 79.634 C -6.704 78.922 -6.777 78.212 -6.791 77.499 C -6.859 74.01 -6.921 70.521 -6.968 67.031 C -7.348 38.936 -7.735 10.841 -8.073 -17.255 C -8.09 -18.659 -7.682 -20.068 -7.471 -21.473 C -6.136 -22.044 -5.785 -21.377 -5.74 -18.044 C -5.272 16.401 -4.808 50.846 -4.343 85.292 C -4.08 104.827 -3.818 124.363 -3.554 143.898 C -3.536 145.206 -3.468 146.518 -3.492 147.821 C -3.539 150.458 -4.295 151.158 -5.456 149.697 C -5.606 148.459 -5.873 147.223 -5.891 145.981 C -6.191 125.5 -6.461 105.017 -6.733 84.535 C -6.744 83.736 -6.717 82.936 -6.708 82.136 C -6.564 82.134 -6.419 82.131 -6.274 82.128 C -6.261 83.098 -6.248 84.067 -6.235 85.037 C -5.965 105.083 -5.698 125.13 -5.421 145.177 C -5.402 146.566 -5.315 147.955 -5.26 149.344 M 3.785 154.011 C 3.686 153.068 3.587 152.125 3.488 151.18 C 1.621 150.684 1.878 147.812 1.844 145.287 C 1.567 124.948 1.293 104.608 1.025 84.269 C 1.013 83.338 1.07 82.406 1.095 81.474 C 1.237 81.495 1.378 81.517 1.52 81.538 C 1.822 104.008 2.125 126.477 2.427 148.947 C 2.531 148.943 2.636 148.94 2.74 148.936 C 1.98 92.485 1.22 36.034 0.46 -20.416 C 0.303 -20.42 0.147 -20.423 -0.01 -20.426 C 0.056 -15.489 0.122 -10.553 0.189 -5.616 C 0.068 -5.629 -0.053 -5.643 -0.174 -5.656 C -0.238 -10.358 -0.337 -15.062 -0.332 -19.761 C -0.331 -20.648 0.09 -21.518 0.303 -22.342 C -0.255 -22.333 -0.945 -22.322 -1.635 -22.31 C -4.7 -22.257 -7.765 -22.225 -10.828 -22.112 C -11.07 -22.103 -11.301 -21.536 -11.536 -21.229 L -11.543 -21.218 C -10.404 -21.958 -10.742 -20.057 -10.724 -19.165 C -10.605 -13.236 -10.535 -7.305 -10.461 -1.374 C -10.13 24.789 -9.821 50.954 -9.47 77.117 C -9.157 100.489 -8.799 123.861 -8.46 147.232 C -8.437 148.808 -8.228 150.567 -9.496 150.813 C -9.452 151.018 -9.409 151.223 -9.365 151.429 C -6.606 151.383 -3.847 151.338 -1.087 151.292 C -1.093 151.381 -1.099 151.469 -1.104 151.558 C -4.103 151.608 -7.103 151.657 -10.102 151.707 C -10.148 151.792 -10.193 151.88 -10.236 151.97 C -10.271 154.058 -9.616 153.987 -8.856 153.98 C -4.643 153.943 -0.429 153.992 3.785 154.011" style="fill: rgb(190, 179, 162); fill-opacity: 1;"/>
      </g>
    </g>
    <g style="clip-path: url(&quot;#clippath7&quot;);">
      <g transform="translate(227.6323 244.0366)">
        <path d="M 0 0 C 0.107 7.938 0.214 15.876 0.32 23.814 C 0.58 43.107 0.843 62.4 1.093 81.693 C 1.111 83.115 1.329 84.989 0.307 85.155 C 0.106 85.187 -0.404 83.051 -0.426 81.901 C -0.628 71.443 -0.75 60.982 -0.901 50.522 C -1.117 35.554 -1.345 20.585 -1.555 5.617 C -1.726 -6.587 -1.871 -18.791 -2.042 -30.994 C -2.28 -47.902 -2.549 -64.808 -2.745 -81.716 C -2.759 -82.965 -2.323 -85.259 -2.043 -85.283 C -1.015 -85.37 -1.177 -83.391 -1.106 -81.971 C -1.08 -81.45 -1.089 -80.924 -1.082 -80.4 C -0.721 -53.6 -0.361 -26.8 0 0 M 0.338 0.013 C -0.028 -27.221 -0.392 -54.456 -0.768 -81.69 C -0.795 -83.618 -0.563 -86.276 -2.049 -86.182 C -3.388 -86.098 -3.171 -83.609 -3.146 -81.719 C -2.759 -52.562 -2.365 -23.405 -1.973 5.752 C -1.635 30.888 -1.298 56.024 -0.955 81.161 C -0.941 82.205 -1.014 83.377 -0.801 84.253 C -0.607 85.048 -0.037 86.08 0.292 85.994 C 0.713 85.883 1.115 84.84 1.412 84.027 C 1.556 83.629 1.453 82.843 1.445 82.233 C 1.135 60.323 0.823 38.413 0.512 16.503 C 0.435 11.007 0.364 5.51 0.29 0.014 C 0.306 0.014 0.322 0.013 0.338 0.013" style="fill: rgb(236, 229, 216); fill-opacity: 1;"/>
      </g>
    </g>
    <g style="clip-path: url(&quot;#clippath7&quot;);">
      <g transform="translate(228.0803 158.5612)">
        <path d="M 0 0 C 0.174 0.012 0.347 0.024 0.521 0.037 C 0.606 0.892 0.75 1.745 0.767 2.603 C 0.892 8.971 1.013 15.34 1.096 21.709 C 1.372 43.09 1.622 64.47 1.901 85.85 C 2.255 112.991 2.631 140.131 2.985 167.272 C 3 168.417 2.894 169.565 2.844 170.711 C 2.641 170.701 2.438 170.691 2.235 170.681 C 2.164 169.477 2.046 168.274 2.03 167.069 C 1.609 136.44 1.198 105.811 0.786 75.182 C 0.464 51.272 0.14 27.362 -0.169 3.452 C -0.184 2.303 -0.059 1.151 0 0 M 2.173 85.394 C 1.885 63.929 1.59 42.464 1.31 20.999 C 1.228 14.718 1.19 8.436 1.119 2.154 C 1.105 0.858 1.148 -0.848 0.225 -0.624 C -0.084 -0.549 -0.508 1.159 -0.495 2.115 C -0.097 33.001 0.364 63.886 0.781 94.772 C 1.104 118.68 1.381 142.588 1.68 166.496 C 1.693 167.543 1.613 168.659 1.775 169.613 C 1.899 170.351 2.333 170.885 2.63 171.51 C 2.873 170.902 3.226 170.365 3.331 169.667 C 3.451 168.877 3.356 167.941 3.345 167.069 C 2.979 139.844 2.613 112.618 2.246 85.393 C 2.222 85.393 2.198 85.394 2.173 85.394" style="fill: rgb(236, 229, 216); fill-opacity: 1;"/>
      </g>
    </g>
    <g style="clip-path: url(&quot;#clippath7&quot;);">
      <g transform="translate(219.4422 158.7713)">
        <path d="M 0 0 C -0.048 1.202 -0.153 2.405 -0.137 3.606 C 0.587 58.082 1.32 112.559 2.07 167.034 C 2.092 168.641 1.771 171.233 2.967 171.276 C 4.309 171.323 3.885 168.614 3.865 166.962 C 3.617 146.533 3.333 126.104 3.058 105.675 C 3.046 104.824 3.035 103.972 3.024 103.121 C 2.901 103.102 2.779 103.082 2.657 103.063 C 2.628 104.081 2.562 105.099 2.576 106.116 C 2.842 126.457 3.12 146.799 3.383 167.14 C 3.397 168.249 3.3 169.36 3.255 170.471 C 3.075 170.477 2.895 170.483 2.716 170.49 C 2.603 168.772 2.414 167.056 2.389 165.337 C 2.092 144.559 1.819 123.781 1.539 103.003 C 1.154 74.37 0.766 45.737 0.384 17.103 C 0.309 11.516 0.254 5.929 0.19 0.342 C 0.126 0.228 0.063 0.114 0 0" style="fill: rgb(236, 229, 216); fill-opacity: 1;"/>
      </g>
    </g>
    <g style="clip-path: url(&quot;#clippath7&quot;);">
      <g transform="translate(222.3041 158.2495)">
        <path d="M 0 0 C -0.209 1.533 -0.615 3.067 -0.596 4.598 C -0.224 35.217 0.196 65.835 0.611 96.454 C 0.662 100.257 0.728 104.06 0.8 107.862 C 0.815 108.639 0.889 109.414 0.936 110.189 C 1.054 110.181 1.172 110.173 1.291 110.164 C 1.276 109.093 1.262 108.021 1.247 106.949 C 0.793 73.288 0.332 39.626 -0.102 5.964 C -0.126 4.123 0.072 2.278 0.166 0.435 C 0.111 0.289 0.055 0.144 0 0" style="fill: rgb(236, 229, 216); fill-opacity: 1;"/>
      </g>
    </g>
    <g style="clip-path: url(&quot;#clippath7&quot;);">
      <g transform="translate(219.6337 159.2592)">
        <path d="M 0 0 C 0.31 0.274 0.796 0.384 0.892 0.86 C 1.057 1.677 0.989 2.722 1.002 3.672 C 1.462 37.617 1.92 71.563 2.378 105.508 C 2.393 106.618 2.408 107.729 2.423 108.839 C 2.485 108.839 2.547 108.84 2.609 108.84 C 2.659 104.981 2.794 101.12 2.745 97.261 C 2.346 65.883 1.913 34.505 1.488 3.127 C 1.476 2.274 1.508 1.362 1.381 0.582 C 1.074 -1.299 0.589 -2.267 -0.19 -0.372 C -0.127 -0.249 -0.063 -0.124 0 0" style="fill: rgb(236, 229, 216); fill-opacity: 1;"/>
      </g>
    </g>
    <g style="clip-path: url(&quot;#clippath7&quot;);">
      <g transform="translate(224.3188 329.3559)">
        <path d="M 0 0 C 1.161 1.459 1.917 0.76 1.964 -1.878 C 1.988 -3.18 1.92 -4.492 1.902 -5.8 C 1.638 -25.335 1.376 -44.871 1.113 -64.407 C 0.648 -98.852 0.184 -133.297 -0.284 -167.743 C -0.329 -171.076 -0.68 -171.742 -2.015 -171.172 C -1.96 -171.04 -1.905 -170.908 -1.85 -170.774 C -1.079 -170.959 -0.722 -170.152 -0.663 -168.692 C -0.628 -167.822 -0.623 -166.948 -0.612 -166.076 C -0.219 -136.933 0.173 -107.791 0.565 -78.649 C 0.902 -53.522 1.242 -28.395 1.577 -3.269 C 1.618 -0.162 1.406 0.261 0.196 -0.354 C 0.131 -0.236 0.065 -0.118 0 0" style="fill: rgb(236, 229, 216); fill-opacity: 1;"/>
      </g>
    </g>
    <g style="clip-path: url(&quot;#clippath7&quot;);">
      <g transform="translate(218.2385 158.429)">
        <path d="M 0 0 C 0.765 56.831 1.53 113.661 2.295 170.492 C 2.451 170.493 2.608 170.494 2.764 170.495 C 2.751 169.516 2.738 168.537 2.725 167.558 C 2.519 152.279 2.314 136.999 2.108 121.72 C 1.579 82.433 1.055 43.147 0.502 3.861 C 0.484 2.574 0.17 1.294 -0.006 0.011 C -0.006 0.011 0 0 0 0" style="fill: rgb(236, 229, 216); fill-opacity: 1;"/>
      </g>
    </g>
    <g style="clip-path: url(&quot;#clippath7&quot;);">
      <g transform="translate(227.6322 244.0366)">
        <path d="M 0 0 C -0.361 -26.8 -0.721 -53.6 -1.082 -80.4 C -1.089 -80.924 -1.08 -81.45 -1.106 -81.971 C -1.177 -83.391 -1.015 -85.37 -2.043 -85.283 C -2.323 -85.259 -2.759 -82.965 -2.745 -81.716 C -2.549 -64.808 -2.28 -47.902 -2.042 -30.994 C -1.871 -18.791 -1.726 -6.587 -1.555 5.617 C -1.345 20.585 -1.117 35.554 -0.901 50.522 C -0.75 60.982 -0.628 71.443 -0.426 81.901 C -0.404 83.051 0.106 85.187 0.307 85.155 C 1.329 84.989 1.111 83.115 1.093 81.693 C 0.843 62.4 0.58 43.107 0.321 23.814 C 0.214 15.876 0.107 7.938 0 0" style="fill: rgb(236, 229, 216); fill-opacity: 1;"/>
      </g>
    </g>
    <g style="clip-path: url(&quot;#clippath7&quot;);">
      <g transform="translate(228.0803 158.5612)">
        <path d="M 0 0 C -0.059 1.151 -0.184 2.303 -0.169 3.452 C 0.14 27.362 0.464 51.272 0.786 75.182 C 1.198 105.811 1.609 136.44 2.03 167.069 C 2.046 168.274 2.164 169.477 2.235 170.681 C 2.438 170.691 2.641 170.701 2.844 170.711 C 2.894 169.565 3 168.417 2.985 167.272 C 2.631 140.131 2.255 112.991 1.901 85.85 C 1.622 64.47 1.372 43.09 1.096 21.709 C 1.013 15.34 0.892 8.971 0.767 2.603 C 0.75 1.745 0.606 0.892 0.521 0.037 C 0.347 0.024 0.174 0.012 0 0" style="fill: rgb(236, 229, 216); fill-opacity: 1;"/>
      </g>
    </g>
    <g style="clip-path: url(&quot;#clippath7&quot;);">
      <g transform="translate(195.4229 115.2684)">
        <path d="M 0 0 C 0.096 -0.019 0.192 -0.039 0.288 -0.058 C 0.058 32.522 -0.171 65.103 -0.401 97.683 C -0.497 97.68 -0.593 97.677 -0.689 97.674 C -0.459 65.116 -0.23 32.558 0 0 M -1.147 87.762 C -1.113 87.763 -1.08 87.763 -1.047 87.763 C -1.309 124.93 -1.571 162.096 -1.835 199.263 C -1.843 200.454 -1.74 201.734 -1.926 202.808 C -2.09 203.757 -2.586 204.477 -2.935 205.298 C -3.322 204.436 -3.9 203.692 -4.049 202.681 C -4.242 201.373 -4.102 199.852 -4.091 198.423 C -3.829 165.786 -3.538 133.15 -3.31 100.512 C -3.014 58.349 -2.779 16.185 -2.457 -25.979 C -2.447 -27.284 -1.821 -29.601 -1.398 -29.692 C -0.132 -29.966 -0.238 -27.639 -0.255 -25.87 C -0.334 -17.295 -0.458 -8.721 -0.522 -0.146 C -0.74 29.157 -0.94 58.46 -1.147 87.762 M -4.265 87.812 C -4.287 87.812 -4.309 87.812 -4.331 87.812 C -4.384 95.316 -4.441 102.819 -4.489 110.322 C -4.679 140.233 -4.866 170.144 -5.057 200.055 C -5.062 200.888 -4.944 201.964 -5.152 202.501 C -5.579 203.601 -6.158 205.011 -6.735 205.147 C -7.187 205.254 -7.936 203.826 -8.178 202.734 C -8.444 201.532 -8.312 199.934 -8.302 198.509 C -8.066 164.194 -7.822 129.879 -7.58 95.564 C -7.299 55.761 -7.019 15.958 -6.732 -23.845 C -6.713 -26.426 -6.939 -29.83 -5.11 -29.899 C -3.08 -29.976 -3.47 -26.357 -3.487 -23.724 C -3.737 13.455 -4.003 50.633 -4.265 87.812 M -13.515 -28.858 C -12.402 -31.205 -11.766 -29.977 -11.398 -27.613 C -11.246 -26.631 -11.315 -25.49 -11.322 -24.422 C -11.595 14.884 -11.858 54.189 -12.167 93.494 C -12.205 98.327 -12.494 103.157 -12.667 107.989 L -12.921 107.981 C -12.911 106.59 -12.901 105.199 -12.892 103.808 C -12.594 61.287 -12.295 18.766 -12 -23.755 C -11.991 -24.945 -11.87 -26.252 -12.073 -27.28 C -12.191 -27.879 -12.851 -28.032 -13.267 -28.386 C -13.336 -20.759 -13.417 -13.132 -13.471 -5.505 C -13.751 33.583 -14.024 72.672 -14.299 111.761 C -14.499 140.126 -14.708 168.49 -14.884 196.855 C -14.899 199.203 -14.689 201.551 -14.583 203.899 C -14.338 203.896 -14.092 203.894 -13.846 203.891 C -13.754 202.378 -13.59 200.865 -13.579 199.351 C -13.368 171.582 -13.178 143.813 -12.972 116.044 C -12.962 114.656 -12.844 113.269 -12.776 111.881 C -12.609 111.911 -12.443 111.942 -12.277 111.972 C -12.285 113.135 -12.293 114.297 -12.302 115.46 C -12.498 143.348 -12.682 171.236 -12.915 199.124 C -12.934 201.38 -12.433 205.091 -14.263 204.98 C -15.894 204.881 -15.382 201.355 -15.367 199.161 C -14.866 124.793 -14.341 50.425 -13.804 -23.943 C -13.793 -25.582 -13.616 -27.22 -13.515 -28.858 M -11.359 203.626 C -9.725 204.508 -9.424 203.938 -9.393 199.696 C -9.147 165.395 -8.907 131.093 -8.665 96.792 C -8.384 57.008 -8.102 17.225 -7.822 -22.559 C -7.814 -23.75 -7.796 -24.943 -7.819 -26.131 C -7.858 -28.126 -8.323 -29.239 -9.381 -29.013 C -9.56 -26.708 -9.879 -24.405 -9.897 -22.098 C -10.22 20.067 -10.507 62.233 -10.802 104.399 C -10.812 105.741 -10.821 107.084 -10.831 108.427 C -10.992 108.433 -11.154 108.439 -11.316 108.446 C -11.359 107.473 -11.439 106.501 -11.438 105.528 C -11.433 100.764 -11.419 96 -11.386 91.236 C -11.118 52.882 -10.859 14.528 -10.534 -23.826 C -10.518 -25.742 -9.922 -27.651 -9.595 -29.561 C -7.757 -30.295 -7.297 -29.372 -7.328 -24.823 C -7.653 22.2 -7.985 69.223 -8.315 116.247 C -8.503 142.915 -8.692 169.584 -8.879 196.253 C -8.891 198.039 -8.835 199.831 -8.903 201.608 C -9.042 205.206 -10.093 206.134 -11.636 204.102 C -11.807 202.406 -12.136 200.71 -12.126 199.016 C -11.963 171.054 -11.757 143.093 -11.556 115.131 C -11.548 114.04 -11.489 112.95 -11.454 111.859 L -10.861 111.863 C -10.871 113.187 -10.88 114.51 -10.889 115.834 C -11.082 143.2 -11.278 170.567 -11.462 197.933 C -11.475 199.831 -11.396 201.728 -11.359 203.626 M 0.854 210.306 C 0.745 209.016 0.636 207.726 0.527 206.433 C -2.006 205.692 -1.575 201.781 -1.551 198.335 C -1.359 170.568 -1.164 142.802 -0.96 115.035 C -0.951 113.764 -0.846 112.495 -0.786 111.224 C -0.594 111.258 -0.401 111.292 -0.208 111.326 C -0.425 142 -0.641 172.675 -0.857 203.349 C -0.715 203.348 -0.573 203.346 -0.431 203.345 C 0.113 126.281 0.656 49.218 1.2 -27.846 C 0.986 -27.856 0.772 -27.865 0.558 -27.875 C 0.51 -21.136 0.463 -14.397 0.415 -7.658 C 0.25 -7.68 0.085 -7.702 -0.079 -7.725 C -0.034 -14.144 -0.039 -20.566 0.1 -26.979 C 0.127 -28.19 0.725 -29.362 1.039 -30.479 C 0.277 -30.486 -0.665 -30.495 -1.607 -30.502 C -5.791 -30.536 -9.974 -30.597 -14.158 -30.549 C -14.488 -30.545 -14.819 -29.779 -15.149 -29.368 L -15.158 -29.353 C -13.583 -30.325 -14.097 -27.741 -14.098 -26.524 C -14.101 -18.428 -14.173 -10.332 -14.237 -2.236 C -14.519 33.481 -14.829 69.197 -15.083 104.914 C -15.31 136.821 -15.476 168.728 -15.667 200.634 C -15.68 202.786 -15.443 205.193 -17.181 205.484 C -17.128 205.766 -17.074 206.048 -17.02 206.33 C -13.253 206.363 -9.486 206.395 -5.719 206.428 C -5.729 206.549 -5.74 206.67 -5.75 206.791 C -9.844 206.755 -13.939 206.72 -18.033 206.684 C -18.098 206.799 -18.162 206.917 -18.224 207.039 C -18.33 209.887 -17.434 209.813 -16.397 209.83 C -10.646 209.923 -4.896 210.135 0.854 210.306" style="fill: rgb(190, 179, 162); fill-opacity: 1;"/>
      </g>
    </g>
    <g style="clip-path: url(&quot;#clippath7&quot;);">
      <g transform="translate(190.6965 203.0514)">
        <path d="M 0 0 C -0.076 10.836 -0.153 21.673 -0.229 32.509 C -0.415 58.847 -0.597 85.185 -0.796 111.523 C -0.81 113.464 -0.565 116.029 -1.965 116.22 C -2.24 116.257 -2.877 113.324 -2.875 111.754 C -2.857 97.475 -2.731 83.195 -2.644 68.916 C -2.52 48.481 -2.411 28.046 -2.279 7.611 C -2.171 -9.048 -2.027 -25.708 -1.92 -42.368 C -1.771 -65.449 -1.664 -88.531 -1.458 -111.611 C -1.443 -113.316 -0.783 -116.432 -0.4 -116.455 C 1.005 -116.538 0.728 -113.843 0.786 -111.902 C 0.807 -111.191 0.779 -110.473 0.774 -109.758 C 0.516 -73.172 0.258 -36.586 0 0 M 0.461 0.029 C 0.723 -37.15 0.99 -74.328 1.239 -111.507 C 1.257 -114.14 1.647 -117.759 -0.384 -117.682 C -2.213 -117.613 -1.987 -114.209 -2.005 -111.628 C -2.293 -71.825 -2.573 -32.022 -2.854 7.781 C -3.096 42.096 -3.339 76.411 -3.576 110.726 C -3.585 112.151 -3.718 113.749 -3.452 114.951 C -3.21 116.043 -2.461 117.471 -2.009 117.364 C -1.432 117.228 -0.853 115.818 -0.426 114.718 C -0.217 114.181 -0.336 113.105 -0.331 112.272 C -0.14 82.361 0.047 52.45 0.237 22.539 C 0.285 15.036 0.342 7.533 0.395 0.029 C 0.417 0.029 0.439 0.029 0.461 0.029" style="fill: rgb(236, 229, 216); fill-opacity: 1;"/>
      </g>
    </g>
    <g style="clip-path: url(&quot;#clippath7&quot;);">
      <g transform="translate(193.7009 86.4199)">
        <path d="M 0 0 C 0.237 0.023 0.473 0.045 0.71 0.068 C 0.802 1.238 0.975 2.407 0.974 3.578 C 0.966 12.273 0.953 20.969 0.888 29.664 C 0.666 58.851 0.408 88.037 0.191 117.223 C -0.086 154.274 -0.333 191.325 -0.609 228.376 C -0.621 229.94 -0.798 231.502 -0.898 233.064 C -1.175 233.044 -1.452 233.023 -1.728 233.002 C -1.791 231.357 -1.918 229.711 -1.907 228.066 C -1.624 186.253 -1.327 144.439 -1.032 102.626 C -0.802 69.986 -0.575 37.346 -0.327 4.706 C -0.315 3.136 -0.113 1.568 0 0 M 0.575 116.611 C 0.782 87.308 0.982 58.005 1.2 28.702 C 1.264 20.128 1.388 11.553 1.467 2.979 C 1.484 1.209 1.59 -1.118 0.324 -0.844 C -0.099 -0.752 -0.725 1.564 -0.735 2.87 C -1.057 45.033 -1.292 87.197 -1.588 129.361 C -1.816 161.998 -2.107 194.635 -2.369 227.272 C -2.38 228.701 -2.52 230.222 -2.327 231.53 C -2.178 232.54 -1.6 233.284 -1.213 234.147 C -0.864 233.326 -0.368 232.606 -0.204 231.657 C -0.018 230.582 -0.121 229.302 -0.113 228.111 C 0.151 190.945 0.413 153.778 0.675 116.612 C 0.642 116.611 0.608 116.611 0.575 116.611" style="fill: rgb(236, 229, 216); fill-opacity: 1;"/>
      </g>
    </g>
    <g style="clip-path: url(&quot;#clippath7&quot;);">
      <g transform="translate(181.9067 86.4091)">
        <path d="M 0 0 C -0.1 1.639 -0.276 3.277 -0.288 4.916 C -0.824 79.284 -1.35 153.652 -1.851 228.021 C -1.866 230.214 -2.377 233.74 -0.747 233.839 C 1.084 233.951 0.582 230.239 0.601 227.983 C 0.834 200.095 1.018 172.207 1.215 144.319 C 1.223 143.156 1.231 141.994 1.239 140.832 C 1.073 140.801 0.907 140.771 0.741 140.74 C 0.673 142.128 0.554 143.515 0.544 144.903 C 0.338 172.672 0.148 200.441 -0.063 228.21 C -0.074 229.724 -0.237 231.237 -0.33 232.751 C -0.576 232.753 -0.821 232.756 -1.067 232.758 C -1.173 230.41 -1.383 228.062 -1.368 225.715 C -1.192 197.35 -0.983 168.985 -0.783 140.62 C -0.507 101.531 -0.235 62.443 0.045 23.354 C 0.1 15.727 0.18 8.1 0.249 0.473 C 0.166 0.315 0.083 0.158 0 0" style="fill: rgb(236, 229, 216); fill-opacity: 1;"/>
      </g>
    </g>
    <g style="clip-path: url(&quot;#clippath7&quot;);">
      <g transform="translate(185.8269 85.7957)">
        <path d="M 0 0 C -0.327 2.084 -0.925 4.165 -0.943 6.254 C -1.291 48.052 -1.575 89.851 -1.867 131.65 C -1.903 136.842 -1.92 142.034 -1.928 147.225 C -1.929 148.286 -1.85 149.346 -1.808 150.406 C -1.646 150.398 -1.484 150.391 -1.323 150.384 C -1.312 148.921 -1.302 147.458 -1.292 145.995 C -0.97 100.042 -0.656 54.089 -0.306 8.136 C -0.287 5.622 0.034 3.112 0.214 0.599 C 0.143 0.398 0.071 0.199 0 0" style="fill: rgb(236, 229, 216); fill-opacity: 1;"/>
      </g>
    </g>
    <g style="clip-path: url(&quot;#clippath7&quot;);">
      <g transform="translate(182.1544 87.0816)">
        <path d="M 0 0 C 0.416 0.385 1.075 0.551 1.194 1.205 C 1.396 2.325 1.274 3.749 1.265 5.046 C 0.942 51.386 0.617 97.726 0.292 144.067 C 0.281 145.582 0.27 147.098 0.26 148.614 C 0.344 148.617 0.429 148.62 0.513 148.623 C 0.689 143.357 0.982 138.093 1.023 132.825 C 1.357 89.99 1.645 47.154 1.942 4.319 C 1.951 3.155 2.02 1.911 1.868 0.841 C 1.502 -1.735 0.867 -3.073 -0.248 -0.515 C -0.166 -0.344 -0.083 -0.172 0 0" style="fill: rgb(236, 229, 216); fill-opacity: 1;"/>
      </g>
    </g>
    <g style="clip-path: url(&quot;#clippath7&quot;);">
      <g transform="translate(183.786 319.3712)">
        <path d="M 0 0 C 1.544 2.032 2.595 1.104 2.733 -2.495 C 2.802 -4.271 2.746 -6.064 2.758 -7.85 C 2.945 -34.518 3.134 -61.187 3.322 -87.856 C 3.652 -134.879 3.983 -181.902 4.309 -228.925 C 4.34 -233.475 3.88 -234.398 2.042 -233.665 C 2.113 -233.484 2.184 -233.301 2.256 -233.116 C 3.313 -233.342 3.778 -232.228 3.818 -230.234 C 3.841 -229.045 3.823 -227.852 3.815 -226.662 C 3.535 -186.878 3.253 -147.095 2.972 -107.311 C 2.73 -73.009 2.49 -38.708 2.243 -4.406 C 2.213 -0.165 1.911 0.405 0.278 -0.477 C 0.185 -0.318 0.093 -0.159 0 0" style="fill: rgb(236, 229, 216); fill-opacity: 1;"/>
      </g>
    </g>
    <g style="clip-path: url(&quot;#clippath7&quot;);">
      <g transform="translate(195.4035 118.0067)">
        <path d="M 0 0 C -0.25 35.482 -0.501 70.965 -0.751 106.447 C -0.655 106.45 -0.559 106.454 -0.463 106.457 C -0.213 70.95 0.038 35.443 0.288 -0.064 C 0.192 -0.043 0.096 -0.021 0 0" style="fill: rgb(236, 229, 216); fill-opacity: 1;"/>
      </g>
    </g>
    <g style="clip-path: url(&quot;#clippath7&quot;);">
      <g transform="translate(180.2736 85.9006)">
        <path d="M 0 0 C -0.547 77.582 -1.094 155.164 -1.642 232.747 C -1.428 232.754 -1.215 232.76 -1.001 232.767 C -0.992 231.431 -0.982 230.094 -0.973 228.758 C -0.825 207.899 -0.678 187.04 -0.531 166.182 C -0.152 112.55 0.232 58.918 0.577 5.286 C 0.588 3.53 0.196 1.772 -0.009 0.014 C -0.009 0.014 0 0 0 0" style="fill: rgb(236, 229, 216); fill-opacity: 1;"/>
      </g>
    </g>
    <g style="clip-path: url(&quot;#clippath7&quot;);">
      <g transform="translate(190.6965 203.0514)">
        <path d="M 0 0 C 0.258 -36.586 0.516 -73.172 0.774 -109.758 C 0.779 -110.473 0.807 -111.191 0.786 -111.902 C 0.728 -113.843 1.005 -116.538 -0.4 -116.455 C -0.783 -116.432 -1.443 -113.316 -1.458 -111.611 C -1.664 -88.531 -1.771 -65.449 -1.92 -42.368 C -2.027 -25.708 -2.171 -9.048 -2.279 7.611 C -2.411 28.046 -2.52 48.481 -2.644 68.916 C -2.731 83.195 -2.857 97.475 -2.875 111.754 C -2.877 113.324 -2.24 116.257 -1.965 116.22 C -0.565 116.029 -0.81 113.464 -0.796 111.523 C -0.597 85.185 -0.415 58.847 -0.229 32.509 C -0.153 21.673 -0.076 10.836 0 0" style="fill: rgb(236, 229, 216); fill-opacity: 1;"/>
      </g>
    </g>
    <g style="clip-path: url(&quot;#clippath7&quot;);">
      <g transform="translate(193.7009 86.4199)">
        <path d="M 0 0 C -0.113 1.568 -0.315 3.136 -0.327 4.706 C -0.575 37.346 -0.802 69.986 -1.032 102.626 C -1.327 144.439 -1.624 186.253 -1.907 228.066 C -1.918 229.711 -1.791 231.357 -1.728 233.002 C -1.452 233.023 -1.175 233.044 -0.898 233.064 C -0.798 231.502 -0.621 229.94 -0.609 228.376 C -0.333 191.325 -0.086 154.274 0.191 117.223 C 0.408 88.037 0.666 58.851 0.888 29.664 C 0.953 20.969 0.966 12.273 0.974 3.578 C 0.975 2.407 0.802 1.238 0.71 0.068 C 0.473 0.045 0.237 0.023 0 0" style="fill: rgb(236, 229, 216); fill-opacity: 1;"/>
      </g>
    </g>
    <g style="clip-path: url(&quot;#clippath7&quot;);">
      <g transform="translate(160.1985 113.6434)">
        <path d="M 0 0 C 0.096 -0.018 0.193 -0.035 0.289 -0.053 C -0.437 32.519 -1.163 65.09 -1.889 97.662 C -1.985 97.657 -2.081 97.652 -2.177 97.647 C -1.451 65.098 -0.726 32.549 0 0 M -2.483 87.728 C -2.45 87.729 -2.417 87.73 -2.384 87.731 C -3.212 124.888 -4.041 162.044 -4.87 199.2 C -4.897 200.391 -4.813 201.672 -5.015 202.743 C -5.193 203.689 -5.7 204.4 -6.062 205.214 C -6.436 204.344 -7.002 203.59 -7.136 202.576 C -7.309 201.265 -7.146 199.747 -7.113 198.318 C -6.354 165.691 -5.566 133.064 -4.84 100.436 C -3.903 58.284 -3.025 16.13 -2.061 -26.021 C -2.031 -27.326 -1.37 -29.631 -0.945 -29.714 C 0.324 -29.964 0.183 -27.64 0.14 -25.871 C -0.071 -17.299 -0.325 -8.728 -0.52 -0.156 C -1.184 29.139 -1.83 58.434 -2.483 87.728 M -5.602 87.72 C -5.624 87.719 -5.646 87.719 -5.668 87.718 C -5.835 95.22 -6.007 102.721 -6.169 110.222 C -6.815 140.126 -7.458 170.029 -8.104 199.932 C -8.122 200.764 -8.02 201.843 -8.237 202.376 C -8.68 203.467 -9.28 204.866 -9.859 204.992 C -10.313 205.09 -11.04 203.648 -11.265 202.552 C -11.513 201.345 -11.357 199.75 -11.325 198.325 C -10.566 164.019 -9.8 129.714 -9.035 95.409 C -8.147 55.616 -7.262 15.824 -6.368 -23.968 C -6.31 -26.548 -6.484 -29.956 -4.654 -29.99 C -2.623 -30.029 -3.068 -26.418 -3.126 -23.786 C -3.941 13.383 -4.774 50.551 -5.602 87.72 M -13.074 -29.107 C -11.925 -31.433 -11.307 -30.193 -10.976 -27.822 C -10.838 -26.838 -10.925 -25.699 -10.948 -24.63 C -11.82 14.664 -12.681 53.959 -13.59 93.253 C -13.701 98.084 -14.064 102.908 -14.311 107.736 C -14.395 107.732 -14.48 107.728 -14.564 107.723 C -14.533 106.333 -14.502 104.942 -14.471 103.552 C -13.526 61.042 -12.579 18.533 -11.636 -23.977 C -11.61 -25.166 -11.468 -26.471 -11.656 -27.502 C -11.765 -28.104 -12.422 -28.269 -12.833 -28.631 C -13.018 -21.006 -13.215 -13.382 -13.385 -5.757 C -14.261 33.321 -15.129 72.399 -16 111.477 C -16.632 139.834 -17.273 168.191 -17.881 196.548 C -17.931 198.895 -17.757 201.247 -17.687 203.597 C -17.442 203.599 -17.196 203.601 -16.95 203.603 C -16.835 202.091 -16.648 200.582 -16.614 199.068 C -15.98 171.307 -15.367 143.545 -14.738 115.785 C -14.707 114.397 -14.567 113.012 -14.478 111.626 C -14.313 111.659 -14.147 111.693 -13.981 111.726 C -14.007 112.888 -14.033 114.051 -14.059 115.213 C -14.68 143.093 -15.289 170.974 -15.947 198.853 C -16 201.109 -15.555 204.829 -17.383 204.683 C -19.013 204.554 -18.447 201.038 -18.399 198.845 C -16.765 124.497 -15.107 50.149 -13.438 -24.198 C -13.401 -25.837 -13.199 -27.472 -13.074 -29.107 M -14.46 203.384 C -12.84 204.296 -12.529 203.732 -12.434 199.492 C -11.665 165.2 -10.903 130.908 -10.138 96.616 C -9.251 56.843 -8.363 17.07 -7.477 -22.702 C -7.451 -23.893 -7.415 -25.085 -7.42 -26.274 C -7.429 -28.269 -7.877 -29.391 -8.937 -29.185 C -9.151 -26.883 -9.506 -24.586 -9.559 -22.28 C -10.524 19.873 -11.454 62.027 -12.391 104.181 C -12.421 105.524 -12.451 106.866 -12.481 108.208 C -12.643 108.212 -12.805 108.215 -12.967 108.218 C -12.994 107.245 -13.059 106.271 -13.044 105.298 C -12.966 100.535 -12.88 95.772 -12.774 91.01 C -11.922 52.666 -11.079 14.322 -10.17 -24.02 C -10.124 -25.936 -9.499 -27.833 -9.143 -29.737 C -7.294 -30.436 -6.848 -29.505 -6.949 -24.956 C -7.991 22.054 -9.038 69.064 -10.085 116.074 C -10.679 142.736 -11.274 169.397 -11.867 196.059 C -11.907 197.844 -11.878 199.637 -11.974 201.413 C -12.166 205.008 -13.232 205.916 -14.744 203.854 C -14.889 202.156 -15.192 200.454 -15.156 198.76 C -14.567 170.805 -13.935 142.852 -13.308 114.898 C -13.284 113.808 -13.208 112.718 -13.157 111.629 C -12.959 111.633 -12.762 111.638 -12.564 111.643 C -12.594 112.967 -12.623 114.29 -12.653 115.613 C -13.262 142.972 -13.875 170.331 -14.476 197.69 C -14.517 199.587 -14.467 201.486 -14.46 203.384 M -2.35 210.292 C -2.44 209 -2.529 207.708 -2.618 206.413 C -5.14 205.625 -4.649 201.723 -4.572 198.277 C -3.958 170.518 -3.34 142.759 -2.713 115.001 C -2.684 113.73 -2.56 112.463 -2.481 111.194 C -2.288 111.231 -2.096 111.269 -1.904 111.306 L -3.955 203.304 C -3.813 203.305 -3.671 203.307 -3.529 203.308 C -1.811 126.265 -0.094 49.223 1.624 -27.82 C 1.41 -27.833 1.196 -27.847 0.982 -27.861 C 0.832 -21.123 0.682 -14.386 0.532 -7.649 C 0.367 -7.674 0.203 -7.7 0.038 -7.725 C 0.181 -14.142 0.275 -20.564 0.511 -26.973 C 0.556 -28.184 1.173 -29.344 1.504 -30.456 C 0.742 -30.476 -0.2 -30.503 -1.142 -30.528 C -5.325 -30.64 -9.507 -30.78 -13.691 -30.81 C -14.02 -30.812 -14.363 -30.053 -14.7 -29.647 L -14.709 -29.633 C -13.119 -30.575 -13.673 -28.001 -13.692 -26.784 C -13.818 -18.69 -14.014 -10.596 -14.201 -2.502 C -15.027 33.204 -15.881 68.91 -16.679 104.617 C -17.392 136.514 -18.044 168.413 -18.721 200.312 C -18.767 202.463 -18.567 204.874 -20.309 205.133 C -20.26 205.416 -20.211 205.699 -20.161 205.982 C -16.395 206.085 -12.629 206.188 -8.863 206.292 C -8.875 206.412 -8.887 206.533 -8.899 206.653 C -12.993 206.541 -17.086 206.429 -21.18 206.317 C -21.246 206.43 -21.311 206.547 -21.375 206.668 C -21.525 209.513 -20.628 209.456 -19.591 209.492 C -13.843 209.694 -8.097 210.013 -2.35 210.292" style="fill: rgb(190, 179, 162); fill-opacity: 1;"/>
      </g>
    </g>
    <g style="clip-path: url(&quot;#clippath7&quot;);">
      <g transform="translate(154.1354 201.3253)">
        <path d="M 0 0 C -0.242 10.833 -0.483 21.667 -0.725 32.5 C -1.312 58.831 -1.895 85.162 -2.495 111.492 C -2.539 113.432 -2.333 116.002 -3.736 116.166 C -4.01 116.199 -4.603 113.254 -4.577 111.684 C -4.342 97.408 -3.998 83.132 -3.694 68.856 C -3.258 48.427 -2.838 27.997 -2.395 7.568 C -2.033 -9.088 -1.635 -25.742 -1.274 -42.398 C -0.773 -65.473 -0.315 -88.549 0.242 -111.622 C 0.284 -113.327 0.991 -116.43 1.374 -116.446 C 2.78 -116.503 2.462 -113.813 2.49 -111.871 C 2.501 -111.16 2.462 -110.442 2.446 -109.727 C 1.631 -73.152 0.815 -36.576 0 0 M 0.461 0.038 C 1.289 -37.131 2.122 -74.299 2.938 -111.468 C 2.995 -114.1 3.44 -117.711 1.409 -117.672 C -0.421 -117.638 -0.247 -114.23 -0.305 -111.65 C -1.199 -71.858 -2.084 -32.066 -2.972 7.727 C -3.737 42.032 -4.503 76.337 -5.262 110.643 C -5.294 112.068 -5.45 113.663 -5.202 114.87 C -4.977 115.966 -4.25 117.408 -3.796 117.31 C -3.217 117.184 -2.617 115.785 -2.174 114.694 C -1.957 114.161 -2.059 113.082 -2.041 112.25 C -1.395 82.347 -0.752 52.444 -0.106 22.541 C 0.056 15.039 0.228 7.538 0.395 0.037 C 0.417 0.037 0.439 0.038 0.461 0.038" style="fill: rgb(236, 229, 216); fill-opacity: 1;"/>
      </g>
    </g>
    <g style="clip-path: url(&quot;#clippath7&quot;);">
      <g transform="translate(158.9163 84.7668)">
        <path d="M 0 0 C 0.236 0.027 0.473 0.054 0.709 0.081 C 0.783 1.253 0.938 2.424 0.919 3.596 C 0.779 12.289 0.634 20.984 0.436 29.677 C -0.23 58.855 -0.933 88.032 -1.595 117.21 C -2.436 154.251 -3.248 191.292 -4.088 228.332 C -4.124 229.895 -4.325 231.454 -4.449 233.014 C -4.725 232.988 -5.001 232.962 -5.278 232.936 C -5.315 231.29 -5.417 229.642 -5.381 227.998 C -4.462 186.196 -3.528 144.394 -2.596 102.592 C -1.868 69.961 -1.144 37.33 -0.399 4.699 C -0.363 3.13 -0.137 1.566 0 0 M -1.201 116.605 C -0.548 87.31 0.098 58.015 0.762 28.721 C 0.957 20.148 1.212 11.578 1.422 3.006 C 1.465 1.237 1.607 -1.088 0.337 -0.838 C -0.088 -0.754 -0.749 1.551 -0.779 2.856 C -1.743 45.007 -2.621 87.161 -3.558 129.313 C -4.284 161.941 -5.072 194.568 -5.831 227.195 C -5.864 228.624 -6.027 230.142 -5.854 231.453 C -5.72 232.466 -5.154 233.221 -4.78 234.091 C -4.418 233.276 -3.911 232.565 -3.733 231.62 C -3.531 230.549 -3.615 229.267 -3.588 228.077 C -2.758 190.92 -1.93 153.764 -1.102 116.608 C -1.135 116.607 -1.168 116.606 -1.201 116.605" style="fill: rgb(236, 229, 216); fill-opacity: 1;"/>
      </g>
    </g>
    <g style="clip-path: url(&quot;#clippath7&quot;);">
      <g transform="translate(147.1239 84.535)">
        <path d="M 0 0 C -0.125 1.637 -0.326 3.271 -0.363 4.91 C -2.032 79.257 -3.69 153.605 -5.325 227.953 C -5.373 230.146 -5.938 233.662 -4.309 233.792 C -2.481 233.937 -2.926 230.217 -2.873 227.961 C -2.214 200.082 -1.606 172.201 -0.984 144.321 C -0.958 143.159 -0.932 141.997 -0.906 140.835 C -1.072 140.801 -1.238 140.768 -1.404 140.734 C -1.493 142.12 -1.632 143.505 -1.663 144.893 C -2.293 172.654 -2.906 200.415 -3.539 228.176 C -3.574 229.69 -3.76 231.2 -3.876 232.711 C -4.121 232.709 -4.367 232.707 -4.613 232.705 C -4.683 230.355 -4.857 228.003 -4.807 225.657 C -4.199 197.299 -3.557 168.942 -2.925 140.585 C -2.054 101.507 -1.186 62.429 -0.311 23.351 C -0.14 15.727 0.057 8.102 0.242 0.478 C 0.161 0.318 0.081 0.159 0 0" style="fill: rgb(236, 229, 216); fill-opacity: 1;"/>
      </g>
    </g>
    <g style="clip-path: url(&quot;#clippath7&quot;);">
      <g transform="translate(151.0529 83.9951)">
        <path d="M 0 0 C -0.359 2.078 -0.988 4.147 -1.038 6.235 C -2.023 48.021 -2.944 89.809 -3.872 131.597 C -3.988 136.787 -4.084 141.978 -4.17 147.168 C -4.188 148.229 -4.125 149.29 -4.099 150.35 L -3.613 150.338 C -3.581 148.875 -3.548 147.412 -3.516 145.95 C -2.494 100.009 -1.48 54.069 -0.43 8.129 C -0.373 5.616 -0.014 3.112 0.205 0.603 C 0.137 0.401 0.068 0.2 0 0" style="fill: rgb(236, 229, 216); fill-opacity: 1;"/>
      </g>
    </g>
    <g style="clip-path: url(&quot;#clippath7&quot;);">
      <g transform="translate(147.3613 85.212)">
        <path d="M 0 0 C 0.41 0.393 1.067 0.572 1.175 1.227 C 1.36 2.351 1.216 3.773 1.188 5.069 C 0.159 51.396 -0.872 97.724 -1.903 144.052 C -1.937 145.567 -1.971 147.082 -2.005 148.598 L -1.751 148.611 C -1.495 143.349 -1.122 138.091 -1.001 132.826 C -0.014 90.003 0.926 47.179 1.876 4.355 C 1.902 3.191 1.991 1.948 1.855 0.876 C 1.529 -1.707 0.914 -3.056 -0.241 -0.519 C -0.161 -0.347 -0.08 -0.173 0 0" style="fill: rgb(236, 229, 216); fill-opacity: 1;"/>
      </g>
    </g>
    <g style="clip-path: url(&quot;#clippath7&quot;);">
      <g transform="translate(145.4539 317.499)">
        <path d="M 0 0 C 1.512 2.06 2.578 1.152 2.771 -2.443 C 2.866 -4.218 2.838 -6.012 2.877 -7.797 C 3.47 -34.458 4.066 -61.12 4.66 -87.781 C 5.706 -134.792 6.754 -181.802 7.796 -228.812 C 7.896 -233.361 7.45 -234.291 5.601 -233.593 C 5.67 -233.411 5.738 -233.226 5.807 -233.041 C 6.868 -233.247 7.316 -232.124 7.325 -230.129 C 7.33 -228.941 7.294 -227.748 7.267 -226.558 C 6.381 -186.785 5.494 -147.013 4.607 -107.24 C 3.842 -72.948 3.079 -38.656 2.31 -4.364 C 2.215 -0.123 1.905 0.441 0.285 -0.472 C 0.19 -0.314 0.095 -0.157 0 0" style="fill: rgb(236, 229, 216); fill-opacity: 1;"/>
      </g>
    </g>
    <g style="clip-path: url(&quot;#clippath7&quot;);">
      <g transform="translate(160.1375 116.381)">
        <path d="M 0 0 C -0.791 35.473 -1.582 70.945 -2.372 106.418 C -2.277 106.423 -2.181 106.428 -2.085 106.433 C -1.294 70.936 -0.502 35.439 0.289 -0.058 C 0.193 -0.039 0.096 -0.019 0 0" style="fill: rgb(236, 229, 216); fill-opacity: 1;"/>
      </g>
    </g>
    <g style="clip-path: url(&quot;#clippath7&quot;);">
      <g transform="translate(145.4988 83.9959)">
        <path d="M 0 0 C -1.729 77.561 -3.458 155.122 -5.187 232.683 C -4.974 232.694 -4.76 232.704 -4.547 232.715 C -4.517 231.379 -4.487 230.043 -4.458 228.707 C -3.992 207.854 -3.527 187.001 -3.062 166.148 C -1.867 112.531 -0.666 58.914 0.496 5.296 C 0.534 3.54 0.169 1.775 -0.009 0.014 C -0.009 0.014 0 0 0 0" style="fill: rgb(236, 229, 216); fill-opacity: 1;"/>
      </g>
    </g>
    <g style="clip-path: url(&quot;#clippath7&quot;);">
      <g transform="translate(154.1354 201.3253)">
        <path d="M 0 0 C 0.815 -36.576 1.631 -73.152 2.446 -109.727 C 2.462 -110.442 2.501 -111.16 2.49 -111.871 C 2.462 -113.813 2.78 -116.503 1.374 -116.446 C 0.991 -116.43 0.284 -113.327 0.242 -111.622 C -0.315 -88.549 -0.773 -65.473 -1.274 -42.398 C -1.635 -25.742 -2.033 -9.088 -2.395 7.568 C -2.838 27.997 -3.258 48.427 -3.693 68.856 C -3.998 83.132 -4.342 97.408 -4.577 111.684 C -4.603 113.254 -4.01 116.199 -3.736 116.166 C -2.333 116.002 -2.539 113.432 -2.495 111.492 C -1.895 85.162 -1.312 58.831 -0.725 32.5 C -0.483 21.667 -0.241 10.833 0 0" style="fill: rgb(236, 229, 216); fill-opacity: 1;"/>
      </g>
    </g>
    <g style="clip-path: url(&quot;#clippath7&quot;);">
      <g transform="translate(158.9163 84.7668)">
        <path d="M 0 0 C -0.137 1.566 -0.363 3.13 -0.399 4.699 C -1.144 37.33 -1.868 69.961 -2.596 102.592 C -3.528 144.394 -4.462 186.196 -5.381 227.998 C -5.417 229.642 -5.315 231.29 -5.278 232.936 C -5.001 232.962 -4.725 232.988 -4.449 233.014 C -4.325 231.454 -4.124 229.895 -4.088 228.332 C -3.248 191.292 -2.436 154.251 -1.595 117.21 C -0.933 88.032 -0.23 58.855 0.436 29.677 C 0.634 20.984 0.779 12.289 0.919 3.596 C 0.938 2.424 0.783 1.253 0.709 0.081 C 0.473 0.054 0.236 0.027 0 0" style="fill: rgb(236, 229, 216); fill-opacity: 1;"/>
      </g>
    </g>
    <g style="clip-path: url(&quot;#clippath5&quot;);">
      <g transform="">
        <path d="M 651.696 -508.667 L -628.362 -508.667 L -628.362 -1849.866 L 651.696 -1849.866 Z" style="fill: none;"/>
      </g>
    </g>
    <g style="clip-path: url(&quot;#clippath8&quot;);">
      <g transform="translate(366.3626 410.1553)">
        <path d="M 0 0 C -29.813 47.416 -39.475 103.982 -99.678 137.5 C -125.713 151.995 -137.279 186.291 -155.417 211.592 L -64.793 211.592 C -65.466 213.618 -66.248 220.19 -69.63 225.5 C -113.89 294.999 -102.463 410.465 -44.933 471.432 C -8.191 510.368 18.66 510.668 71.874 472.736 C -18.453 453.867 -53.137 403.675 -28.902 315.016 C -0.701 211.846 42.174 111.122 61.527 6.909 C 77.914 -81.333 77.838 -173.619 69.227 -262.954 C 64.952 -307.3 25.123 -349.035 -1.125 -396.479 L 96.436 -396.479 C 52.426 -452.605 18.588 -495.758 -18.121 -542.573 C -1.627 -549.799 22.848 -560.521 47.323 -571.243 C 48.755 -577.119 50.188 -582.994 51.62 -588.87 C -4.556 -601.977 -60.733 -615.084 -116.91 -628.192 C -21.352 -584.056 2.026 -685.008 67.356 -700.451 C 73.49 -701.901 76.699 -721.136 76.724 -732.121 C 76.774 -752.932 -7.135 -817.856 -31.023 -817.308 C -133.499 -814.957 -172.858 -783.887 -190.996 -690.891 C -214.936 -763.124 -190.649 -806.227 -99.64 -818.424 C -64.652 -823.113 -28.674 -838.702 0.252 -857.193 C 37.086 -880.738 38.353 -906.519 -16.804 -917.615 C 20.226 -953.249 89.009 -982.934 16.147 -1039.878 C 86.291 -1079.5 89.385 -1149.578 86.476 -1208.672 C 80.711 -1325.801 58.913 -1442.636 37.815 -1558.773 C 24.189 -1633.772 -1.592 -1707.025 -18.924 -1781.592 C -35.073 -1851.07 1.96 -1895.81 79.2 -1918.551 C 76.395 -1924.562 73.591 -1930.573 70.787 -1936.585 C 42.132 -1928.827 13.209 -1921.741 -15.097 -1913.112 C -40.49 -1905.372 -65.204 -1895.934 -90.218 -1887.244 C -83.923 -1823.765 -77.627 -1760.285 -72.298 -1706.561 C -78.84 -1709.774 -104.096 -1722.177 -152.32 -1745.86 C -145.807 -1684.917 -141.254 -1642.313 -135.707 -1590.404 C -239.268 -1661.743 -328.248 -1741.33 -476.083 -1769.639 C -360.61 -1692.378 -262.925 -1627.02 -165.24 -1561.661 C -139.596 -1539.579 -113.952 -1517.497 -88.308 -1495.416 C 35.687 -1389.607 68.367 -1261.535 29.44 -1116.357 C 27.397 -1134.615 25.353 -1152.873 22.499 -1178.368 C 4.435 -1171.726 -8.375 -1167.016 -20.49 -1162.561 C -30.866 -1233.493 -98.713 -1244.511 -156.988 -1243.562 C -190.86 -1243.01 -238.803 -1211.574 -253.873 -1183.267 C -276.101 -1141.519 -240.954 -1110.171 -189.874 -1098.065 C -192.106 -1116.872 -194.534 -1135.836 -196.893 -1154.266 C -123.34 -1174.96 -53.67 -1185.523 -27.56 -1101.455 C -4.296 -1026.548 -37.903 -974.854 -116.556 -948.281 C -99.459 -978.903 -80.256 -1013.3 -62.225 -1045.596 C -113.952 -1067.189 -152.882 -1083.44 -191.811 -1099.691 C -197.973 -1067.412 -204.133 -1035.134 -210.294 -1002.856 C -210.294 -1002.856 -211.726 -1004.393 -211.726 -1004.393 C -196.114 -1015.908 -180.502 -1027.422 -164.89 -1038.936 C -157.951 -1038.686 -151.012 -1038.437 -144.073 -1038.187 C -149.438 -1016.741 -146.503 -985.235 -161.687 -975.69 C -212.181 -943.946 -266.94 -920.204 -334.811 -920.403 C -584.416 -921.134 -682.081 -787.067 -578.482 -590.814 L -580.926 -592.865 C -496.877 -568.655 -413.223 -543.319 -328.629 -520.66 C -278.238 -507.162 -224.874 -501.488 -175.47 -485.944 C -65.856 -451.457 -33.251 -388.77 -48.719 -249.84 C -23.605 -245.628 1.919 -241.346 43.896 -234.304 C 31.947 -170.815 19.056 -102.324 6.165 -33.833 C 4.11 -22.556 2.055 -11.278 0 0" style="fill: rgb(52, 42, 107); fill-opacity: 1;"/>
      </g>
    </g>
    <g style="clip-path: url(&quot;#clippath8&quot;);">
      <g transform="translate(-178.9624 80.5099)">
        <path d="M 0 0 C 18.29 -13.027 36.58 -26.054 51.698 -36.822 C 185.558 31.423 134.256 -130.067 200.289 -129.001 C 220.538 -111.382 237.491 -96.63 254.446 -81.877 C 264.194 -93.93 285.208 -111.334 281.638 -117.061 C 269.578 -136.41 246.106 -167.457 231.821 -165.609 C 175.93 -158.379 121.117 -142.165 67.375 -125.645 C 13.101 -108.961 -37.694 -79.708 -93.139 -70.824 C -171.933 -58.199 -202.097 -85.259 -208.091 -153.567 C -262.425 -113.548 -258.173 -56.832 -189.727 -34.068 C -129.573 -14.062 -61.848 -11.399 2.534 -1.077 C 2.534 -1.077 0 0 0 0" style="fill: rgb(52, 42, 107); fill-opacity: 1;"/>
      </g>
    </g>
    <g style="clip-path: url(&quot;#clippath8&quot;);">
      <g transform="translate(102.0724 321.2737)">
        <path d="M 0 0 C -26.614 -60.108 -53.228 -120.217 -79.108 -178.667 C -9.959 -193.438 2.074 -226.302 -63.743 -287.104 C -59.062 -177.651 -163.505 -222.69 -219.425 -199.972 C -269.238 -179.736 -325.864 -172.282 -379.483 -159.186 C -377.611 -153.707 -375.737 -148.227 -373.864 -142.748 C -323.532 -151.691 -273 -168.944 -222.9 -168.039 C -64.152 -165.171 4.926 -67.078 -42.059 73.523 C -55.539 113.861 -55.007 157.767 -62.663 212.693 C 2.331 198.429 41.293 189.878 80.255 181.327 C -23.731 155.814 -37.817 124.573 -0.593 -1.784 C -0.6 -1.735 0 0 0 0" style="fill: rgb(52, 42, 107); fill-opacity: 1;"/>
      </g>
    </g>
    <g style="clip-path: url(&quot;#clippath8&quot;);">
      <g transform="translate(336.1346 221.351)">
        <path d="M 0 0 C -67.647 -14.086 -129.602 -26.987 -204.947 -42.676 C -204.046 -48.437 -200.301 -72.412 -196.556 -96.386 C -202.389 -98.217 -208.222 -100.047 -214.056 -101.878 C -223.535 -78.038 -247.496 -49.016 -239.273 -31.511 C -225.118 -1.367 -196.533 32.576 -163.953 45.274 C -98.725 70.698 -41.514 46.697 0 0" style="fill: rgb(52, 42, 107); fill-opacity: 1;"/>
      </g>
    </g>
    <g style="clip-path: url(&quot;#clippath8&quot;);">
      <g transform="translate(153.6373 -68.0571)">
        <path d="M 0 0 C 22.767 37.502 51.143 76.329 67.357 118.703 C 70.078 125.809 20.119 148.274 -22.348 173.751 C 16.138 169.498 51.828 174.7 68.912 161.522 C 94.569 141.732 127.712 104.435 121.309 82.773 C 105.217 28.342 49.862 4.389 0 0" style="fill: rgb(52, 42, 107); fill-opacity: 1;"/>
      </g>
    </g>
  </g>
</svg>