<?xml version="1.0" encoding="utf-8"?>
<svg xmlns="http://www.w3.org/2000/svg" width="2381.54px" height="5075.67px" viewBox="0 0 2381.54 5075.67">
  <defs>
    <clipPath id="clippath0" transform="">
      <path d="M 0 5075.675 L 2381.535 5075.675 L 2381.535 0 L 0 0 Z" style="fill: none; clip-rule: nonzero;"/>
    </clipPath>
  </defs>
  <g class="page-1" transform="matrix(1, 0, 0, -1, 0, 5075.67)">
    <g style="clip-path: url(&quot;#clippath0&quot;);">
      <g transform="translate(1684.3905 3652.5315)">
        <path d="M 0 0 C -41.218 74.32 -54.577 162.982 -137.812 215.518 C -173.806 238.238 -189.798 291.993 -214.875 331.65 L -89.58 331.65 C -90.511 334.825 -91.592 345.127 -96.268 353.45 C -157.461 462.383 -141.662 643.364 -62.123 738.924 C -11.324 799.953 25.799 800.424 99.37 740.969 C -25.513 711.393 -73.465 632.721 -39.96 493.757 C -0.969 332.048 58.308 174.172 85.065 10.828 C 107.722 -127.481 107.616 -272.132 95.71 -412.155 C 89.801 -481.663 34.734 -547.078 -1.556 -621.442 L 133.329 -621.442 C 72.482 -709.414 25.7 -777.052 -25.053 -850.43 C -2.25 -861.756 31.589 -878.562 65.427 -895.369 C 67.407 -904.578 69.388 -913.787 71.369 -922.997 C -6.3 -943.541 -83.968 -964.085 -161.636 -984.63 C -29.521 -915.452 2.801 -1073.685 93.125 -1097.89 C 101.605 -1100.162 106.041 -1130.311 106.076 -1147.53 C 106.145 -1180.148 -9.864 -1281.91 -42.891 -1281.052 C -184.571 -1277.367 -238.988 -1228.667 -264.066 -1082.904 C -297.164 -1196.124 -263.586 -1263.682 -137.76 -1282.8 C -89.385 -1290.15 -39.644 -1314.584 0.348 -1343.567 C 51.275 -1380.472 53.025 -1420.881 -23.232 -1438.273 C 27.964 -1494.126 123.061 -1540.655 22.325 -1629.908 C 119.303 -1692.012 123.58 -1801.852 119.559 -1894.476 C 111.588 -2078.065 81.451 -2261.194 52.282 -2443.227 C 33.443 -2560.78 -2.201 -2675.597 -26.164 -2792.474 C -48.491 -2901.374 2.709 -2971.499 109.5 -3007.143 C 105.622 -3016.565 101.745 -3025.988 97.867 -3035.41 C 58.25 -3023.251 18.263 -3012.144 -20.873 -2998.619 C -55.981 -2986.486 -90.149 -2971.693 -124.733 -2958.074 C -116.029 -2858.575 -107.324 -2759.077 -99.957 -2674.869 C -109.002 -2679.906 -143.919 -2699.346 -210.593 -2736.468 C -201.588 -2640.944 -195.293 -2574.167 -187.624 -2492.805 C -330.805 -2604.622 -453.826 -2729.368 -658.217 -2773.738 C -498.568 -2652.64 -363.511 -2550.197 -228.456 -2447.753 C -193.001 -2413.142 -157.547 -2378.531 -122.092 -2343.919 C 49.34 -2178.076 94.522 -1977.334 40.703 -1749.782 C 37.878 -1778.399 35.052 -1807.016 31.107 -1846.978 C 6.131 -1836.567 -11.579 -1829.184 -28.329 -1822.202 C -42.674 -1933.381 -136.477 -1950.652 -217.047 -1949.163 C -263.877 -1948.298 -330.162 -1899.025 -350.997 -1854.657 C -381.728 -1789.22 -333.135 -1740.086 -262.514 -1721.11 C -265.6 -1750.589 -268.956 -1780.313 -272.218 -1809.201 C -170.525 -1841.636 -74.202 -1858.193 -38.104 -1726.424 C -5.939 -1609.015 -52.404 -1527.989 -161.147 -1486.338 C -137.51 -1534.337 -110.96 -1588.249 -86.031 -1638.871 C -157.546 -1672.716 -211.37 -1698.188 -265.192 -1723.659 C -273.711 -1673.066 -282.227 -1622.473 -290.746 -1571.88 L -292.725 -1574.29 C -271.141 -1592.337 -249.556 -1610.384 -227.972 -1628.432 C -218.378 -1628.041 -208.784 -1627.649 -199.19 -1627.258 C -206.608 -1593.644 -202.55 -1544.261 -223.543 -1529.3 C -293.354 -1479.545 -369.063 -1442.331 -462.899 -1442.643 C -807.995 -1443.789 -943.023 -1233.651 -799.791 -926.044 L -803.17 -929.26 C -686.966 -891.312 -571.308 -851.601 -454.352 -816.083 C -384.682 -794.927 -310.903 -786.035 -242.599 -761.671 C -91.05 -707.615 -45.971 -609.359 -67.358 -391.601 C -32.635 -384.998 2.653 -378.287 60.69 -367.25 C 44.168 -267.737 26.347 -160.384 8.524 -53.031 C 5.682 -35.354 2.841 -17.677 0 0" style="fill-opacity: 1; fill: rgb(111, 14, 30);"/>
      </g>
    </g>
    <g style="clip-path: url(&quot;#clippath0&quot;);">
      <g transform="translate(1318.1616 3510.4983)">
        <path d="M 0 0 C 26.655 36.762 49.454 77.272 81.116 109.166 C 109.231 137.485 147.179 156.243 192.195 187.022 C 228.405 162.573 274.921 131.165 321.437 99.758 C 331.758 87.658 342.078 75.557 352.398 63.457 C 367.501 -8.785 382.605 -81.028 397.708 -153.27 C 389.414 -155.564 381.121 -157.859 372.827 -160.153 C 364.699 -136.435 356.265 -112.813 348.492 -88.981 C 299.258 62.002 163.181 96.808 51.478 -15.399 C 13.684 -53.361 -2.332 -58.629 0.83 2.72 Z" style="fill-opacity: 1; fill: rgb(111, 14, 30);"/>
      </g>
    </g>
    <g style="clip-path: url(&quot;#clippath0&quot;);">
      <g transform="translate(903.6782 3557.3733)">
        <path d="M 0 0 C 33.707 20.808 67.414 41.616 101.121 62.424 C 114.765 31.668 146.872 -18.808 138.72 -26.282 C 109.968 -52.644 67.413 -64.264 30.093 -81.475 C 30.093 -81.475 32.348 -83.518 32.348 -83.518 C 21.815 -75.462 11.283 -67.405 0.75 -59.349 C 0.5 -39.566 0.25 -19.783 0 0" style="fill-opacity: 1; fill: rgb(111, 14, 30);"/>
      </g>
    </g>
    <g style="clip-path: url(&quot;#clippath0&quot;);">
      <g transform="translate(1562.2729 696.9786)">
        <path d="M 0 0 C 43.144 -82.552 86.287 -165.103 130.363 -249.438 C 144.046 -239.664 169.561 -221.438 195.077 -203.213 C 199.682 -206.629 204.288 -210.045 208.893 -213.461 C 169.483 -296.009 130.072 -378.557 87.086 -468.597 C 156.791 -481.12 244.356 -471.721 221.242 -566.279 C 173.037 -562.198 129.526 -558.471 86.005 -554.842 C 49.133 -551.766 12.252 -548.804 -24.625 -545.792 C 122.364 -405.69 125.546 -196.165 -19.43 -48.022 C -94.465 28.654 -167.08 110.964 -296.998 61.873 C -352.655 40.843 -362.627 14.349 -336.096 -33.37 C -333.839 -68.122 -331.585 -102.881 -329.328 -137.64 C -284.063 -212.096 -299.909 -256.868 -381.088 -302.369 C -427.533 -328.399 -450.604 -398.181 -479.243 -450.901 C -489.971 -470.646 -477.821 -507.834 -491.493 -519.7 C -525.084 -548.852 -567.619 -567.914 -606.555 -591.035 C -619.014 -528.651 -649.806 -462.944 -639.037 -404.773 C -627.054 -340.064 -577.217 -282.218 -543.859 -221.384 C -530.854 -230.504 -517.847 -239.625 -504.842 -248.745 C -546.803 -275.542 -587.435 -304.764 -631.198 -328.273 C -659.835 -343.655 -693.009 -350.758 -724.152 -361.569 C -722.815 -332.962 -723.334 -304.116 -719.626 -275.813 C -715.849 -246.987 -707.912 -218.695 -699.47 -179.312 C -676.704 -172.156 -642.736 -161.48 -608.123 -150.601 C -633.616 -129.262 -656.262 -110.306 -684.694 -86.507 C -599.418 -15.48 -541.931 -62.125 -476.355 -115.788 C -448.477 22.338 -373.374 108.403 -233.836 112.091 C -216.616 190.881 -255.978 286.602 -127.411 315.163 C -234.059 142.527 -75.146 89.841 0 0" style="fill-opacity: 1; fill: rgb(111, 14, 30);"/>
      </g>
    </g>
    <g style="clip-path: url(&quot;#clippath0&quot;);">
      <g transform="translate(972.6063 790.386)">
        <path d="M 0 0 C 16.663 -9.127 49.707 -25.209 79.365 -46.017 C 83.089 -48.629 66.633 -90.454 63.457 -89.948 C 29.851 -84.595 -2.959 -74.341 -49.89 -61.691 C -72.604 -102.624 -101.43 -154.569 -138.6 -221.552 C -152.066 -181.248 -163.224 -147.855 -174.22 -114.944 C -293.553 -180.998 -323.362 -316.418 -246.584 -453.263 C -175.199 -580.495 -244.739 -759.488 -392.149 -790.386 C -307.477 -672.967 -346.351 -554.484 -350.226 -434.08 C -353.842 -321.773 -310.392 -207.982 -284.968 -81.45 C -292.402 -78.595 -326.955 -65.325 -363.12 -51.435 C -296.228 -9.236 -232.249 27.085 -173.693 70.558 C -156.405 83.393 -154.653 116.515 -145.378 140.185 C -136.707 162.31 -127.503 184.229 -118.535 206.24 C -67.071 171.39 -10.633 141.41 32.431 98.335 C 43.477 87.286 12.31 34.909 0 0" style="fill-opacity: 1; fill: rgb(111, 14, 30);"/>
      </g>
    </g>
    <g style="clip-path: url(&quot;#clippath0&quot;);">
      <g transform="translate(1562.2985 1308.6119)">
        <path d="M 0 0 C -35.455 -34.611 -70.909 -69.222 -106.364 -103.833 C -304.082 -244.03 -522.317 -301.55 -766.668 -286.456 C -914.712 -277.311 -948.347 -337.456 -876.724 -459.213 C -962.82 -437.764 -1004.875 -389.033 -976.912 -311.196 C -957.642 -257.558 -923.608 -191.603 -877.515 -169.816 C -830.995 -147.829 -761.452 -173.547 -712.815 -158.114 C -679.283 -144.79 -637.998 -111.772 -613.441 -121.242 C -407.599 -200.622 -230.142 -161.052 -69.973 -15.801 C -54.644 -1.901 -23.696 -4.865 0 0" style="fill-opacity: 1; fill: rgb(111, 14, 30);"/>
      </g>
    </g>
    <g style="clip-path: url(&quot;#clippath0&quot;);">
      <g transform="translate(1393.6449 2080.6519)">
        <path d="M 0 0 C -23.92 -20.052 -47.84 -40.103 -65.516 -54.92 C -82.096 -14.729 -96.96 21.299 -116.049 67.574 C -186.812 -6.847 -236.208 -58.797 -285.603 -110.746 C -288.016 -106.081 -290.428 -101.416 -292.842 -96.751 C -323.174 -110.711 -353.86 -123.977 -383.744 -138.819 C -416.701 -155.186 -447.805 -176.482 -482.371 -187.366 C -489.631 -189.651 -508.455 -155.966 -531.166 -127.172 C -641.903 -196.793 -736.053 -118.704 -804.462 -21.518 C -835.893 23.136 -817.995 101.794 -803.849 168.63 C -779.771 70.164 -749.904 -26.409 -638.229 -31.55 C -553.019 -35.473 -464.643 -4.637 -380.12 19.221 C -307.238 39.793 -239.676 79.99 -166.346 97.541 C -85.373 116.922 -21.756 87.009 -2.192 -2.645 C -1.979 -2.41 0 0 0 0" style="fill-opacity: 1; fill: rgb(111, 14, 30);"/>
      </g>
    </g>
    <g style="clip-path: url(&quot;#clippath0&quot;);">
      <g transform="translate(930.4416 3135.844)">
        <path d="M 0 0 C 25.287 -20.419 50.574 -40.837 71.476 -57.715 C 256.546 49.253 185.617 -203.868 276.914 -202.197 C 304.909 -174.581 328.348 -151.458 351.789 -128.334 C 365.266 -147.227 394.319 -174.506 389.383 -183.482 C 372.71 -213.81 340.259 -262.473 320.509 -259.576 C 243.235 -248.243 167.453 -222.83 93.15 -196.936 C 18.113 -170.785 -52.115 -124.935 -128.771 -111.01 C -237.71 -91.221 -279.413 -133.635 -287.7 -240.701 C -362.82 -177.976 -356.942 -89.078 -262.311 -53.398 C -179.143 -22.041 -85.509 -17.867 3.503 -1.688 C 3.503 -1.688 0 0 0 0" style="fill-opacity: 1; fill: rgb(111, 14, 30);"/>
      </g>
    </g>
    <g style="clip-path: url(&quot;#clippath0&quot;);">
      <g transform="translate(1318.9912 3513.218)">
        <path d="M 0 0 C -36.796 -94.214 -73.591 -188.428 -109.372 -280.043 C -13.769 -303.195 2.868 -354.706 -88.129 -450.007 C -81.658 -278.451 -226.057 -349.045 -303.37 -313.437 C -372.239 -281.719 -450.529 -270.035 -524.661 -249.509 C -522.072 -240.921 -519.482 -232.332 -516.893 -223.744 C -447.304 -237.76 -377.442 -264.803 -308.175 -263.385 C -88.694 -258.889 6.811 -105.138 -58.15 115.24 C -76.786 178.467 -76.051 247.285 -86.635 333.377 C 3.223 311.018 57.09 297.615 110.958 284.212 C -32.81 244.224 -52.284 195.257 -0.82 -2.796 C -0.83 -2.72 0 0 0 0" style="fill-opacity: 1; fill: rgb(111, 14, 30);"/>
      </g>
    </g>
    <g style="clip-path: url(&quot;#clippath0&quot;);">
      <g transform="translate(744.7542 1476.811)">
        <path d="M 0 0 C -90.076 -109.68 -27.128 -200.284 51.78 -304.533 C -55.346 -272.594 -102.665 -210.648 -109.88 -123.969 C -115.513 -56.293 -100.878 12.805 -102.658 81.083 C -104.953 169.058 -114.641 256.845 -120.924 341.709 C -36.308 337.316 7.055 236.818 -3.072 -3.58 C -2.976 -3.427 0 0 0 0" style="fill-opacity: 1; fill: rgb(111, 14, 30);"/>
      </g>
    </g>
    <g style="clip-path: url(&quot;#clippath0&quot;);">
      <g transform="translate(1123.3416 269.4921)">
        <path d="M 0 0 C 9.606 16.08 33.507 88.721 56.945 88.576 C 106.611 88.267 158.828 54.126 203.6 24.415 C 214.842 16.956 203.89 -26.604 199.019 -52.824 C 197.099 -63.163 177.032 -71.483 177.072 -80.673 C 177.236 -119.491 239.412 -177.956 151.842 -187.949 C 67.054 -197.625 -1.518 -119.287 0 0" style="fill-opacity: 1; fill: rgb(111, 14, 30);"/>
      </g>
    </g>
    <g style="clip-path: url(&quot;#clippath0&quot;);">
      <g transform="translate(1342.3823 1532.7701)">
        <path d="M 0 0 C -1.868 24.295 -3.734 48.59 -5.867 76.342 C 162.756 3.799 162.756 3.799 341.133 229.969 C 366.452 133.925 310.114 -20.235 219.255 -70.051 C 125.721 -121.334 70.604 -27.154 -1.531 3.042 C -1.549 3.265 -0.001 0 0 0" style="fill-opacity: 1; fill: rgb(111, 14, 30);"/>
      </g>
    </g>
    <g style="clip-path: url(&quot;#clippath0&quot;);">
      <g transform="translate(1510.1593 255.3329)">
        <path d="M 0 0 C -32.501 3.811 -65.002 7.621 -107.901 12.651 C -144.05 50.341 -191.293 99.599 -239.408 149.764 C -231.058 169.872 -220.805 194.561 -211.03 218.104 C 19.242 215.504 73.539 157.206 -2.759 -2.403 C -2.969 -2.561 0 0 0 0" style="fill-opacity: 1; fill: rgb(111, 14, 30);"/>
      </g>
    </g>
    <g style="clip-path: url(&quot;#clippath0&quot;);">
      <g transform="translate(696.9528 2648.5479)">
        <path d="M 0 0 C 32.379 -49.839 82.178 -97.18 89.994 -150.542 C 94.074 -178.394 27.253 -240.178 -12.855 -245.211 C -78.09 -253.397 -137.518 -206.114 -125.553 -133.033 C -117.833 -85.886 -74.6 -44.435 -47.281 -0.43 C -31.521 -0.287 -15.76 -0.143 0 0" style="fill-opacity: 1; fill: rgb(111, 14, 30);"/>
      </g>
    </g>
    <g style="clip-path: url(&quot;#clippath0&quot;);">
      <g transform="translate(1642.5981 3356.5989)">
        <path d="M 0 0 C -93.527 -22.079 -179.183 -42.3 -283.353 -66.89 C -282.108 -75.92 -276.93 -113.498 -271.751 -151.076 C -279.817 -153.945 -287.882 -156.814 -295.947 -159.683 C -309.053 -122.317 -342.18 -76.828 -330.811 -49.391 C -311.24 -2.143 -271.72 51.06 -226.676 70.963 C -136.494 110.812 -57.395 73.194 0 0" style="fill-opacity: 1; fill: rgb(111, 14, 30);"/>
      </g>
    </g>
    <g style="clip-path: url(&quot;#clippath0&quot;);">
      <g transform="translate(1269.8936 560.386)">
        <path d="M 0 0 C 29.517 21.184 57.362 45.309 88.924 62.898 C 142.75 92.893 279.125 47.77 296.872 -8.84 C 302.124 -25.59 276.754 -70.596 266.908 -70.153 C 186.064 -66.518 105.322 -56.779 25.302 -44.198 C 15.514 -42.659 10.179 -13.389 2.874 3.11 C 2.968 3.19 0 0 0 0" style="fill-opacity: 1; fill: rgb(111, 14, 30);"/>
      </g>
    </g>
    <g style="clip-path: url(&quot;#clippath0&quot;);">
      <g transform="translate(1178.6002 1764.0399)">
        <path d="M 0 0 C 136.435 -20.085 130.056 -139.384 163.767 -231.055 C 163.781 -231.27 162.233 -228.005 162.251 -228.228 C 169.393 -319.575 180.039 -407.624 311.234 -387.701 C 256.358 -525.907 173.579 -418.065 101.906 -409.921 C 147.333 -259.841 94.593 -124.575 2.762 1.41 Z" style="fill-opacity: 1; fill: rgb(111, 14, 30);"/>
      </g>
    </g>
    <g style="clip-path: url(&quot;#clippath0&quot;);">
      <g transform="translate(1181.3621 1765.4501)">
        <path d="M 0 0 C -58.053 -0.323 -116.731 4.529 -174.001 -2.259 C -248.187 -11.052 -321.247 -29.125 -407.182 -32.799 C -352.62 -6.503 -300.434 29.13 -242.831 43.492 C -183.904 58.183 -119.639 51.507 -57.765 55.108 C 40.885 60.848 73.999 102.441 69.833 203.406 C 85.031 176.927 119.715 137.854 112.01 126.177 C 80.899 79.041 36.719 40.353 -2.699 -1.433 C -2.762 -1.41 0 0 0 0" style="fill-opacity: 1; fill: rgb(111, 14, 30);"/>
      </g>
    </g>
    <g style="clip-path: url(&quot;#clippath0&quot;);">
      <g transform="translate(1145.1069 3609.5007)">
        <path d="M 0 0 C 51.564 -58.956 107.811 -96.395 103.431 -124.621 C 97.027 -165.896 47.132 -200.561 15.774 -238.042 C -17.514 -208.881 -74.105 -182.399 -77.926 -149.849 C -82.264 -112.898 -39.385 -70.517 0 0" style="fill-opacity: 1; fill: rgb(111, 14, 30);"/>
      </g>
    </g>
    <g style="clip-path: url(&quot;#clippath0&quot;);">
      <g transform="translate(896.834 1523.0897)">
        <path d="M 0 0 C -15.157 28.131 -48.158 61.59 -41.561 83.228 C -29.718 122.083 0.627 174.268 33.164 182.509 C 62.61 189.968 121.05 154.453 137.914 122.844 C 156.407 88.187 163.208 26.37 87.34 19.273 C 56.929 16.429 27.022 8.301 -3.114 2.578 Z" style="fill-opacity: 1; fill: rgb(111, 14, 30);"/>
      </g>
    </g>
    <g style="clip-path: url(&quot;#clippath0&quot;);">
      <g transform="translate(1141.3729 3805.4983)">
        <path d="M 0 0 C 16.646 -32.59 55.202 -75.845 45.401 -95.559 C 24.654 -137.294 -21.328 -166.743 -56.964 -201.23 C -83.723 -173.768 -137.505 -138.016 -132 -120.451 C -117.481 -74.1 -77.242 -35.64 -47.242 5.962 C -31.495 3.975 -15.748 1.987 0 0" style="fill-opacity: 1; fill: rgb(111, 14, 30);"/>
      </g>
    </g>
    <g style="clip-path: url(&quot;#clippath0&quot;);">
      <g transform="translate(1051.1284 1526.3981)">
        <path d="M 0 0 C 20.472 43.718 31.33 98.937 65.181 126.652 C 84.156 142.189 148.65 121.64 178.101 98.91 C 193.957 86.673 192.522 20.599 175.131 5.348 C 147.171 -19.172 100.056 -27.5 59.977 -31.089 C 39.97 -32.88 17.619 -9.026 -3.539 3.123 C -3.406 3.018 0 0 0 0" style="fill-opacity: 1; fill: rgb(111, 14, 30);"/>
      </g>
    </g>
    <g style="clip-path: url(&quot;#clippath0&quot;);">
      <g transform="translate(763.9178 2130.3132)">
        <path d="M 0 0 C -43.251 60.348 -86.81 94.966 -82.124 121.117 C -76.078 154.862 -34.768 200.284 -2.388 206.006 C 24.507 210.759 88.802 162.004 86.482 142.895 C 81.659 103.11 43.699 67.26 0 0" style="fill-opacity: 1; fill: rgb(111, 14, 30);"/>
      </g>
    </g>
    <g style="clip-path: url(&quot;#clippath0&quot;);">
      <g transform="translate(884.5993 2726.4873)">
        <path d="M 0 0 C -19.828 -8.246 -41.078 -14.193 -59.213 -25.176 C -110.772 -56.401 -164.308 -64.138 -179.56 3.698 C -187.575 39.353 -167.24 103.3 -138.888 120.139 C -86.275 151.387 -32.357 131.389 -17.635 59.82 C -13.29 38.702 -8.288 17.718 -3.483 -3.271 C -3.379 -3.215 0 0 0 0" style="fill-opacity: 1; fill: rgb(111, 14, 30);"/>
      </g>
    </g>
    <g style="clip-path: url(&quot;#clippath0&quot;);">
      <g transform="translate(874.3371 3834.8567)">
        <path d="M 0 0 C 43.481 -64.411 82.327 -100.109 89.315 -141.123 C 93.055 -163.067 41.897 -194.172 15.514 -221.143 C -17.971 -188.557 -64.572 -160.866 -79.614 -121.396 C -87.583 -100.493 -40.696 -59.115 0 0" style="fill-opacity: 1; fill: rgb(111, 14, 30);"/>
      </g>
    </g>
    <g style="clip-path: url(&quot;#clippath0&quot;);">
      <g transform="translate(893.7198 1525.6672)">
        <path d="M 0 0 C 15.393 -25.168 30.787 -50.335 46.18 -75.503 C 46.18 -75.503 44.717 -72.005 44.717 -72.005 C 7.172 -100.539 -30.371 -129.072 -67.916 -157.606 C -94.869 -121.247 -121.822 -84.888 -148.87 -48.693 C -148.966 -48.856 -151.941 -52.283 -152.038 -52.436 C -100.31 -35.93 -48.486 -19.271 3.227 -2.595 C 3.114 -2.578 0 0 0 0" style="fill-opacity: 1; fill: rgb(111, 14, 30);"/>
      </g>
    </g>
    <g style="clip-path: url(&quot;#clippath0&quot;);">
      <g transform="translate(963.5073 1396.5864)">
        <path d="M 0 0 C 7.539 -7.361 16.247 -13.877 22.414 -22.231 C 46.446 -54.786 75.587 -85.679 89.727 -122.164 C 94.172 -133.629 55.182 -178.882 40.164 -176.983 C 4.343 -172.453 -42.77 -157.309 -59.147 -130.684 C -72.746 -108.58 -52.29 -62.8 -40.165 -29.949 C -35.479 -17.249 -12.193 -11.271 2.654 -2.274 C 2.688 -2.318 0 0 0 0" style="fill-opacity: 1; fill: rgb(111, 14, 30);"/>
      </g>
    </g>
    <g style="clip-path: url(&quot;#clippath0&quot;);">
      <g transform="translate(1390.2833 2902.9795)">
        <path d="M 0 0 C 31.476 58.78 70.708 119.639 93.126 186.055 C 96.887 197.193 27.816 232.406 -30.898 272.338 C 22.311 265.671 71.655 273.825 95.276 253.17 C 130.749 222.151 176.571 163.692 167.718 129.739 C 145.47 44.423 68.938 6.88 0 0" style="fill-opacity: 1; fill: rgb(111, 14, 30);"/>
      </g>
    </g>
    <g style="clip-path: url(&quot;#clippath0&quot;);">
      <g transform="translate(1127.2343 1470.7454)">
        <path d="M 0 0 C 35.271 -26.77 76.166 -49.253 102.378 -82.929 C 110.219 -93.004 83.158 -148.242 61.055 -157.796 C 34.561 -169.249 -28.702 -161.216 -32.36 -148.908 C -44.469 -108.159 -36.93 -61.691 -36.93 -17.417 C -24.62 -11.611 -12.31 -5.805 0 0" style="fill-opacity: 1; fill: rgb(111, 14, 30);"/>
      </g>
    </g>
    <g style="clip-path: url(&quot;#clippath0&quot;);">
      <g transform="translate(933.7709 3475.8987)">
        <path d="M 0 0 C 14.556 -13.763 33.05 -25.242 42.834 -41.771 C 62.346 -74.73 93.64 -113.16 88.479 -144.186 C 84.43 -168.528 32.856 -185.128 2.397 -205.168 C -13.037 -165.798 -37.929 -127.042 -40.59 -86.844 C -42.375 -59.908 -12.619 -30.926 2.64 -2.451 C 2.255 -2.043 0 0 0 0" style="fill-opacity: 1; fill: rgb(111, 14, 30);"/>
      </g>
    </g>
    <g style="clip-path: url(&quot;#clippath0&quot;);">
      <g transform="translate(1232.9446 559.3383)">
        <path d="M 0 0 C -2.256 34.759 -4.511 69.518 -6.767 104.27 C 8.272 119.655 21.673 145.702 38.692 148.27 C 76.671 154.001 116.455 148.013 155.505 146.8 C 136.087 121.709 117.13 96.251 97.122 71.63 C 77.683 47.712 57.167 24.652 37.036 1.131 C 36.949 1.048 39.917 4.237 39.823 4.157 C 26.485 2.718 13.243 1.359 0 0" style="fill-opacity: 1; fill: rgb(111, 14, 30);"/>
      </g>
    </g>
    <g style="clip-path: url(&quot;#clippath0&quot;);">
      <g transform="translate(947.8115 2957.3464)">
        <path d="M 0 0 C 29.08 -46.145 62.225 -75.632 57.89 -98.005 C 53.025 -123.106 14.275 -141.775 -9.731 -163.243 C -30.913 -139.115 -66.961 -116.055 -68.835 -90.538 C -70.5 -67.87 -34.256 -42.474 0 0" style="fill-opacity: 1; fill: rgb(111, 14, 30);"/>
      </g>
    </g>
    <g style="clip-path: url(&quot;#clippath0&quot;);">
      <g transform="translate(939.8997 1450.1644)">
        <path d="M 0 0 C 37.182 25.337 74.362 50.674 111.386 76.123 C 111.229 76.233 107.823 79.252 107.69 79.357 C 115.85 43.908 141.788 -3.49 127.711 -24.024 C 112.146 -46.733 59.938 -44.844 23.648 -53.622 C 23.608 -53.578 26.296 -55.896 26.262 -55.852 C 17.086 -36.275 7.943 -16.743 -1.331 3.144 C -1.463 3.498 0 0 0 0" style="fill-opacity: 1; fill: rgb(111, 14, 30);"/>
      </g>
    </g>
    <g style="clip-path: url(&quot;#clippath0&quot;);">
      <g transform="translate(1024.6406 2169.5151)">
        <path d="M 0 0 C -37.707 -32.342 -63.08 -69.439 -81.749 -66.386 C -107.31 -62.208 -127.78 -27.531 -150.433 -5.925 C -130.52 13.849 -111.861 47.725 -90.359 49.596 C -66.9 51.637 -40.808 24.026 0 0" style="fill-opacity: 1; fill: rgb(111, 14, 30);"/>
      </g>
    </g>
    <g style="clip-path: url(&quot;#clippath0&quot;);">
      <g transform="translate(933.9443 3134.1558)">
        <path d="M 0 0 L -210.766 0 C -165.424 78.053 -81.901 102.468 0.301 45.247 C 6.203 41.139 -2.26 16.82 -3.773 1.793 C -3.503 1.688 0 0 0 0" style="fill-opacity: 1; fill: rgb(111, 14, 30);"/>
      </g>
    </g>
    <g style="clip-path: url(&quot;#clippath0&quot;);">
      <g transform="translate(1146.1289 4591.8037)">
        <path d="M 0 0 C -30.838 54.78 -78.448 106.727 -88.495 165.017 C -102.778 247.865 -15.747 327.881 69.999 326.059 C 120.629 324.983 154.171 315.898 142.669 241.013 C 126.637 136.64 82.349 60.493 -2.204 2.427 C -2.125 2.316 0 0 0 0" style="fill-opacity: 1; fill: rgb(111, 14, 30);"/>
      </g>
    </g>
    <g style="clip-path: url(&quot;#clippath0&quot;);">
      <g transform="translate(980.5342 4549.9243)">
        <path d="M 0 0 C -48.043 42.808 -101.444 81.243 -142.139 130.051 C -166.906 159.753 -210.545 212.937 -123.24 231.941 C -118.07 233.066 -111.348 241.797 -110.921 247.404 C -106.91 300.023 -100.914 362.517 -31.783 348.559 C -5.295 343.21 13.032 279.019 27.389 238.944 C 45.49 188.419 55.719 135.131 64.155 102.877 C 36.02 58.672 16.671 28.27 -2.935 -2.29 C -3.193 -2.448 0 0 0 0" style="fill-opacity: 1; fill: rgb(111, 14, 30);"/>
      </g>
    </g>
    <g style="clip-path: url(&quot;#clippath0&quot;);">
      <g transform="translate(1492.9871 4904.7256)">
        <path d="M 0 0 C 23.228 -2.461 46.482 -4.709 69.68 -7.43 C 113.714 -12.595 163.34 -32.298 199.721 -18.255 C 223.352 -9.134 227.653 49.023 252.094 117.263 C 269.667 64.293 302.734 14.903 289.584 -5.963 C 260.056 -52.821 207.578 -85.518 154.29 -133.033 C 193.588 -187.435 145.323 -318.632 275.51 -363.359 C 193.742 -417.524 146.598 -404.593 122.719 -318.999 C 105.26 -256.418 101.547 -189.734 80.687 -128.56 C 67.879 -91 34.299 -60.375 10.046 -26.637 C 6.698 -17.759 3.348 -8.879 0 0" style="fill-opacity: 1; fill: rgb(111, 14, 30);"/>
      </g>
    </g>
    <g style="clip-path: url(&quot;#clippath0&quot;);">
      <g transform="translate(1492.9857 4904.7246)">
        <path d="M 0 0 C 3.349 -8.878 6.699 -17.758 10.048 -26.636 C 13.756 -49.266 17.463 -71.898 23.128 -106.479 C -29.276 -76.973 -80.911 -63.426 -105.109 -30.269 C -134.082 9.433 -159.916 70.045 -150.679 114.125 C -135.862 184.829 -70.984 175.271 -16.511 149.529 C 24.959 129.932 64.299 105.921 134.631 67.433 C 55.756 59.012 8.795 53.999 -38.167 48.986 C -45.267 41.979 -52.368 34.973 -59.469 27.967 C -39.646 18.644 -19.822 9.322 0 0" style="fill-opacity: 1; fill: rgb(111, 14, 30);"/>
      </g>
    </g>
    <g style="clip-path: url(&quot;#clippath0&quot;);">
      <g transform="translate(1161.03 4461.8096)">
        <path d="M 0 0 C 117.976 17.758 235.953 35.515 353.357 53.187 C 354.251 8.58 253.326 -110.917 200.987 -119.93 C 114.368 -134.848 33.712 -84.703 2.896 3.074 C 2.826 2.963 0 0 0 0" style="fill-opacity: 1; fill: rgb(111, 14, 30);"/>
      </g>
    </g>
    <g style="clip-path: url(&quot;#clippath0&quot;);">
      <g transform="translate(1331.0055 4216.7563)">
        <path d="M 0 0 C 7.508 14.825 11.086 35.157 23.156 43.594 C 109.552 103.988 197.675 161.962 280.689 217.646 C 264.415 127.575 186.438 61.458 107.704 -3.03 C 44.303 -54.959 -9.572 -107.242 68.289 -199.002 C -63.13 -151.963 -70.333 -126.369 -2.021 2.031 C -2.021 2.031 0 0 0 0" style="fill-opacity: 1; fill: rgb(111, 14, 30);"/>
      </g>
    </g>
    <g style="clip-path: url(&quot;#clippath0&quot;);">
      <g transform="translate(798.6777 4636.2065)">
        <path d="M 0 0 C 62.469 -53.327 124.939 -106.654 198.956 -169.84 C 45.638 -201.389 2.895 -170.666 -27.434 -29.81 C -18.29 -19.873 -9.145 -9.937 0 0" style="fill-opacity: 1; fill: rgb(111, 14, 30);"/>
      </g>
    </g>
    <g style="clip-path: url(&quot;#clippath0&quot;);">
      <g transform="translate(1328.9845 4218.7871)">
        <path d="M 0 0 C -165.952 -55.417 -288.148 57.18 -272.359 251.016 C -272.338 251.043 -274.82 248.677 -274.796 248.704 C -260.033 241.25 -232.525 233.907 -232.44 226.266 C -230.724 72.527 -124.93 25.713 1.657 -1.691 C 2.021 -2.031 0 0 0 0" style="fill-opacity: 1; fill: rgb(111, 14, 30);"/>
      </g>
    </g>
  </g>
</svg>