<?xml version="1.0" encoding="utf-8"?>
<svg xmlns="http://www.w3.org/2000/svg" width="530px" height="330px" viewBox="0 0 530 330">
  <defs>
    <clipPath id="clippath0" transform="">
      <path d="M 0 423.093 L 618.266 423.093 L 618.266 0 L 0 0 Z" style="fill: none; clip-rule: nonzero;"/>
    </clipPath>
    <clipPath id="clippath1" transform="" style="clip-path: url(&quot;#clippath0&quot;);">
      <path d="M 657.029 -52.713 L -623.029 -52.713 L -623.029 -1393.912 L 657.029 -1393.912 Z" style="fill: none; clip-rule: nonzero;"/>
    </clipPath>
    <clipPath id="clippath2" transform="">
      <path d="M 0 423.093 L 618.266 423.093 L 618.266 0 L 0 0 Z" style="fill: none; clip-rule: nonzero;"/>
    </clipPath>
    <clipPath id="clippath3" transform="">
      <path d="M 144.218 364.616 C 147.057 364.614 151.407 364.215 155.789 361.882 L 155.789 361.882 C 164.862 357.05 168.074 347.123 169.796 341.831 L 169.796 341.831 C 187.693 286.81 187.865 291.786 189.893 279.247 L 189.893 279.247 C 191.857 267.105 194.763 248.363 192.633 223.652 L 192.633 223.652 C 190.357 197.236 183.351 175.881 177.104 161.069 L 177.104 161.069 C 186.481 168.044 199.387 176.43 215.775 183.854 L 215.775 183.854 C 237.419 193.66 256.263 197.77 267.54 199.652 L 267.54 199.652 C 282.855 202.208 293.787 202.167 315.651 202.082 L 315.651 202.082 C 338.11 201.996 346.958 200.27 354.931 197.526 L 354.931 197.526 C 364.605 194.196 371.976 189.716 376.855 186.285 L 376.855 186.285 C 378.266 190.095 380.027 195.483 381.423 202.082 L 381.423 202.082 C 383.18 210.39 383.859 218.254 383.859 227.298 L 383.859 227.298 C 383.858 248.207 380.229 264.835 375.028 288.665 L 375.028 288.665 C 373.116 297.43 371.229 304.781 369.547 310.843 L 369.547 310.843 C 368.086 316.113 366.714 320.639 365.589 324.211 L 365.589 324.211 C 359.296 327.653 353.003 331.096 346.71 334.54 L 346.71 334.54 C 318.725 343.401 285.181 351.923 246.834 357.629 L 246.834 357.629 C 211.597 362.872 179.54 364.66 151.784 364.66 L 151.784 364.66 C 149.225 364.66 146.703 364.645 144.218 364.616" style="fill: none; clip-rule: nonzero;"/>
    </clipPath>
  </defs>
  <g class="page-1" transform="matrix(1, 0, 0, -1, -44.12011, 401.218323)">
    <g transform="">
      <path d="M 0 423.093 L 618.266 423.093 L 618.266 0 L 0 0 Z" style="fill: none;"/>
    </g>
    <g style="clip-path: url(&quot;#clippath0&quot;);">
      <g transform="">
        <path d="M 657.029 -52.713 L -623.029 -52.713 L -623.029 -1393.912 L 657.029 -1393.912 Z" style="fill: none;"/>
      </g>
    </g>
    <g style="clip-path: url(&quot;#clippath1&quot;);">
      <g transform="translate(371.6957 866.1094)">
        <path d="M 0 0 C -29.813 47.416 -39.475 103.982 -99.678 137.5 C -125.713 151.995 -137.279 186.291 -155.417 211.592 L -64.793 211.592 C -65.466 213.618 -66.248 220.19 -69.63 225.5 C -113.89 294.999 -102.463 410.465 -44.933 471.432 C -8.191 510.368 18.66 510.669 71.874 472.736 C -18.453 453.867 -53.137 403.675 -28.902 315.016 C -0.701 211.846 42.174 111.122 61.527 6.909 C 77.914 -81.333 77.838 -173.619 69.227 -262.954 C 64.952 -307.3 25.123 -349.035 -1.125 -396.479 L 96.436 -396.479 C 52.426 -452.605 18.588 -495.758 -18.121 -542.573 C -1.627 -549.799 22.848 -560.521 47.323 -571.243 C 48.755 -577.119 50.188 -582.994 51.62 -588.87 C -4.556 -601.977 -60.733 -615.084 -116.91 -628.192 C -21.352 -584.056 2.026 -685.008 67.356 -700.451 C 73.49 -701.901 76.699 -721.136 76.724 -732.121 C 76.774 -752.932 -7.135 -817.856 -31.023 -817.308 C -133.499 -814.957 -172.858 -783.887 -190.996 -690.89 C -214.936 -763.124 -190.649 -806.227 -99.64 -818.424 C -64.652 -823.113 -28.674 -838.702 0.252 -857.193 C 37.087 -880.738 38.353 -906.519 -16.804 -917.615 C 20.226 -953.249 89.009 -982.934 16.147 -1039.878 C 86.291 -1079.5 89.385 -1149.578 86.476 -1208.672 C 80.711 -1325.801 58.913 -1442.636 37.815 -1558.773 C 24.189 -1633.772 -1.592 -1707.025 -18.924 -1781.592 C -35.073 -1851.07 1.96 -1895.81 79.2 -1918.551 C 76.395 -1924.562 73.591 -1930.573 70.787 -1936.585 C 42.132 -1928.827 13.209 -1921.741 -15.097 -1913.112 C -40.49 -1905.372 -65.204 -1895.934 -90.218 -1887.244 C -83.923 -1823.765 -77.627 -1760.285 -72.298 -1706.561 C -78.84 -1709.774 -104.096 -1722.177 -152.32 -1745.86 C -145.807 -1684.917 -141.254 -1642.313 -135.707 -1590.404 C -239.268 -1661.743 -328.248 -1741.331 -476.083 -1769.639 C -360.61 -1692.378 -262.925 -1627.02 -165.24 -1561.661 C -139.596 -1539.579 -113.952 -1517.497 -88.308 -1495.416 C 35.687 -1389.607 68.367 -1261.535 29.44 -1116.357 C 27.397 -1134.615 25.353 -1152.873 22.499 -1178.368 C 4.435 -1171.726 -8.375 -1167.016 -20.49 -1162.561 C -30.866 -1233.493 -98.713 -1244.511 -156.988 -1243.562 C -190.86 -1243.01 -238.803 -1211.574 -253.873 -1183.267 C -276.101 -1141.519 -240.954 -1110.171 -189.874 -1098.065 C -192.106 -1116.872 -194.534 -1135.836 -196.893 -1154.266 C -123.34 -1174.96 -53.67 -1185.523 -27.56 -1101.455 C -4.296 -1026.548 -37.903 -974.854 -116.556 -948.281 C -99.459 -978.903 -80.256 -1013.3 -62.225 -1045.596 C -113.952 -1067.189 -152.882 -1083.44 -191.811 -1099.691 C -197.973 -1067.412 -204.133 -1035.134 -210.294 -1002.856 C -210.294 -1002.856 -211.726 -1004.393 -211.726 -1004.393 C -196.114 -1015.908 -180.502 -1027.422 -164.89 -1038.936 C -157.951 -1038.686 -151.012 -1038.437 -144.073 -1038.187 C -149.438 -1016.741 -146.503 -985.235 -161.687 -975.69 C -212.181 -943.946 -266.94 -920.204 -334.811 -920.403 C -584.416 -921.134 -682.081 -787.067 -578.482 -590.814 L -580.926 -592.865 C -496.877 -568.655 -413.223 -543.319 -328.629 -520.66 C -278.238 -507.162 -224.874 -501.488 -175.47 -485.944 C -65.856 -451.457 -33.251 -388.77 -48.719 -249.84 C -23.605 -245.628 1.919 -241.346 43.896 -234.304 C 31.947 -170.815 19.056 -102.324 6.165 -33.833 C 4.11 -22.555 2.055 -11.278 0 0" style="fill: rgb(52, 42, 107); fill-opacity: 1;"/>
      </g>
    </g>
    <g style="clip-path: url(&quot;#clippath1&quot;);">
      <g transform="translate(-173.6293 536.4641)">
        <path d="M 0 0 C 18.29 -13.027 36.58 -26.054 51.698 -36.822 C 185.558 31.423 134.256 -130.067 200.289 -129.001 C 220.538 -111.382 237.491 -96.63 254.446 -81.877 C 264.194 -93.93 285.208 -111.334 281.638 -117.061 C 269.578 -136.41 246.106 -167.457 231.821 -165.609 C 175.93 -158.379 121.117 -142.165 67.375 -125.645 C 13.101 -108.961 -37.694 -79.708 -93.139 -70.824 C -171.933 -58.199 -202.097 -85.259 -208.091 -153.567 C -262.425 -113.548 -258.173 -56.832 -189.727 -34.068 C -129.573 -14.062 -61.848 -11.4 2.534 -1.077 C 2.534 -1.077 0 0 0 0" style="fill: rgb(52, 42, 107); fill-opacity: 1;"/>
      </g>
    </g>
    <g style="clip-path: url(&quot;#clippath1&quot;);">
      <g transform="translate(158.9704 387.897)">
        <path d="M 0 0 C 22.767 37.502 51.143 76.329 67.357 118.703 C 70.078 125.809 20.119 148.274 -22.348 173.751 C 16.138 169.498 51.828 174.7 68.912 161.522 C 94.569 141.732 127.712 104.435 121.309 82.773 C 105.217 28.342 49.862 4.389 0 0" style="fill: rgb(52, 42, 107); fill-opacity: 1;"/>
      </g>
    </g>
    <g transform="">
      <path d="M 285.218 209.07 L 274.364 209.07 L 274.364 131.982 L 285.218 131.982 Z" style="fill: rgb(171, 128, 44); fill-opacity: 1;"/>
      <path d="M 0 423.093 L 618.266 423.093 L 618.266 0 L 0 0 Z" style="fill: none;"/>
    </g>
    <g style="clip-path: url(&quot;#clippath2&quot;);">
      <g transform="translate(64.0846 162.6985)">
        <path d="M 0 0 C 1.787 1.175 7.425 -6.498 14.701 -12.053 C 20.69 -16.625 30.199 -21.604 45.455 -22.882 L 72.591 -30.703 C 104.272 -32.452 111.387 -33.939 111.389 -35.021 C 111.392 -36.656 95.155 -38.039 84.733 -38.422 C 74.032 -38.816 60.137 -39.227 42.99 -34.952 C 32.108 -32.238 24.775 -30.323 18.641 -24.54 C 15.102 -21.204 13.885 -18.394 8.205 -14.129 C 5.687 -12.238 3.069 -10.644 1.248 -7.188 C -0.138 -4.557 -1.119 -0.736 0 0" style="fill: rgb(171, 128, 44); fill-opacity: 1;"/>
      </g>
    </g>
    <g style="clip-path: url(&quot;#clippath2&quot;);">
      <g transform="translate(56.019 188.9541)">
        <path d="M 0 0 L 9.891 8.634 L 25.551 15.213 L 30.908 15.213 L 32.968 33.715 L 27.199 33.715 L 16.484 30.426 L -2.473 12.746 L -9.066 -3.289 L -9.066 -20.147 L -9.066 -41.938 L -1.648 -62.085 L 8.654 -79.765 L 30.084 -94.978 L 45.744 -105.668 L 167.315 -110.191 L 237.373 -105.668 L 313.612 -102.79 L 385.73 -99.501 L 445.073 -102.379 L 489.169 -102.79 L 512.247 -86.755 L 508.538 -81.821 L 498.647 -88.399 L 474.745 -87.166 L 456.2 -71.542 L 454.552 -65.786 L 455.788 -57.151 L 452.079 -55.507 L 454.964 -36.593 L 462.382 -16.858 L 464.03 3.7 L 455.376 20.969 L 442.189 25.492 L 436.831 20.969 L 436.007 15.624 L 440.128 9.868 L 445.486 10.279 L 445.073 2.878 L 438.892 -10.279 L 428.177 -21.38 L 405.099 -30.426 L 380.373 -35.771 L 359.768 -38.238 L 341.635 -50.161 L 327.624 -52.217 L 72.531 -63.319 L 38.738 -54.273 L 23.065 -43.185 L 16.072 -38.238 L 9.478 -29.603 L 2.885 -13.979 Z" style="fill: rgb(211, 163, 42); fill-opacity: 1;"/>
      </g>
    </g>
    <g style="clip-path: url(&quot;#clippath2&quot;);">
      <g transform="translate(56.019 188.9541)">
        <path d="M 0 0 L 9.891 8.634 L 25.551 15.213 L 30.908 15.213 L 32.968 33.715 L 27.199 33.715 L 16.484 30.426 L -2.473 12.746 L -9.066 -3.289 L -9.066 -20.147 L -9.066 -41.938 L -1.648 -62.085 L 8.654 -79.765 L 30.084 -94.978 L 45.744 -105.668 L 167.315 -110.191 L 237.373 -105.668 L 313.612 -102.79 L 385.73 -99.501 L 445.073 -102.379 L 489.169 -102.79 L 512.247 -86.755 L 508.538 -81.821 L 498.647 -88.399 L 474.745 -87.166 L 456.2 -71.542 L 454.552 -65.786 L 455.788 -57.151 L 452.079 -55.507 L 454.964 -36.593 L 462.382 -16.858 L 464.03 3.7 L 455.376 20.969 L 442.189 25.492 L 436.831 20.969 L 436.007 15.624 L 440.128 9.868 L 445.486 10.279 L 445.073 2.878 L 438.892 -10.279 L 428.177 -21.38 L 405.099 -30.426 L 380.373 -35.771 L 359.768 -38.238 L 341.635 -50.161 L 327.624 -52.217 L 72.531 -63.319 L 38.738 -54.273 L 23.065 -43.185 L 16.072 -38.238 L 9.478 -29.603 L 2.885 -13.979 L 0 0 Z" style="fill: none; stroke: rgb(211, 163, 42); stroke-opacity: 1; stroke-miterlimit: 0; stroke-width: 1px; stroke-dashoffset: 0px;"/>
      </g>
    </g>
    <g style="clip-path: url(&quot;#clippath2&quot;);">
      <g transform="">
        <path d="M 125.62 124.174 L 122.605 124.174 L 122.605 133.198 L 125.62 133.198 Z" style="fill: rgb(211, 163, 42); stroke: rgb(211, 163, 42); stroke-opacity: 1; stroke-miterlimit: 0; stroke-width: 1px; stroke-dashoffset: 0px; fill-opacity: 1;"/>
        <path d="M 142.303 124.174 L 136.876 124.174 L 136.876 134.001 L 142.303 134.001 Z" style="fill: rgb(211, 163, 42); stroke: rgb(211, 163, 42); stroke-opacity: 1; stroke-miterlimit: 0; stroke-width: 1px; stroke-dashoffset: 0px; fill-opacity: 1;"/>
        <path d="M 159.188 125.177 L 155.369 125.177 L 155.369 135.605 L 159.188 135.605 Z" style="fill: rgb(211, 163, 42); stroke: rgb(211, 163, 42); stroke-opacity: 1; stroke-miterlimit: 0; stroke-width: 1px; stroke-dashoffset: 0px; fill-opacity: 1;"/>
        <path d="M 179.891 126.38 L 176.307 126.38 L 176.307 136.064 L 179.891 136.064 Z" style="fill: rgb(211, 163, 42); stroke: rgb(211, 163, 42); stroke-opacity: 1; stroke-miterlimit: 0; stroke-width: 1px; stroke-dashoffset: 0px; fill-opacity: 1;"/>
        <path d="M 200.193 127.678 L 195.354 127.678 L 195.354 137.241 L 200.193 137.241 Z" style="fill: rgb(211, 163, 42); stroke: rgb(211, 163, 42); stroke-opacity: 1; stroke-miterlimit: 0; stroke-width: 1px; stroke-dashoffset: 0px; fill-opacity: 1;"/>
        <path d="M 220.293 127.678 L 215.469 127.678 L 215.469 138.548 L 220.293 138.548 Z" style="fill: rgb(211, 163, 42); stroke: rgb(211, 163, 42); stroke-opacity: 1; stroke-miterlimit: 0; stroke-width: 1px; stroke-dashoffset: 0px; fill-opacity: 1;"/>
        <path d="M 239.188 130.391 L 235.574 130.391 L 235.574 139.756 L 239.188 139.756 Z" style="fill: rgb(211, 163, 42); stroke: rgb(211, 163, 42); stroke-opacity: 1; stroke-miterlimit: 0; stroke-width: 1px; stroke-dashoffset: 0px; fill-opacity: 1;"/>
        <path d="M 260.696 131.222 L 255.894 131.222 L 255.894 141.088 L 260.696 141.088 Z" style="fill: rgb(211, 163, 42); stroke: rgb(211, 163, 42); stroke-opacity: 1; stroke-miterlimit: 0; stroke-width: 1px; stroke-dashoffset: 0px; fill-opacity: 1;"/>
        <path d="M 303.516 133.25 L 299.442 133.25 L 299.442 143.945 L 303.516 143.945 Z" style="fill: rgb(211, 163, 42); stroke: rgb(211, 163, 42); stroke-opacity: 1; stroke-miterlimit: 0; stroke-width: 1px; stroke-dashoffset: 0px; fill-opacity: 1;"/>
        <path d="M 325.419 133.25 L 321.801 133.25 L 321.801 145.188 L 325.419 145.188 Z" style="fill: rgb(211, 163, 42); stroke: rgb(211, 163, 42); stroke-opacity: 1; stroke-miterlimit: 0; stroke-width: 1px; stroke-dashoffset: 0px; fill-opacity: 1;"/>
        <path d="M 348.936 135.226 L 344.116 135.226 L 344.116 146.831 L 348.936 146.831 Z" style="fill: rgb(211, 163, 42); stroke: rgb(211, 163, 42); stroke-opacity: 1; stroke-miterlimit: 0; stroke-width: 1px; stroke-dashoffset: 0px; fill-opacity: 1;"/>
        <path d="M 371.65 134.001 L 366.625 134.001 L 366.625 146.698 L 371.65 146.698 Z" style="fill: rgb(211, 163, 42); stroke: rgb(211, 163, 42); stroke-opacity: 1; stroke-miterlimit: 0; stroke-width: 1px; stroke-dashoffset: 0px; fill-opacity: 1;"/>
        <path d="M 138.957 113.738 L 133.129 113.738 L 133.129 120.328 L 138.957 120.328 Z" style="fill: rgb(171, 128, 44); fill-opacity: 1;"/>
        <path d="M 157.839 113.893 L 152.322 113.893 L 152.322 120.328 L 157.839 120.328 Z" style="fill: rgb(171, 128, 44); fill-opacity: 1;"/>
        <path d="M 174.002 114.435 L 169.573 114.435 L 169.573 121.18 L 174.002 121.18 Z" style="fill: rgb(171, 128, 44); fill-opacity: 1;"/>
        <path d="M 191.796 114.823 L 187.367 114.823 L 187.367 121.568 L 191.796 121.568 Z" style="fill: rgb(171, 128, 44); fill-opacity: 1;"/>
        <path d="M 209.202 115.327 L 204.773 115.327 L 204.773 122.072 L 209.202 122.072 Z" style="fill: rgb(171, 128, 44); fill-opacity: 1;"/>
        <path d="M 227.929 116.529 L 223.5 116.529 L 223.5 123.274 L 227.929 123.274 Z" style="fill: rgb(171, 128, 44); fill-opacity: 1;"/>
        <path d="M 248.52 118.195 L 244.091 118.195 L 244.091 124.94 L 248.52 124.94 Z" style="fill: rgb(171, 128, 44); fill-opacity: 1;"/>
        <path d="M 268.801 118.195 L 264.372 118.195 L 264.372 124.94 L 268.801 124.94 Z" style="fill: rgb(171, 128, 44); fill-opacity: 1;"/>
        <path d="M 289.647 118.971 L 285.218 118.971 L 285.218 125.716 L 289.647 125.716 Z" style="fill: rgb(171, 128, 44); fill-opacity: 1;"/>
        <path d="M 310.295 119.635 L 305.866 119.635 L 305.866 126.38 L 310.295 126.38 Z" style="fill: rgb(171, 128, 44); fill-opacity: 1;"/>
        <path d="M 337.489 120.762 L 333.06 120.762 L 333.06 127.507 L 337.489 127.507 Z" style="fill: rgb(171, 128, 44); fill-opacity: 1;"/>
        <path d="M 365.183 121.683 L 360.754 121.683 L 360.754 128.428 L 365.183 128.428 Z" style="fill: rgb(171, 128, 44); fill-opacity: 1;"/>
        <path d="M 389.689 122.228 L 385.26 122.228 L 385.26 128.973 L 389.689 128.973 Z" style="fill: rgb(171, 128, 44); fill-opacity: 1;"/>
        <path d="M 412.994 122.553 L 408.565 122.553 L 408.565 138.548 L 412.994 138.548 Z" style="fill: rgb(171, 128, 44); fill-opacity: 1;"/>
        <path d="M 437.33 123.288 L 432.901 123.288 L 432.901 147.014 L 437.33 147.014 Z" style="fill: rgb(171, 128, 44); fill-opacity: 1;"/>
      </g>
      <g transform="translate(89.2908 138.5481)">
        <path d="M 0 0 L -7.717 -10.87 L -14.984 -26.416 L -17.963 -34.083 L -7.583 -41.452 L -4.286 -29.638 L 4.999 -12.168 L 11.005 -5.35 L 5.466 -3.867 Z" style="fill: rgb(211, 163, 42); fill-opacity: 1;"/>
      </g>
      <g transform="translate(89.2908 138.5481)">
        <path d="M 0 0 L -7.717 -10.87 L -14.984 -26.416 L -17.963 -34.083 L -7.583 -41.452 L -4.286 -29.638 L 4.999 -12.168 L 11.005 -5.35 L 5.466 -3.867 L 0 0 Z" style="fill: none; stroke: rgb(211, 163, 42); stroke-opacity: 1; stroke-miterlimit: 0; stroke-width: 1px; stroke-dashoffset: 0px;"/>
      </g>
      <g transform="">
        <path d="M 283.953 347.603 L 278.167 347.603 L 278.167 398.945 L 283.953 398.945 Z" style="fill: rgb(171, 128, 44); fill-opacity: 1;"/>
      </g>
      <g transform="translate(512.6317 241.8802)">
        <path d="M 0 0 C 1.123 -3.759 2.787 -11.309 0.567 -20.242 C -0.573 -24.831 -2.407 -28.448 -3.999 -31.009 C -3.078 -31.325 -2.157 -31.641 -1.237 -31.957 C -0.655 -33.022 -0.073 -34.087 0.509 -35.152 C 8.98 -32.588 15.21 -25.753 16.443 -17.62 C 17.756 -8.96 12.853 -2.46 11.875 -1.215 Z" style="fill: rgb(171, 128, 44); fill-opacity: 1;"/>
      </g>
      <g transform="translate(138.957 113.7376)">
        <path d="M 0 0 L 0.633 -6.689 L 322.923 2.791 L 371.614 9.431 L 372.85 18.065 L 369.141 19.71 C 360.065 16.83 349.501 14.124 337.616 12.205 C 321.012 9.524 306.177 9.081 293.944 9.55 C 241.787 7.612 189.629 5.674 137.471 3.735 C 91.648 2.49 45.824 1.245 0 0" style="fill: rgb(127, 22, 32); fill-opacity: 1;"/>
      </g>
      <g transform="translate(118.4088 77.7093)">
        <path d="M 0 0 L 27.82 41.979 L 31.473 41.979 L 4.196 -0.666 Z" style="fill: rgb(127, 22, 32); fill-opacity: 1;"/>
      </g>
      <g transform="translate(136.5855 76.6604)">
        <path d="M 0 0 L 27.82 41.979 L 31.473 41.979 L 4.196 -0.666 Z" style="fill: rgb(127, 22, 32); fill-opacity: 1;"/>
      </g>
      <g transform="translate(152.3222 76.6604)">
        <path d="M 0 0 L 27.82 41.979 L 31.473 41.979 L 4.196 -0.666 Z" style="fill: rgb(127, 22, 32); fill-opacity: 1;"/>
      </g>
      <g transform="translate(169.5726 76.3545)">
        <path d="M 0 0 L 27.82 41.979 L 31.473 41.979 L 4.196 -0.666 Z" style="fill: rgb(127, 22, 32); fill-opacity: 1;"/>
      </g>
      <g transform="translate(187.9108 76.3545)">
        <path d="M 0 0 L 27.82 41.979 L 31.473 41.979 L 4.196 -0.666 Z" style="fill: rgb(127, 22, 32); fill-opacity: 1;"/>
      </g>
      <g transform="translate(208.3471 76.6604)">
        <path d="M 0 0 L 27.82 41.979 L 31.473 41.979 L 4.196 -0.666 Z" style="fill: rgb(127, 22, 32); fill-opacity: 1;"/>
      </g>
      <g transform="translate(229.0942 77.7093)">
        <path d="M 0 0 L 27.82 41.979 L 31.473 41.979 L 4.196 -0.666 Z" style="fill: rgb(127, 22, 32); fill-opacity: 1;"/>
      </g>
      <g transform="translate(248.5757 77.7093)">
        <path d="M 0 0 L 27.82 41.979 L 31.473 41.979 L 4.196 -0.666 Z" style="fill: rgb(127, 22, 32); fill-opacity: 1;"/>
      </g>
      <g transform="translate(267.9688 78.6796)">
        <path d="M 0 0 L 27.82 41.979 L 31.473 41.979 L 4.196 -0.666 Z" style="fill: rgb(127, 22, 32); fill-opacity: 1;"/>
      </g>
      <g transform="translate(289.6473 79.5885)">
        <path d="M 0 0 L 27.82 41.979 L 31.473 41.979 L 4.196 -0.666 Z" style="fill: rgb(127, 22, 32); fill-opacity: 1;"/>
      </g>
      <g transform="translate(317.3228 79.5885)">
        <path d="M 0 0 L 27.82 41.979 L 31.473 41.979 L 4.196 -0.666 Z" style="fill: rgb(127, 22, 32); fill-opacity: 1;"/>
      </g>
      <g transform="translate(458.7353 209.0697)">
        <path d="M 0 0 C 6.931 4.686 16.191 9.698 27.709 13.063 C 34.259 14.977 47.257 18.632 63.64 16.405 C 66.421 16.027 68.721 15.559 70.339 15.19 C 72.095 26.728 73.856 48.905 65.163 74.431 C 58.619 93.645 48.688 107.311 41.716 115.444 C -9.36 134.354 -22.301 138.515 -22.533 137.926 C -22.708 137.481 -15.276 135.293 -8.221 128.508 C -4.814 125.23 -0.251 120.258 4.568 105.419 C 10.649 86.693 12.883 71.895 13.398 68.355 C 16.167 49.332 15.409 38.601 14.92 33.722 C 14.068 25.212 12.615 20.348 10.962 16.405 C 7.724 8.681 3.205 3.268 0 0" style="fill: rgb(211, 163, 42); fill-opacity: 1;"/>
      </g>
      <g transform="translate(458.7353 209.0697)">
        <path d="M 0 0 C 6.931 4.686 16.191 9.698 27.709 13.063 C 34.259 14.977 47.257 18.632 63.64 16.405 C 66.421 16.027 68.721 15.559 70.339 15.19 C 72.095 26.728 73.856 48.905 65.163 74.431 C 58.619 93.645 48.688 107.311 41.716 115.444 C -9.36 134.354 -22.301 138.515 -22.533 137.926 C -22.708 137.481 -15.276 135.293 -8.221 128.508 C -4.814 125.23 -0.251 120.258 4.568 105.419 C 10.649 86.693 12.883 71.895 13.398 68.355 C 16.167 49.332 15.409 38.601 14.92 33.722 C 14.068 25.212 12.615 20.348 10.962 16.405 C 7.724 8.681 3.205 3.268 0 0 Z" style="fill: none; stroke: rgb(211, 163, 42); stroke-opacity: 1; stroke-miterlimit: 0; stroke-width: 1px; stroke-dashoffset: 0px;"/>
      </g>
      <g transform="translate(177.3777 161.0692)">
        <path d="M 0 0 C 9.377 6.975 22.283 15.36 38.671 22.785 C 60.315 32.591 79.16 36.7 90.436 38.583 C 105.751 41.14 116.683 41.097 138.547 41.013 C 161.006 40.927 169.854 39.2 177.828 36.456 C 187.501 33.127 194.873 28.647 199.752 25.215 C 201.162 29.026 202.923 34.414 204.319 41.013 C 206.077 49.321 206.755 57.184 206.755 66.229 C 206.754 87.138 203.126 103.765 197.925 127.596 C 196.012 136.361 194.125 143.712 192.444 149.774 C 190.982 155.044 189.611 159.57 188.485 163.141 C 182.192 166.584 175.899 170.027 169.606 173.47 C 141.621 182.332 108.077 190.853 69.73 196.559 C 31.245 202.286 -3.448 203.892 -32.886 203.547 C -30.047 203.545 -25.697 203.146 -21.315 200.812 C -12.242 195.981 -9.029 186.054 -7.308 180.762 C 10.589 125.741 10.761 130.718 12.789 118.179 C 14.753 106.035 17.659 87.294 15.529 62.583 C 13.253 36.167 6.247 14.811 0 0" style="fill: rgb(211, 163, 42); fill-opacity: 1;"/>
      </g>
      <g transform="translate(177.3777 161.0692)">
        <path d="M 0 0 C 9.377 6.975 22.283 15.36 38.671 22.785 C 60.315 32.591 79.16 36.7 90.436 38.583 C 105.751 41.14 116.683 41.097 138.547 41.013 C 161.006 40.927 169.854 39.2 177.828 36.456 C 187.501 33.127 194.873 28.647 199.752 25.215 C 201.162 29.026 202.923 34.414 204.319 41.013 C 206.077 49.321 206.755 57.184 206.755 66.229 C 206.754 87.138 203.126 103.765 197.925 127.596 C 196.012 136.361 194.125 143.712 192.444 149.774 C 190.982 155.044 189.611 159.57 188.485 163.141 C 182.192 166.584 175.899 170.027 169.606 173.47 C 141.621 182.332 108.077 190.853 69.73 196.559 C 31.245 202.286 -3.448 203.892 -32.886 203.547 C -30.047 203.545 -25.697 203.146 -21.315 200.812 C -12.242 195.981 -9.029 186.054 -7.308 180.762 C 10.589 125.741 10.761 130.718 12.789 118.179 C 14.753 106.035 17.659 87.294 15.529 62.583 C 13.253 36.167 6.247 14.811 0 0 Z" style="fill: none; stroke: rgb(211, 163, 42); stroke-opacity: 1; stroke-miterlimit: 0; stroke-width: 1px; stroke-dashoffset: 0px;"/>
      </g>
      <g transform="translate(105.8958 131.6994)">
        <path d="M 0 0 L 5.855 2.903 L 15.704 3.906 L 30.578 3.906 L 49.875 5.109 L 116.81 10.724 L 153.393 13.489 L 205.654 16.941 L 239.021 17.944 L 275.805 19.017 L 282.84 18.144 L 287.865 15.537 L 291.483 11.727 L 293.809 8.442 L 287.865 3.906 L 282.036 9.508 L 277.815 14.735 L 271.182 14.935 L 237.614 15.136 L 121.433 7.515 L 59.724 3.705 L 17.312 0 L 7.061 0 L 4.889 -1.309 L 3.443 -5.319 L -3.794 -5.319 Z" style="fill: rgb(211, 163, 42); fill-opacity: 1;"/>
      </g>
      <g transform="translate(105.8958 131.6994)">
        <path d="M 0 0 L 5.855 2.903 L 15.704 3.906 L 30.578 3.906 L 49.875 5.109 L 116.81 10.724 L 153.393 13.489 L 205.654 16.941 L 239.021 17.944 L 275.805 19.017 L 282.84 18.144 L 287.865 15.537 L 291.483 11.727 L 293.809 8.442 L 287.865 3.906 L 282.036 9.508 L 277.815 14.735 L 271.182 14.935 L 237.614 15.136 L 121.433 7.515 L 59.724 3.705 L 17.312 0 L 7.061 0 L 4.889 -1.309 L 3.443 -5.319 L -3.794 -5.319 L 0 0 Z" style="fill: none; stroke: rgb(211, 163, 42); stroke-opacity: 1; stroke-miterlimit: 0; stroke-width: 1px; stroke-dashoffset: 0px;"/>
      </g>
      <g transform="translate(278.1671 398.9453)">
        <path d="M 0 0 L -70.215 -7.437 L -56.301 -10.908 C -58.62 -15.535 -60.939 -20.163 -63.258 -24.79 L 2.834 -24.79 C 1.889 -16.527 0.945 -8.263 0 0" style="fill: rgb(211, 163, 42); fill-opacity: 1;"/>
      </g>
      <g transform="translate(278.1671 398.9453)">
        <path d="M 0 0 L -70.215 -7.437 L -56.301 -10.908 C -58.62 -15.535 -60.939 -20.163 -63.258 -24.79 L 2.834 -24.79 C 1.889 -16.527 0.945 -8.263 0 0 Z" style="fill: none; stroke: rgb(211, 163, 42); stroke-opacity: 1; stroke-miterlimit: 0; stroke-width: 1px; stroke-dashoffset: 0px;"/>
      </g>
    </g>
    <g transform="">
      <path d="M 144.218 364.616 C 147.057 364.614 151.407 364.215 155.789 361.882 L 155.789 361.882 C 164.862 357.05 168.074 347.123 169.796 341.831 L 169.796 341.831 C 187.693 286.81 187.865 291.786 189.893 279.247 L 189.893 279.247 C 191.857 267.105 194.763 248.363 192.633 223.652 L 192.633 223.652 C 190.357 197.236 183.351 175.881 177.104 161.069 L 177.104 161.069 C 186.481 168.044 199.387 176.43 215.775 183.854 L 215.775 183.854 C 237.419 193.66 256.263 197.77 267.54 199.652 L 267.54 199.652 C 282.855 202.208 293.787 202.167 315.651 202.082 L 315.651 202.082 C 338.11 201.996 346.958 200.27 354.931 197.526 L 354.931 197.526 C 364.605 194.196 371.976 189.716 376.855 186.285 L 376.855 186.285 C 378.266 190.095 380.027 195.483 381.423 202.082 L 381.423 202.082 C 383.18 210.39 383.859 218.254 383.859 227.298 L 383.859 227.298 C 383.858 248.207 380.229 264.835 375.028 288.665 L 375.028 288.665 C 373.116 297.43 371.229 304.781 369.547 310.843 L 369.547 310.843 C 368.086 316.113 366.714 320.639 365.589 324.211 L 365.589 324.211 C 359.296 327.653 353.003 331.096 346.71 334.54 L 346.71 334.54 C 318.725 343.401 285.181 351.923 246.834 357.629 L 246.834 357.629 C 211.597 362.872 179.54 364.66 151.784 364.66 L 151.784 364.66 C 149.225 364.66 146.703 364.645 144.218 364.616" style="fill: none;"/>
    </g>
    <g style="clip-path: url(&quot;#clippath3&quot;);">
      <g transform="translate(292.3314 232.4666)">
        <path d="M 0 0 C 7.257 5.359 11.444 1.988 14.65 -4.601 C 13.275 -6.628 11.847 -8.734 8.49 -13.685 C 20.614 -6.653 25.109 -12.293 29.271 -20.064 C 25.984 -21.33 23.178 -22.411 17.459 -24.614 C 28.287 -28.335 43.022 -24.4 40.405 -41.488 C 37.407 -41.274 34.194 -41.045 28.223 -40.618 C 33.573 -49.058 37.173 -56.279 42.233 -62.273 C 46.986 -67.903 56.213 -67.068 59.396 -61.659 C 60.169 -60.346 59.737 -58.327 59.859 -56.632 C 58.473 -56.534 56.486 -55.797 55.799 -56.44 C 51.442 -60.52 48.91 -58.426 47.691 -53.98 C 46.141 -48.324 49.134 -44.893 54.539 -43.8 C 61.355 -42.421 68.74 -48.674 69.551 -56.153 C 70.769 -67.384 59.588 -76.604 48.419 -72.861 C 42.976 -71.037 38.181 -67.292 32.969 -64.346 C 30.915 -68.213 29.099 -72.528 26.519 -76.327 C 18.041 -88.804 0.724 -92.042 -11.835 -83.761 C -21.116 -77.64 -24.024 -65.269 -18.451 -55.61 C -13.014 -46.186 -4.71 -44.4 6.634 -49.491 C 10.098 -51.045 14.284 -50.999 19.638 -51.953 C 19.176 -51.208 20.018 -51.955 20.08 -52.762 C 20.665 -60.395 4.412 -75.002 -2.674 -72.615 C -5.745 -71.58 -8.874 -68.273 -10.099 -65.243 C -10.725 -63.695 -7.205 -60.48 -6.354 -56.061 C -8.72 -58.047 -12.257 -59.58 -13.237 -62.102 C -16.424 -70.309 -11.13 -78.816 -2.453 -80.673 C 6.762 -82.645 16.232 -78.935 21.499 -71.262 C 27.586 -62.395 27.683 -52.968 23.009 -43.724 C 21.99 -41.709 18.006 -40.334 15.3 -40.179 C 7.258 -39.719 -0.828 -40.014 -8.897 -40.014 C -9.215 -39.097 -9.532 -38.18 -9.849 -37.263 C -2.052 -34.275 5.745 -31.287 13.542 -28.299 C 13.183 -27.324 12.824 -26.348 12.466 -25.372 C 4.534 -28.361 -3.398 -31.351 -11.33 -34.34 C -11.908 -33.756 -12.485 -33.171 -13.063 -32.587 C -6.963 -27.037 -0.864 -21.487 5.236 -15.938 C 4.617 -15.233 3.999 -14.528 3.381 -13.823 C -2.85 -19.155 -9.081 -24.486 -15.311 -29.818 C -16.22 -29.15 -17.13 -28.483 -18.039 -27.815 C -13.179 -20.263 -8.32 -12.711 -3.46 -5.159 C -4.204 -4.596 -4.948 -4.032 -5.691 -3.469 C -8.193 -6.783 -10.808 -10.019 -13.167 -13.431 C -15.715 -17.117 -18.025 -20.968 -20.439 -24.747 C -21.563 -24.325 -22.688 -23.902 -23.812 -23.48 C -20.829 -13.202 -17.845 -2.924 -14.862 7.354 C -16.101 7.605 -17.339 7.857 -18.578 8.108 C -21.262 -1.828 -23.945 -11.763 -26.628 -21.698 C -27.452 -21.728 -28.275 -21.759 -29.098 -21.789 C -32.014 -11.949 -34.929 -2.11 -37.845 7.73 C -39.069 7.437 -40.293 7.144 -41.517 6.851 C -38.307 -3.288 -35.098 -13.428 -31.889 -23.568 C -32.936 -23.954 -33.982 -24.34 -35.029 -24.727 C -39.822 -17.469 -44.616 -10.211 -49.41 -2.953 L -52.113 -4.504 C -47.191 -12.285 -42.268 -20.066 -37.346 -27.847 C -38.123 -28.482 -38.9 -29.117 -39.677 -29.752 C -45.905 -24.385 -52.132 -19.018 -58.36 -13.652 C -56.366 -24.076 -37.77 -24.862 -45.538 -40.511 C -52.091 -40.511 -58.641 -40.677 -65.179 -40.471 C -74.233 -40.184 -78.214 -44.886 -78.607 -53.397 C -79.09 -63.843 -75.296 -72.549 -66.852 -78.637 C -60.272 -83.381 -52.832 -83.697 -45.499 -79.853 C -36.391 -75.079 -34.093 -62.584 -41.413 -57.257 C -42.655 -56.354 -44.674 -56.515 -47.098 -56.728 C -42.751 -60.605 -37.866 -64.432 -43.997 -69.624 C -49.99 -74.7 -55.458 -72.318 -60.583 -67.366 C -62.46 -65.553 -65.344 -64.795 -67.724 -63.477 C -73.862 -60.081 -76.24 -55.541 -73.348 -50.714 C -67.313 -50.094 -62.187 -50.891 -58.575 -48.923 C -50.776 -44.675 -43.921 -43.764 -36.984 -49.941 C -30.131 -56.044 -27.855 -65.557 -31.245 -73.904 C -38.652 -92.141 -63.626 -94.995 -77.243 -79.031 C -80.056 -75.734 -82.176 -71.849 -84.191 -68.864 C -89.784 -71.579 -95.246 -76.307 -100.736 -76.339 C -106.829 -76.373 -114.431 -73.549 -118.568 -69.268 C -121.674 -66.053 -122.317 -57.706 -120.363 -53.259 C -118.78 -49.655 -111.709 -46.676 -107.052 -46.647 C -101.524 -46.612 -98.105 -52.122 -100.591 -57.559 C -101.743 -60.078 -106.712 -60.86 -111.669 -63.264 C -111.39 -63.695 -110.061 -67.861 -108.296 -68.054 C -104.031 -68.52 -97.769 -68.703 -95.539 -66.171 C -90.564 -60.524 -87.561 -53.148 -83.598 -46.204 C -92.437 -43.679 -93.696 -29.22 -86.57 -27.262 C -83.319 -26.369 -79.617 -27.111 -76.12 -27.111 C -75.939 -26.258 -75.757 -25.406 -75.576 -24.553 C -78.004 -23.262 -80.431 -21.971 -83.465 -20.357 C -80.635 -12.628 -76.274 -7.848 -68.248 -10.822 C -67.913 -7.028 -68.734 -2.875 -67.026 -0.691 C -65.251 1.581 -61.03 1.95 -57.101 3.448 C -56.638 5.29 -56.675 9.747 -54.495 12.37 C -52.714 14.514 -48.286 14.468 -46.717 14.914 C -41.969 21.663 -37.923 28.211 -32.935 33.943 C -31.693 35.371 -26.254 35.38 -24.74 33.945 C -20.266 29.704 -13.309 26.585 -14.981 18.171 C -15.211 17.014 -12.58 14.087 -11.145 13.996 C 0.543 13.258 1.609 12.215 0 0" style="fill: rgb(186, 109, 41); fill-opacity: 1;"/>
      </g>
    </g>
    <g style="clip-path: url(&quot;#clippath3&quot;);">
      <g transform="translate(248.7433 269.812)">
        <path d="M 0 0 C -4.39 -1.581 -8.835 -3.03 -13.141 -4.814 C -14.691 -5.457 -17.26 -7.322 -17.074 -7.927 C -13.268 -20.28 -21.452 -19.833 -27.891 -19.731 C -29.826 -24.689 -31.584 -29.194 -33.423 -33.908 C -37.584 -31.892 -40.044 -30.701 -44.996 -28.301 C -40.076 -38.466 -43.064 -43.862 -51.258 -47.81 C -52.427 -44.871 -53.57 -41.996 -55.56 -36.988 C -61.593 -45.609 -55.836 -62.548 -73.603 -59.398 C -73.236 -56.234 -72.832 -52.75 -72.136 -46.754 C -80.08 -51.061 -86.893 -53.915 -92.695 -58.145 C -98.175 -62.14 -100.048 -68.323 -96.625 -74.8 C -95.865 -76.238 -93.201 -76.676 -91.414 -77.575 C -91.117 -76.02 -91.064 -74.364 -90.47 -72.932 C -89.466 -70.508 -87.921 -66.166 -86.953 -66.259 C -83.689 -66.572 -79.295 -67.6 -77.667 -69.957 C -73.861 -75.473 -76.448 -80.855 -81.174 -84.815 C -86.913 -89.624 -93.187 -89.86 -99.274 -85.336 C -107.328 -79.35 -108.787 -67.438 -102.582 -58.311 C -100.867 -55.788 -98.652 -53.603 -96.073 -50.563 C -107.32 -46.38 -116.821 -40.715 -120.354 -28.755 C -123.376 -18.526 -121.493 -9.74 -113.439 -2.291 C -106.788 3.86 -99.366 5.628 -90.899 2.696 C -79.617 -1.21 -75.944 -11.434 -81.033 -22.261 C -82.809 -26.04 -82.7 -30.701 -83.451 -34.959 C -82.621 -35.326 -81.791 -35.693 -80.96 -36.06 C -81.757 -36.548 -82.69 -37.588 -83.328 -37.432 C -87.466 -36.416 -94.536 -35.932 -95.102 -33.806 C -97.213 -25.875 -109.203 -21.194 -103.15 -10.811 C -99.97 -5.354 -95.75 -5.965 -89.595 -12.127 C -89.896 -9.872 -89.394 -6.591 -90.678 -5.591 C -92.892 -3.865 -96.323 -2.543 -99.057 -2.829 C -112.296 -4.211 -118.997 -21.935 -110.648 -32.807 C -102.771 -43.066 -85.803 -46.71 -74.965 -40.011 C -73.157 -38.893 -71.83 -35.561 -71.823 -33.247 C -71.797 -25.36 -72.46 -17.47 -72.86 -9.581 C -71.965 -9.315 -71.07 -9.049 -70.175 -8.783 C -66.979 -16.733 -63.783 -24.683 -59.587 -35.12 C -55.136 -22.202 -66.695 -15.819 -64.919 -5.56 C -59.435 -12.163 -53.952 -18.766 -48.468 -25.368 C -47.466 -24.56 -46.465 -23.752 -45.463 -22.943 C -51.138 -16.51 -56.814 -10.077 -62.49 -3.644 C -61.881 -2.836 -61.273 -2.028 -60.665 -1.221 C -52.514 -6.372 -44.363 -11.523 -36.213 -16.674 C -35.519 -15.57 -34.825 -14.466 -34.131 -13.362 C -42.201 -8.6 -50.271 -3.839 -58.34 0.922 C -58.062 1.928 -57.783 2.934 -57.504 3.94 C -46.141 0.986 -34.777 -1.967 -23.414 -4.921 C -23.177 -3.724 -22.94 -2.528 -22.703 -1.331 C -31.076 0.626 -39.567 2.205 -47.755 4.751 C -50.508 5.608 -52.492 8.924 -54.828 11.117 C -44.289 12.879 -33.75 14.641 -21.206 16.738 C -28.028 20.857 -36.461 18.977 -54.871 11.172 C -58.906 13.795 -59.154 16.029 -54.548 18.493 C -48.399 21.784 -42.449 25.445 -36.414 28.947 C -36.951 29.853 -37.488 30.759 -38.025 31.665 C -42.526 28.86 -47.264 26.367 -51.471 23.177 C -57.598 18.534 -62.983 17.049 -67.549 24.672 C -64.742 32.072 -61.963 39.401 -59.183 46.73 C -60.228 47.093 -61.272 47.456 -62.316 47.818 C -64.994 40.577 -67.672 33.336 -70.349 26.094 C -71.614 26.243 -72.879 26.392 -74.144 26.54 C -74.144 33.366 -74.36 40.2 -74.082 47.015 C -73.811 53.664 -77.227 56.422 -83.287 57.739 C -92.911 59.831 -101.655 58.384 -108.408 51.153 C -114.084 45.074 -115.811 37.494 -112.957 29.336 C -110.345 21.871 -102.208 17.364 -94.986 19.293 C -89.481 20.764 -88.627 23.439 -92.297 29.85 C -93.527 27.084 -94.544 24.797 -96.557 20.269 C -100.259 24.154 -104.542 26.672 -105.213 29.93 C -105.833 32.938 -102.714 36.809 -100.988 40.17 C -99.795 42.493 -97.755 44.434 -96.822 46.829 C -94.823 51.962 -91.903 54.739 -86.172 52.674 C -85.268 48.838 -85.088 44.735 -83.366 41.433 C -79.209 33.458 -75.846 24.619 -83.211 18.162 C -87.847 14.098 -96.398 12.052 -102.704 12.867 C -112.538 14.139 -119.476 21.063 -121.07 31.632 C -123.26 46.153 -116.121 57.567 -100.72 64.6 C -103.464 69.258 -107.06 73.623 -108.786 78.63 C -112.889 90.537 -105.304 101.935 -93.67 102.42 C -85.213 102.772 -77.63 94.167 -81.195 87.113 C -82.761 84.014 -88.219 82.872 -91.911 80.842 C -93.299 83.863 -94.688 86.883 -96.077 89.904 C -95.455 90.535 -94.834 91.166 -94.213 91.797 C -100.016 94.825 -102.163 90.372 -103.169 85.813 C -105.267 76.299 -94.858 67.656 -78.184 65.093 C -78.512 68.19 -78.821 71.108 -79.134 74.07 C -67.179 74.092 -66.522 73.463 -58.833 54.308 C -57.042 57.479 -55.664 59.92 -53.99 62.885 C -46.55 59.764 -41.228 55.635 -44.481 47.149 C -40.899 47.149 -36.643 48.406 -34.934 46.861 C -32.236 44.421 -31.247 40.101 -29.215 35.917 C -20.627 37.595 -14.772 32.102 -17.74 22.037 C -5.871 22.201 1.826 16.5 5.304 5.3 C 3.536 3.533 1.768 1.767 0 0" style="fill: rgb(186, 109, 41); fill-opacity: 1;"/>
      </g>
    </g>
    <g style="clip-path: url(&quot;#clippath3&quot;);">
      <g transform="translate(366.4134 262.4533)">
        <path d="M 0 0 C 5.485 0.801 9.986 2.924 12.258 1.502 C 18.013 -2.098 17.677 -7.726 13.82 -13.124 C 11.246 -16.726 8.694 -20.347 6.262 -24.046 C 2.292 -30.084 -2.447 -30.012 -5.165 -28.354 C -5.81 -21.139 -5.232 -16.328 -6.793 -12.352 C -10.704 -2.388 -9.668 5.98 -2.631 11.487 C 5.181 17.6 16.091 16.988 24.182 9.984 C 36.273 -0.484 36.794 -20.057 24.935 -30.792 C 21.281 -34.099 16.731 -36.422 12.796 -39.058 C 15.443 -44.763 19.208 -50.519 20.754 -56.816 C 22.627 -64.44 19.453 -71.943 12.131 -74.743 C 7.673 -76.446 0.868 -75.451 -3.407 -73.052 C -6.389 -71.378 -8.504 -65.011 -7.904 -61.23 C -7.491 -58.624 -1.772 -56.855 1.576 -54.712 C 3.403 -57.971 5.23 -61.23 8.178 -66.489 C 9.346 -65.208 12.702 -63.181 13.374 -60.488 C 15.691 -51.198 6.007 -42.68 -11.16 -38.697 C -10.755 -42.103 -10.381 -45.254 -9.76 -50.472 C -16.138 -48.123 -22.493 -47.486 -25.93 -43.992 C -28.81 -41.065 -28.284 -34.803 -31.34 -29.964 C -32.526 -32.83 -33.712 -35.697 -34.929 -38.639 C -45.994 -32.33 -45.994 -32.33 -45.099 -20.043 C -47.459 -21.671 -49.351 -22.976 -52.899 -25.423 C -55.311 -20.594 -57.561 -16.089 -60.032 -11.14 C -68.201 -12.775 -69.781 -11.255 -70.962 0.564 C -71.099 1.933 -73.647 4.397 -74.438 4.167 C -86.112 0.77 -88.571 11.882 -98.367 17.723 C -88.799 23.848 -81.243 28.684 -73.104 33.894 C -74.966 42.599 -70.247 47.315 -60.541 45.12 C -59.112 50.094 -57.67 55.117 -55.696 61.988 C -51.562 58.428 -49.624 56.759 -47.687 55.091 C -47.775 63.345 -48.319 71.216 -37.502 73.797 C -36.505 71.286 -35.421 68.554 -33.492 63.696 C -27.491 71.969 -32.971 88.314 -15.784 85.263 C -16.062 82.336 -16.391 78.862 -17.061 71.788 C -7.82 78.71 0.56 83.12 6.282 89.796 C 12.028 96.501 7.705 103.685 0.429 103.839 L 0.429 94.341 C -3.27 94.532 -8.441 93.33 -10.29 95.273 C -12.53 97.625 -13.564 103.308 -12.281 106.364 C -9.372 113.296 -3.123 115.522 4.175 112.748 C 12.379 109.63 17.581 99.381 14.456 91.113 C 12.546 86.058 8.933 81.643 6.084 76.941 C 25.199 69.44 32.405 60.386 31.53 44.841 C 30.985 35.139 26.057 28.356 17.217 24.533 C 9.92 21.378 2.826 22.356 -2.965 27.69 C -9.978 34.15 -10.26 42.358 -7.824 51.097 C -6.621 55.414 -6.185 59.944 -5.034 66.46 C -1.605 64.881 4.634 62.848 4.474 61.952 C 2.607 51.491 20.267 49.337 14.507 38.03 C 13.437 35.931 9.827 33.366 8.094 33.802 C 5.966 34.338 4.579 37.801 1.77 41.417 C 1.018 38.483 -0.548 35.748 0.224 34.654 C 1.656 32.623 4.297 30.671 6.712 30.242 C 14.401 28.878 20.099 32.024 23.475 39.212 C 27.138 47.013 25.91 57.739 19.234 62.386 C 14.018 66.017 7.534 69.535 1.435 69.869 C -14.045 70.717 -20.086 67.186 -18.061 51.913 C -17.341 46.48 -17.105 40.983 -16.648 35.515 C -17.551 35.177 -18.454 34.84 -19.356 34.502 C -21.06 38.36 -22.929 42.156 -24.422 46.094 C -26.016 50.3 -27.256 54.639 -30.176 58.417 C -31.494 49.23 -25.664 42.257 -22.214 34.38 C -26.349 27.239 -31.545 27.775 -37.516 32.134 C -42.143 35.511 -46.95 38.644 -51.677 41.886 C -52.407 40.865 -53.137 39.843 -53.867 38.822 L -32.115 24.967 C -32.406 24.042 -32.696 23.117 -32.987 22.191 C -43.673 24.871 -54.36 27.551 -65.046 30.23 C -65.314 28.88 -65.582 27.529 -65.85 26.179 C -55.594 23.765 -45.338 21.351 -35.082 18.938 C -35.053 18.134 -35.025 17.33 -34.997 16.527 C -45.149 13.735 -55.301 10.944 -65.454 8.153 C -65.174 6.963 -64.894 5.774 -64.614 4.584 C -54.19 7.657 -43.765 10.729 -33.341 13.801 C -32.975 12.86 -32.609 11.918 -32.242 10.977 C -39.314 5.969 -46.385 0.962 -53.456 -4.046 C -52.923 -4.844 -52.391 -5.641 -51.858 -6.439 C -44.212 -1.385 -36.565 3.67 -28.918 8.725 C -28.182 7.782 -27.446 6.839 -26.71 5.896 C -31.85 -0.405 -36.991 -6.706 -42.131 -13.008 C -41.482 -13.595 -40.833 -14.182 -40.184 -14.769 C -35.098 -8.669 -30.013 -2.569 -25.335 3.041 C -13.97 1.542 -16.055 -6.272 -15.615 -13.402 C -15.222 -19.781 -17.757 -27.857 -8.929 -31.166 C 2.219 -35.344 12.071 -32.307 20.815 -25.046 C 27.839 -19.214 28.897 -10.983 25.14 -3.743 C 22.597 1.156 16.967 5.811 11.704 7.592 C 5.916 9.551 0.785 6.079 0 0" style="fill: rgb(186, 109, 41); fill-opacity: 1;"/>
      </g>
    </g>
    <g style="clip-path: url(&quot;#clippath3&quot;);">
      <g transform="translate(259.8524 286.5213)">
        <path d="M 0 0 C -3.064 6.903 -13.782 9.751 -10.717 20.108 C -10.548 20.676 -13.881 23.291 -15.483 23.199 C -25.437 22.627 -28.54 26.023 -26.483 34.634 C -31.229 36.026 -36.018 37.43 -42.161 39.232 C -39.303 43.495 -37.873 45.627 -34.564 50.562 C -45.998 45.844 -52.581 48.567 -56.237 58.207 C -53.263 59.436 -50.319 60.652 -44.202 63.179 C -55.952 65.882 -69.707 63.365 -67.042 80.009 C -63.453 79.508 -59.912 79.013 -53.49 78.117 C -59.325 86.707 -63.135 94.278 -68.869 99.895 C -71.579 102.549 -78.047 102.16 -82.661 101.686 C -84.283 101.519 -85.454 96.983 -86.633 94.807 C -81.587 94.807 -77.966 95.403 -74.852 94.412 C -74.015 94.145 -73.599 87.405 -74.938 86.498 C -78.37 84.174 -83.567 81.511 -86.806 82.621 C -90.393 83.85 -94.439 88.896 -94.895 92.685 C -95.401 96.89 -93.169 102.555 -90.18 105.797 C -84.752 111.684 -73.721 111.724 -66.62 107.326 C -64.278 105.875 -61.995 104.327 -61.364 103.916 C -54.27 110.695 -48.67 118.031 -41.329 122.552 C -32.417 128.041 -22.555 126.126 -14.003 119.841 C -6.792 114.541 -3.746 107.421 -5.244 98.526 C -6.824 89.145 -15.115 82.908 -24.282 84.635 C -30.847 85.873 -37.343 87.594 -43.732 89.549 C -45.059 89.955 -46.892 92.7 -46.554 93.745 C -45.759 96.205 -44.258 98.939 -42.208 100.393 C -37.856 103.482 -33.234 106.926 -28.22 108.114 C -24.51 108.993 -20.007 106.539 -15.857 105.569 C -17.203 102.144 -18.548 98.719 -20.115 94.732 C -15.981 91.762 -12.708 93.125 -11.717 100.117 C -9.94 112.655 -23.971 122.099 -37.084 117.19 C -51.145 111.925 -57.089 91.9 -47.78 80.111 C -46.345 78.294 -42.985 77.237 -40.477 77.163 C -33.921 76.971 -27.334 77.774 -20.78 77.561 C -19.433 77.517 -18.175 74.778 -16.876 73.281 C -24.651 70.985 -32.424 68.689 -40.197 66.392 C -39.903 65.554 -39.609 64.716 -39.314 63.878 C -30.898 64.345 -23.488 67.61 -16.988 73.412 C -9.537 69.456 -7.619 64.496 -13.326 57.31 C -17.031 52.643 -19.971 47.372 -23.254 42.372 C -22.372 41.807 -21.489 41.242 -20.606 40.677 L -6.633 63.366 C -5.555 63.015 -4.477 62.664 -3.399 62.312 C -4.819 56.429 -6.495 50.592 -7.583 44.648 C -8.57 39.249 -14.512 33.827 -6.988 28.033 C -4.878 38.709 -2.769 49.385 -0.659 60.061 C 0.372 60.071 1.403 60.08 2.434 60.09 C 5.242 49.904 8.049 39.718 10.857 29.532 C 12.065 29.833 13.274 30.134 14.482 30.435 C 11.37 40.664 8.258 50.894 5.146 61.124 C 5.894 61.525 6.642 61.926 7.39 62.328 C 12.583 55.413 17.777 48.498 22.971 41.584 C 23.772 42.139 24.573 42.695 25.373 43.251 C 20.423 50.489 15.473 57.726 10.522 64.964 C 11.235 65.686 11.947 66.409 12.66 67.132 C 19.046 62.035 25.433 56.938 31.819 51.841 C 32.399 52.509 32.978 53.176 33.557 53.844 C 27.432 59.282 21.307 64.72 15.182 70.158 C 15.658 70.885 16.133 71.612 16.609 72.34 C 24.614 69.467 32.619 66.594 40.624 63.721 C 40.997 64.737 41.369 65.752 41.741 66.767 C 34.015 69.56 26.289 72.353 18.563 75.146 C 18.73 76.027 18.897 76.907 19.063 77.788 C 24.391 77.788 29.731 77.564 35.045 77.831 C 49.27 78.547 54.237 84.683 52.392 98.903 C 50.827 110.96 37.966 120.929 26.042 119.326 C 17.023 118.114 9.845 109.732 11.888 101.611 C 12.669 98.509 16.242 96.105 18.012 94.011 C 17.627 99.295 15.606 104.506 17.396 107.067 C 21.289 112.635 26.895 111.674 31.889 107.037 C 34.027 105.052 36.56 103.158 39.261 102.175 C 45.404 99.939 47.193 95.875 46.359 90.699 C 41.277 89.806 36.514 90.02 32.838 88.13 C 21.476 82.288 14.532 82.648 8.739 90.579 C 2.684 98.867 3.847 111.963 11.257 118.944 C 23.059 130.062 44.848 126.734 53.961 112.347 C 55.774 109.484 57.221 106.389 58.878 103.326 C 72.187 116.142 83.754 117.158 92.845 106.549 C 98.475 99.978 97.129 90.806 89.861 86.214 C 84.293 82.698 76.723 84.68 75.101 90.68 C 74.41 93.237 75.067 97.452 76.814 98.991 C 78.438 100.422 82.326 99.297 88.114 99.297 C 84.487 102.385 82.257 105.805 79.417 106.421 C 70.478 108.359 63.342 99.787 58.535 81.849 C 61.697 82.149 64.584 82.424 67.467 82.698 C 68.772 71.153 67.566 69.864 48.891 63.324 C 51.702 61.348 54 59.731 56.677 57.848 C 53.346 50.778 49.486 45.326 38.154 51.336 C 40.915 46.746 42.174 44.654 44.298 41.123 C 40.124 38.651 36.105 36.271 31.392 33.48 C 29.898 30.708 27.897 25.925 24.813 21.984 C 23.978 20.916 19.869 22.397 15.885 22.872 C 15.927 12.095 11.359 3.495 -0.135 0.127 C -0.134 0.127 0 0 0 0" style="fill: rgb(186, 109, 41); fill-opacity: 1;"/>
      </g>
    </g>
    <g style="clip-path: url(&quot;#clippath3&quot;);">
      <g transform="translate(248.7433 269.812)">
        <path d="M 0 0 C 1.768 1.767 3.536 3.533 5.304 5.3 C 5.825 7.392 7.474 10.68 6.703 11.404 C -15.163 31.938 -37.135 52.367 -59.477 72.383 C -63.266 75.779 -68.814 77.221 -74.014 79.795 L -74.014 92.127 C -70.071 92.791 -65.934 93.487 -61.918 94.163 C -44.01 61.876 -15.199 40.47 11.11 16.71 C 11.109 16.709 10.975 16.836 10.974 16.836 C 13.091 16.713 16.205 15.618 17.178 16.611 C 37.111 36.958 56.842 57.503 76.467 78.147 C 78.335 80.112 79.987 82.86 80.451 85.472 C 82.213 95.396 87.719 98.497 97.7 95.146 C 99.069 87.695 99.114 80.942 88.789 78.84 C 86.249 78.322 83.77 76.194 81.831 74.243 C 60.68 52.964 39.642 31.572 17.774 9.402 C 25.217 2.197 31.855 -4.286 38.557 -10.702 C 50.773 -22.399 62.797 -34.311 75.372 -45.611 C 80.879 -50.559 87.005 -55.96 93.81 -58.067 C 104.048 -61.237 106.767 -66.304 102.966 -76.195 C 94.631 -78.747 88.678 -77.028 85.729 -67.354 C 84.518 -63.379 81.543 -59.558 78.473 -56.59 C 58.896 -37.659 39.081 -18.972 19.297 -0.254 C 17.753 1.208 15.857 2.299 15.021 2.909 C 0.595 -10.829 -13.68 -23.899 -27.331 -37.588 C -38.292 -48.579 -50.451 -58.671 -55.391 -74.628 C -56.156 -77.099 -64.159 -77.342 -69.447 -78.788 C -70.237 -73.301 -70.802 -69.377 -71.393 -65.267 C -42.136 -49.394 -21.672 -24.043 0 0" style="fill: rgb(186, 109, 41); fill-opacity: 1;"/>
      </g>
    </g>
    <g style="clip-path: url(&quot;#clippath3&quot;);">
      <g transform="translate(260.1143 384.6194)">
        <path d="M 0 0 C 3.098 -4.998 5.888 -10.057 9.216 -14.735 C 14.069 -21.555 8.022 -25.071 4.75 -28.943 C 3.47 -30.458 -2.1 -30.956 -2.658 -30.047 C -5.354 -25.662 -9.125 -20.341 -8.497 -15.919 C -7.704 -10.337 -3.023 -5.305 0 0" style="fill: rgb(186, 109, 41); fill-opacity: 1;"/>
      </g>
    </g>
    <g style="clip-path: url(&quot;#clippath3&quot;);">
      <g transform="translate(370.4261 280.7946)">
        <path d="M 0 0 C -4.997 -2.893 -9.719 -4.491 -12.817 -7.666 C -18.49 -13.479 -23.155 -10.558 -27.225 -6.663 C -29.396 -4.585 -31.41 1.575 -30.759 2.034 C -26.366 5.133 -21.002 9.485 -16.414 9.008 C -10.922 8.438 -5.891 3.458 0 0" style="fill: rgb(186, 109, 41); fill-opacity: 1;"/>
      </g>
    </g>
    <g style="clip-path: url(&quot;#clippath3&quot;);">
      <g transform="translate(175.562 266.6714)">
        <path d="M 0 0 C -8.143 4.44 -14.563 7.941 -20.83 11.358 C -15.439 14.27 -9.93 18.806 -3.766 20.013 C 0.176 20.785 5.497 17.181 9.291 14.334 C 10.312 13.568 8.762 7.883 7.034 5.395 C 5.217 2.778 1.772 1.286 0 0" style="fill: rgb(186, 109, 41); fill-opacity: 1;"/>
      </g>
    </g>
    <g style="clip-path: url(&quot;#clippath3&quot;);">
      <g transform="translate(126.3269 264.9846)">
        <path d="M 0 0 C -3.683 5.018 -9.282 9.305 -9.283 13.593 C -9.283 17.841 -3.638 22.089 0.062 27.05 C 4.83 21.423 8.167 17.483 11.835 13.154 C 8.681 9.649 5.266 5.853 0 0" style="fill: rgb(186, 109, 41); fill-opacity: 1;"/>
      </g>
    </g>
  </g>
</svg>