<?xml version="1.0" encoding="utf-8"?>
<svg xmlns="http://www.w3.org/2000/svg" width="934px" height="73px" viewBox="0 0 934 73">
  <defs>
    <clipPath id="clippath2" transform="">
      <path d="M 0 0 L 943.416 0 L 943.416 86.132 L 0 86.132 Z" style="fill: none; clip-rule: nonzero;"/>
    </clipPath>
    <clipPath id="clippath3" transform="">
      <path d="M 0 855.261 L 945 855.261 L 945 0 L 0 0 Z" style="fill: none; clip-rule: nonzero;"/>
    </clipPath>
  </defs>
  <g transform="matrix(1, 0, 0, -1, -9.167969, 73.132004)">
    <g transform="">
      <path d="M 0 57.667 L 943.416 57.667 L 943.416 73.114 L 0 73.114 Z" style="fill: rgb(214, 206, 196); fill-opacity: 1;"/>
      <path d="M 0 0 L 943.416 0 L 943.416 86.132 L 0 86.132 Z" style="fill: none;"/>
    </g>
    <g style="clip-path: url(&quot;#clippath2&quot;);">
      <g transform="translate(1028.1479 57.6674)">
        <path d="M 0 0 C -356.66 0.267 -713.32 0.533 -1069.98 0.8 C -1057.042 -23.412 -1044.104 -47.626 -1031.166 -71.838 L 0 -71.838 Z" style="fill: rgb(238, 230, 217); fill-opacity: 1;"/>
      </g>
    </g>
    <g style="clip-path: url(&quot;#clippath2&quot;);">
      <g transform="">
        <path d="M 1092.679 48.501 L -1.502 48.501 L -1.502 54.408 L 1092.679 54.408 Z" style="fill: rgb(214, 206, 196); fill-opacity: 1;"/>
      </g>
    </g>
    <g style="clip-path: url(&quot;#clippath3&quot;);">
      <g transform="translate(370.8589 24.2838)">
        <path d="M 0 0 C 0.25 0.019 0.5 0.038 0.75 0.057 C 1.408 3.288 2.066 6.519 2.658 9.424 C 1.554 8.52 0.377 7.556 -1.046 6.391 C -0.747 4.563 -0.374 2.281 0 0 M 11.782 -4.877 C 10.802 -4.329 9.822 -3.78 8.508 -3.045 C 7.453 -4.395 6.223 -5.968 4.994 -7.541 C 5.246 -7.863 5.499 -8.185 5.751 -8.508 C 7.753 -7.287 9.754 -6.067 11.756 -4.847 C 15.161 -4.494 18.567 -4.141 21.973 -3.788 C 18.479 -3.351 15.021 -3.196 11.782 -4.877 M -1.06 -3.425 C -1.049 3.857 -2.981 10.6 -7.036 17.105 L -3.336 17.105 C -2.924 18.005 -2.504 18.92 -1.944 20.141 C -1.019 19.129 -0.277 18.317 0.578 17.381 C 1.331 18.186 2.03 18.934 2.941 19.908 C 3.396 18.921 3.775 18.098 4.194 17.188 L 6.758 17.188 C 4.949 11.095 3.145 5.021 1.342 -1.054 C 1.657 -1.158 1.973 -1.263 2.288 -1.367 C 4.497 4.955 6.523 11.37 10.68 16.452 C 12.029 15.603 13.084 14.938 14.695 13.924 C 14.686 13.966 14.839 13.246 14.992 12.526 C 15.184 12.716 15.376 12.905 15.568 13.095 C 17.45 11.418 19.333 9.741 21.23 8.052 C 18.069 6.702 14.929 5.899 12.453 4.153 C 9.946 2.386 8.098 -0.313 6.228 -2.944 C 11.342 1.004 16.757 3.954 23.321 4.402 C 23.558 0.641 25.818 -2.609 24.908 -6.538 C 18.587 -3.997 12.75 -5.029 7.288 -8.983 C 5.689 -10.141 3.739 -9.085 3.135 -6.608 C 2.586 -4.359 1.384 -3.537 -0.798 -3.885 C -0.889 -3.733 -0.976 -3.58 -1.06 -3.425" style="fill: rgb(214, 206, 196); fill-opacity: 1;"/>
      </g>
    </g>
    <g style="clip-path: url(&quot;#clippath3&quot;);">
      <g transform="translate(350.2934 19.3894)">
        <path d="M 0 0 C 3.924 -0.581 7.616 -1.161 11.32 -1.653 C 12.274 -1.78 13.271 -1.673 14.229 -1.537 C 14.322 -1.524 14.51 -0.307 14.256 -0.064 C 13.486 0.671 12.547 1.667 11.627 1.718 C 9.451 1.838 7.251 1.388 5.057 1.33 C 3.607 1.291 2.15 1.533 0.298 1.681 C 0.224 1.262 0.068 0.382 0 0 M -0.63 6.387 C -0.96 6.854 -1.291 7.321 -1.622 7.789 C -0.856 8.086 -0.066 8.687 0.673 8.63 C 5.406 8.265 9.671 6.711 13.067 3.229 C 13.465 2.821 13.823 2.375 14.312 1.82 C 13.145 5.523 12.165 6.332 2.237 11.934 C 3.023 13.088 3.817 14.255 4.612 15.423 C 4.515 15.479 4.418 15.535 4.322 15.591 C 6.391 17.362 8.46 19.133 11.126 21.415 C 12.608 19.075 14.494 16.886 15.491 14.348 C 17.132 10.173 18.197 5.773 19.505 1.468 C 19.589 1.314 19.676 1.161 19.768 1.01 C 19.313 -0.237 18.838 -1.477 18.408 -2.732 C 17.764 -4.61 15.65 -5.653 14.16 -4.579 C 8.985 -0.846 3.536 -0.793 -2.167 -3.057 C -2.315 -3.116 -2.52 -3.031 -2.715 -3.012 L -2.715 1.533 C -2.694 1.552 -2.142 2.056 -1.574 2.575 C -1.944 3.204 -2.275 3.766 -2.709 4.505 C -1.995 5.145 -1.308 5.761 -0.621 6.376 C 0.203 6.527 1.666 6.972 1.753 6.783 C 2.869 4.36 4.646 6.563 5.965 6.137 C 3.802 6.734 1.68 8.562 -0.63 6.387" style="fill: rgb(214, 206, 196); fill-opacity: 1;"/>
      </g>
    </g>
    <g style="clip-path: url(&quot;#clippath3&quot;);">
      <g transform="translate(394.7401 11.0458)">
        <path d="M 0 0 C 0.987 -1.683 1.992 -2.999 2.569 -4.482 C 3.346 -6.476 2.313 -7.743 0.346 -6.982 C -1.709 -6.187 -3.744 -4.925 -5.309 -3.382 C -7.274 -1.446 -8.983 0.323 -12.068 0.392 C -13.482 0.423 -14.868 1.699 -16.721 2.642 C -13.115 5.755 -9.396 6.107 -5.559 5.98 C -4.611 5.948 -3.668 5.661 -2.73 5.458 C 1.894 4.459 2.159 3.899 0 0" style="fill: rgb(214, 206, 196); fill-opacity: 1;"/>
      </g>
    </g>
    <g style="clip-path: url(&quot;#clippath3&quot;);">
      <g transform="translate(364.9605 12.9294)">
        <path d="M 0 0 C -2.426 -0.952 -4.295 -1.446 -5.908 -2.382 C -7.743 -3.445 -9.369 -4.877 -11.049 -6.196 C -12.523 -7.352 -13.837 -8.766 -15.444 -9.673 C -16.112 -10.051 -17.594 -9.688 -18.25 -9.128 C -18.65 -8.787 -18.373 -7.351 -18.052 -6.545 C -17.636 -5.499 -16.875 -4.591 -15.908 -3.066 C -16.43 -2.733 -17.152 -2.402 -17.711 -1.891 C -18.93 -0.778 -18.703 0.202 -17.357 1.122 C -13.354 3.858 -5.116 3.67 0 0" style="fill: rgb(214, 206, 196); fill-opacity: 1;"/>
      </g>
    </g>
    <g style="clip-path: url(&quot;#clippath3&quot;);">
      <g transform="translate(373.6962 15.6271)">
        <path d="M 0 0 C -0.816 -1.494 -1.532 -3.758 -2.13 -3.727 C -4.372 -3.613 -4.054 -1.442 -3.855 0.029 C -3.678 1.345 -2.807 2.567 -2.242 3.831 C -1.547 2.643 -0.852 1.456 0 0" style="fill: rgb(214, 206, 196); fill-opacity: 1;"/>
      </g>
    </g>
    <g style="clip-path: url(&quot;#clippath3&quot;);">
      <g transform="translate(155.6916 24.2838)">
        <path d="M 0 0 C 0.25 0.019 0.5 0.038 0.75 0.057 C 1.408 3.288 2.066 6.519 2.658 9.424 C 1.554 8.52 0.377 7.556 -1.046 6.391 C -0.747 4.563 -0.374 2.281 0 0 M 11.782 -4.877 C 10.802 -4.329 9.821 -3.78 8.508 -3.045 C 7.453 -4.395 6.223 -5.968 4.994 -7.541 C 5.246 -7.863 5.499 -8.185 5.751 -8.508 C 7.752 -7.287 9.754 -6.067 11.756 -4.847 C 15.161 -4.494 18.567 -4.141 21.973 -3.788 C 18.479 -3.351 15.021 -3.196 11.782 -4.877 M -1.06 -3.425 C -1.049 3.857 -2.981 10.6 -7.036 17.105 L -3.336 17.105 C -2.924 18.005 -2.504 18.92 -1.944 20.141 C -1.019 19.129 -0.277 18.317 0.578 17.381 C 1.331 18.186 2.03 18.934 2.941 19.908 C 3.396 18.921 3.775 18.098 4.194 17.188 L 6.758 17.188 C 4.949 11.095 3.145 5.021 1.342 -1.054 C 1.657 -1.158 1.973 -1.263 2.288 -1.367 C 4.497 4.955 6.523 11.37 10.68 16.452 C 12.029 15.603 13.084 14.938 14.695 13.924 C 14.686 13.966 14.839 13.246 14.992 12.526 C 15.184 12.716 15.376 12.905 15.568 13.095 C 17.45 11.418 19.333 9.741 21.23 8.052 C 18.069 6.702 14.929 5.899 12.453 4.153 C 9.946 2.386 8.098 -0.313 6.228 -2.944 C 11.342 1.004 16.757 3.954 23.321 4.402 C 23.558 0.641 25.818 -2.609 24.908 -6.538 C 18.587 -3.997 12.75 -5.029 7.288 -8.983 C 5.689 -10.141 3.739 -9.085 3.135 -6.608 C 2.586 -4.359 1.384 -3.537 -0.798 -3.885 C -0.889 -3.733 -0.976 -3.58 -1.06 -3.425" style="fill: rgb(214, 206, 196); fill-opacity: 1;"/>
      </g>
    </g>
    <g style="clip-path: url(&quot;#clippath3&quot;);">
      <g transform="translate(135.1261 19.3894)">
        <path d="M 0 0 C 3.924 -0.581 7.616 -1.161 11.32 -1.653 C 12.274 -1.78 13.271 -1.673 14.229 -1.537 C 14.322 -1.524 14.51 -0.307 14.256 -0.064 C 13.486 0.671 12.547 1.667 11.627 1.718 C 9.451 1.838 7.251 1.388 5.057 1.33 C 3.607 1.291 2.15 1.533 0.298 1.681 C 0.224 1.262 0.068 0.382 0 0 M -0.63 6.387 C -0.96 6.854 -1.291 7.321 -1.622 7.789 C -0.856 8.086 -0.066 8.687 0.673 8.63 C 5.406 8.265 9.671 6.711 13.067 3.229 C 13.465 2.821 13.823 2.375 14.312 1.82 C 13.145 5.523 12.165 6.332 2.237 11.934 C 3.023 13.088 3.817 14.255 4.612 15.423 C 4.515 15.479 4.418 15.535 4.322 15.591 C 6.391 17.362 8.46 19.133 11.126 21.415 C 12.608 19.075 14.494 16.886 15.491 14.348 C 17.132 10.173 18.197 5.773 19.505 1.468 C 19.589 1.314 19.676 1.161 19.768 1.01 C 19.313 -0.237 18.838 -1.477 18.408 -2.732 C 17.764 -4.61 15.65 -5.653 14.16 -4.579 C 8.985 -0.846 3.536 -0.793 -2.167 -3.057 C -2.315 -3.116 -2.52 -3.031 -2.715 -3.012 L -2.715 1.533 C -2.694 1.552 -2.142 2.056 -1.574 2.575 C -1.944 3.204 -2.275 3.766 -2.709 4.505 C -1.995 5.145 -1.308 5.761 -0.621 6.376 C 0.203 6.527 1.666 6.972 1.753 6.783 C 2.869 4.36 4.646 6.563 5.965 6.137 C 3.802 6.734 1.68 8.562 -0.63 6.387" style="fill: rgb(214, 206, 196); fill-opacity: 1;"/>
      </g>
    </g>
    <g style="clip-path: url(&quot;#clippath3&quot;);">
      <g transform="translate(179.5727 11.0458)">
        <path d="M 0 0 C 0.987 -1.683 1.992 -2.999 2.57 -4.482 C 3.346 -6.476 2.313 -7.743 0.346 -6.982 C -1.709 -6.187 -3.744 -4.925 -5.309 -3.382 C -7.274 -1.446 -8.983 0.323 -12.068 0.392 C -13.482 0.423 -14.868 1.699 -16.72 2.642 C -13.115 5.755 -9.396 6.107 -5.559 5.98 C -4.611 5.948 -3.668 5.661 -2.73 5.458 C 1.894 4.459 2.159 3.899 0 0" style="fill: rgb(214, 206, 196); fill-opacity: 1;"/>
      </g>
    </g>
    <g style="clip-path: url(&quot;#clippath3&quot;);">
      <g transform="translate(149.7932 12.9294)">
        <path d="M 0 0 C -2.426 -0.952 -4.295 -1.446 -5.908 -2.382 C -7.743 -3.445 -9.369 -4.877 -11.049 -6.196 C -12.523 -7.352 -13.837 -8.766 -15.444 -9.673 C -16.112 -10.051 -17.594 -9.688 -18.25 -9.128 C -18.65 -8.787 -18.373 -7.351 -18.052 -6.545 C -17.636 -5.499 -16.875 -4.591 -15.908 -3.066 C -16.43 -2.733 -17.152 -2.402 -17.711 -1.891 C -18.93 -0.778 -18.703 0.202 -17.357 1.122 C -13.354 3.858 -5.116 3.67 0 0" style="fill: rgb(214, 206, 196); fill-opacity: 1;"/>
      </g>
    </g>
    <g style="clip-path: url(&quot;#clippath3&quot;);">
      <g transform="translate(158.5289 15.6271)">
        <path d="M 0 0 C -0.816 -1.494 -1.532 -3.758 -2.13 -3.727 C -4.372 -3.613 -4.054 -1.442 -3.855 0.029 C -3.678 1.345 -2.807 2.567 -2.242 3.831 C -1.547 2.643 -0.852 1.456 0 0" style="fill: rgb(214, 206, 196); fill-opacity: 1;"/>
      </g>
    </g>
    <g style="clip-path: url(&quot;#clippath3&quot;);">
      <g transform="translate(582.9988 24.2838)">
        <path d="M 0 0 C 0.25 0.019 0.5 0.038 0.75 0.057 C 1.408 3.288 2.066 6.519 2.658 9.424 C 1.554 8.52 0.377 7.556 -1.046 6.391 C -0.747 4.563 -0.374 2.281 0 0 M 11.782 -4.877 C 10.802 -4.329 9.821 -3.78 8.508 -3.045 C 7.453 -4.395 6.223 -5.968 4.994 -7.541 C 5.246 -7.863 5.499 -8.185 5.751 -8.508 C 7.752 -7.287 9.754 -6.067 11.756 -4.847 C 15.161 -4.494 18.567 -4.141 21.973 -3.788 C 18.479 -3.351 15.021 -3.196 11.782 -4.877 M -1.06 -3.425 C -1.049 3.857 -2.981 10.6 -7.036 17.105 L -3.336 17.105 C -2.924 18.005 -2.504 18.92 -1.945 20.141 C -1.019 19.129 -0.277 18.317 0.578 17.381 C 1.331 18.186 2.03 18.934 2.941 19.908 C 3.396 18.921 3.775 18.098 4.194 17.188 L 6.758 17.188 C 4.949 11.095 3.145 5.021 1.341 -1.054 C 1.657 -1.158 1.973 -1.263 2.288 -1.367 C 4.497 4.955 6.523 11.37 10.68 16.452 C 12.029 15.603 13.084 14.938 14.695 13.924 C 14.686 13.966 14.839 13.246 14.992 12.526 C 15.184 12.716 15.376 12.905 15.568 13.095 C 17.45 11.418 19.333 9.741 21.23 8.052 C 18.069 6.702 14.929 5.899 12.453 4.153 C 9.946 2.386 8.098 -0.313 6.228 -2.944 C 11.342 1.004 16.757 3.954 23.32 4.402 C 23.558 0.641 25.818 -2.609 24.908 -6.538 C 18.587 -3.997 12.75 -5.029 7.288 -8.983 C 5.689 -10.141 3.739 -9.085 3.135 -6.608 C 2.586 -4.359 1.384 -3.537 -0.798 -3.885 C -0.889 -3.733 -0.976 -3.58 -1.06 -3.425" style="fill: rgb(214, 206, 196); fill-opacity: 1;"/>
      </g>
    </g>
    <g style="clip-path: url(&quot;#clippath3&quot;);">
      <g transform="translate(562.4333 19.3894)">
        <path d="M 0 0 C 3.924 -0.581 7.616 -1.161 11.32 -1.653 C 12.274 -1.78 13.271 -1.673 14.229 -1.537 C 14.322 -1.524 14.51 -0.307 14.256 -0.064 C 13.486 0.671 12.547 1.667 11.627 1.718 C 9.451 1.838 7.251 1.388 5.057 1.33 C 3.607 1.291 2.15 1.533 0.298 1.681 C 0.224 1.262 0.068 0.382 0 0 M -0.63 6.387 C -0.96 6.854 -1.291 7.321 -1.622 7.789 C -0.856 8.086 -0.066 8.687 0.673 8.63 C 5.406 8.265 9.671 6.711 13.067 3.229 C 13.465 2.821 13.823 2.375 14.312 1.82 C 13.145 5.523 12.165 6.332 2.237 11.934 C 3.023 13.088 3.817 14.255 4.612 15.423 C 4.515 15.479 4.419 15.535 4.322 15.591 C 6.391 17.362 8.46 19.133 11.126 21.415 C 12.608 19.075 14.494 16.886 15.491 14.348 C 17.132 10.173 18.197 5.773 19.505 1.468 C 19.589 1.314 19.677 1.161 19.768 1.01 C 19.313 -0.237 18.838 -1.477 18.408 -2.732 C 17.764 -4.61 15.65 -5.653 14.16 -4.579 C 8.985 -0.846 3.536 -0.793 -2.167 -3.057 C -2.315 -3.116 -2.52 -3.031 -2.715 -3.012 L -2.715 1.533 C -2.694 1.552 -2.142 2.056 -1.574 2.575 C -1.944 3.204 -2.275 3.766 -2.709 4.505 C -1.995 5.145 -1.308 5.761 -0.621 6.376 C 0.203 6.527 1.666 6.972 1.753 6.783 C 2.869 4.36 4.646 6.563 5.965 6.137 C 3.802 6.734 1.68 8.562 -0.63 6.387" style="fill: rgb(214, 206, 196); fill-opacity: 1;"/>
      </g>
    </g>
    <g style="clip-path: url(&quot;#clippath3&quot;);">
      <g transform="translate(606.8799 11.0458)">
        <path d="M 0 0 C 0.987 -1.683 1.992 -2.999 2.57 -4.482 C 3.346 -6.476 2.313 -7.743 0.346 -6.982 C -1.709 -6.187 -3.744 -4.925 -5.309 -3.382 C -7.274 -1.446 -8.983 0.323 -12.068 0.392 C -13.482 0.423 -14.868 1.699 -16.72 2.642 C -13.115 5.755 -9.396 6.107 -5.559 5.98 C -4.611 5.948 -3.668 5.661 -2.73 5.458 C 1.894 4.459 2.159 3.899 0 0" style="fill: rgb(214, 206, 196); fill-opacity: 1;"/>
      </g>
    </g>
    <g style="clip-path: url(&quot;#clippath3&quot;);">
      <g transform="translate(577.1004 12.9294)">
        <path d="M 0 0 C -2.426 -0.952 -4.295 -1.446 -5.908 -2.382 C -7.743 -3.445 -9.369 -4.877 -11.049 -6.196 C -12.523 -7.352 -13.837 -8.766 -15.444 -9.673 C -16.112 -10.051 -17.594 -9.688 -18.25 -9.128 C -18.65 -8.787 -18.373 -7.351 -18.052 -6.545 C -17.636 -5.499 -16.875 -4.591 -15.908 -3.066 C -16.43 -2.733 -17.152 -2.402 -17.711 -1.891 C -18.93 -0.778 -18.703 0.202 -17.357 1.122 C -13.354 3.858 -5.116 3.67 0 0" style="fill: rgb(214, 206, 196); fill-opacity: 1;"/>
      </g>
    </g>
    <g style="clip-path: url(&quot;#clippath3&quot;);">
      <g transform="translate(585.8361 15.6271)">
        <path d="M 0 0 C -0.816 -1.494 -1.532 -3.758 -2.13 -3.727 C -4.372 -3.613 -4.054 -1.442 -3.855 0.029 C -3.678 1.345 -2.807 2.567 -2.242 3.831 C -1.547 2.643 -0.852 1.456 0 0" style="fill: rgb(214, 206, 196); fill-opacity: 1;"/>
      </g>
    </g>
    <g style="clip-path: url(&quot;#clippath3&quot;);">
      <g transform="translate(798.4247 24.2838)">
        <path d="M 0 0 C 0.25 0.019 0.5 0.038 0.75 0.057 C 1.408 3.288 2.066 6.519 2.658 9.424 C 1.554 8.52 0.377 7.556 -1.046 6.391 C -0.747 4.563 -0.374 2.281 0 0 M 11.782 -4.877 C 10.802 -4.329 9.821 -3.78 8.508 -3.045 C 7.453 -4.395 6.223 -5.968 4.994 -7.541 C 5.246 -7.863 5.499 -8.185 5.751 -8.508 C 7.753 -7.287 9.754 -6.067 11.756 -4.847 C 15.161 -4.494 18.567 -4.141 21.973 -3.788 C 18.479 -3.351 15.021 -3.196 11.782 -4.877 M -1.06 -3.425 C -1.049 3.857 -2.981 10.6 -7.036 17.105 L -3.336 17.105 C -2.924 18.005 -2.504 18.92 -1.945 20.141 C -1.019 19.129 -0.277 18.317 0.578 17.381 C 1.331 18.186 2.03 18.934 2.941 19.908 C 3.396 18.921 3.775 18.098 4.194 17.188 L 6.758 17.188 C 4.949 11.095 3.145 5.021 1.341 -1.054 C 1.657 -1.158 1.973 -1.263 2.288 -1.367 C 4.497 4.955 6.523 11.37 10.68 16.452 C 12.029 15.603 13.084 14.938 14.695 13.924 C 14.686 13.966 14.839 13.246 14.992 12.526 C 15.184 12.716 15.376 12.905 15.568 13.095 C 17.45 11.418 19.333 9.741 21.23 8.052 C 18.069 6.702 14.929 5.899 12.453 4.153 C 9.946 2.386 8.098 -0.313 6.228 -2.944 C 11.342 1.004 16.757 3.954 23.32 4.402 C 23.558 0.641 25.818 -2.609 24.908 -6.538 C 18.587 -3.997 12.75 -5.029 7.288 -8.983 C 5.689 -10.141 3.739 -9.085 3.135 -6.608 C 2.586 -4.359 1.384 -3.537 -0.798 -3.885 C -0.889 -3.733 -0.976 -3.58 -1.06 -3.425" style="fill: rgb(214, 206, 196); fill-opacity: 1;"/>
      </g>
    </g>
    <g style="clip-path: url(&quot;#clippath3&quot;);">
      <g transform="translate(777.8592 19.3894)">
        <path d="M 0 0 C 3.924 -0.581 7.616 -1.161 11.32 -1.653 C 12.274 -1.78 13.271 -1.673 14.229 -1.537 C 14.322 -1.524 14.51 -0.307 14.256 -0.064 C 13.486 0.671 12.547 1.667 11.627 1.718 C 9.451 1.838 7.251 1.388 5.057 1.33 C 3.607 1.291 2.15 1.533 0.298 1.681 C 0.224 1.262 0.068 0.382 0 0 M -0.63 6.387 C -0.96 6.854 -1.291 7.321 -1.622 7.789 C -0.856 8.086 -0.066 8.687 0.673 8.63 C 5.406 8.265 9.671 6.711 13.067 3.229 C 13.465 2.821 13.823 2.375 14.312 1.82 C 13.145 5.523 12.165 6.332 2.237 11.934 C 3.023 13.088 3.817 14.255 4.612 15.423 C 4.515 15.479 4.418 15.535 4.322 15.591 C 6.391 17.362 8.46 19.133 11.126 21.415 C 12.608 19.075 14.494 16.886 15.491 14.348 C 17.132 10.173 18.197 5.773 19.505 1.468 C 19.589 1.314 19.677 1.161 19.768 1.01 C 19.313 -0.237 18.838 -1.477 18.408 -2.732 C 17.764 -4.61 15.649 -5.653 14.16 -4.579 C 8.985 -0.846 3.536 -0.793 -2.167 -3.057 C -2.315 -3.116 -2.52 -3.031 -2.715 -3.012 L -2.715 1.533 C -2.694 1.552 -2.142 2.056 -1.574 2.575 C -1.944 3.204 -2.275 3.766 -2.709 4.505 C -1.995 5.145 -1.308 5.761 -0.621 6.376 C 0.203 6.527 1.666 6.972 1.753 6.783 C 2.869 4.36 4.646 6.563 5.965 6.137 C 3.802 6.734 1.68 8.562 -0.63 6.387" style="fill: rgb(214, 206, 196); fill-opacity: 1;"/>
      </g>
    </g>
    <g style="clip-path: url(&quot;#clippath3&quot;);">
      <g transform="translate(822.3058 11.0458)">
        <path d="M 0 0 C 0.987 -1.683 1.992 -2.999 2.57 -4.482 C 3.346 -6.476 2.313 -7.743 0.346 -6.982 C -1.709 -6.187 -3.744 -4.925 -5.309 -3.382 C -7.274 -1.446 -8.983 0.323 -12.068 0.392 C -13.482 0.423 -14.868 1.699 -16.721 2.642 C -13.115 5.755 -9.396 6.107 -5.559 5.98 C -4.611 5.948 -3.668 5.661 -2.73 5.458 C 1.894 4.459 2.159 3.899 0 0" style="fill: rgb(214, 206, 196); fill-opacity: 1;"/>
      </g>
    </g>
    <g style="clip-path: url(&quot;#clippath3&quot;);">
      <g transform="translate(792.5263 12.9294)">
        <path d="M 0 0 C -2.426 -0.952 -4.295 -1.446 -5.908 -2.382 C -7.743 -3.445 -9.369 -4.877 -11.049 -6.196 C -12.523 -7.352 -13.837 -8.766 -15.444 -9.673 C -16.112 -10.051 -17.594 -9.688 -18.25 -9.128 C -18.65 -8.787 -18.373 -7.351 -18.052 -6.545 C -17.636 -5.499 -16.875 -4.591 -15.908 -3.066 C -16.43 -2.733 -17.152 -2.402 -17.711 -1.891 C -18.93 -0.778 -18.703 0.202 -17.357 1.122 C -13.354 3.858 -5.116 3.67 0 0" style="fill: rgb(214, 206, 196); fill-opacity: 1;"/>
      </g>
    </g>
    <g style="clip-path: url(&quot;#clippath3&quot;);">
      <g transform="translate(801.262 15.6271)">
        <path d="M 0 0 C -0.816 -1.494 -1.532 -3.758 -2.13 -3.727 C -4.372 -3.613 -4.054 -1.442 -3.855 0.029 C -3.678 1.345 -2.807 2.567 -2.242 3.831 C -1.547 2.643 -0.852 1.456 0 0" style="fill: rgb(214, 206, 196); fill-opacity: 1;"/>
      </g>
    </g>
  </g>
</svg>