<?xml version="1.0" encoding="utf-8"?>
<svg xmlns="http://www.w3.org/2000/svg" width="1279px" height="477px" viewBox="0 0 1279 477">
  <defs>
    <clipPath id="clippath0" transform="">
      <path d="M 0 1312.263 L 1372.642 1312.263 L 1372.642 0 L 0 0 Z" style="fill: none; clip-rule: nonzero;"/>
    </clipPath>
  </defs>
  <g class="page-1" transform="matrix(1, 0, 0, -1, -22.243893, 1080.750366)">
    <g transform="">
      <path d="M 0 1312.263 L 1372.642 1312.263 L 1372.642 0 L 0 0 Z" style="fill: none;"/>
    </g>
    <g style="clip-path: url(&quot;#clippath0&quot;);">
      <g transform="translate(212.6639 869.0521)">
        <path d="M 0 0 C -3.424 -20.352 -28.539 -33.092 -56.095 -28.456 C -83.652 -23.82 -103.215 -3.563 -99.791 16.789 C -96.367 37.141 -71.252 49.881 -43.696 45.245 C -16.139 40.609 3.424 20.352 0 0" style="fill: rgb(190, 179, 162); fill-opacity: 1;"/>
      </g>
    </g>
    <g style="clip-path: url(&quot;#clippath0&quot;);">
      <g transform="translate(1300.291 1048.1697)">
        <path d="M 0 0 C -2.424 -14.406 -19.231 -23.589 -37.541 -20.509 C -55.851 -17.428 -68.728 -3.251 -66.304 11.155 C -63.88 25.562 -47.073 34.745 -28.763 31.664 C -10.454 28.583 2.424 14.407 0 0" style="fill: rgb(190, 179, 162); fill-opacity: 1;"/>
      </g>
    </g>
    <g style="clip-path: url(&quot;#clippath0&quot;);">
      <g transform="translate(1234.0411 1063.3862)">
        <path d="M 0 0 C 0 0.02 -0.003 0.03 -0.007 0.03 C -0.126 0.017 0.505 -24.092 -1.519 -41.635 C -5.53 -76.399 -20.593 -90.716 -15.451 -95.316 C -9.191 -100.916 18.464 -84.477 36.851 -62.552 C 52.797 -43.539 59.328 -23.313 62.268 -10.408 C 53.369 -5.736 44.47 -1.064 35.571 3.608 C 36.429 3.286 39.819 1.903 41.548 -1.728 C 43.364 -5.542 42.086 -9.181 41.597 -10.571 C 40.156 -14.671 37.146 -16.9 35.025 -18.428 C 32.578 -20.19 25.415 -25.347 16.565 -23.133 C 8.804 -21.191 4.913 -14.874 3.68 -12.872 C 0.443 -7.618 0.033 -2.47 0 0" style="fill: rgb(218, 207, 189); fill-opacity: 1;"/>
      </g>
    </g>
    <g style="clip-path: url(&quot;#clippath0&quot;);">
      <g transform="translate(77.7118 891.1302)">
        <path d="M 0 0 C 1.473 3.163 3.641 7.068 6.819 11.138 C 10.254 15.538 13.801 18.763 16.686 21.025 C 27.664 29.346 41.03 38.33 56.84 46.865 C 73.206 55.701 88.554 62.092 101.898 66.763 C 114.634 71.776 134.227 77.947 158.848 79.409 C 166.67 79.874 172.602 79.721 183.851 79.294 C 214.69 78.123 230.11 77.538 256.24 75.603 C 276.366 74.112 305.543 72.362 342.698 71.549 C 379.667 70.984 437.286 69.854 507.885 67.37 C 702.379 60.526 766.406 51.463 880.996 55.734 C 930.238 57.57 1002.349 62.371 1090.18 76.281 C 1105.219 79.509 1116.657 82.987 1122.985 83.357 C 1157.489 85.372 1158.708 78.97 1182.247 102.032 C 1191.864 111.454 1199.67 120.519 1202.232 124.467 C 1206.399 130.889 1208.77 136.709 1213.513 148.348 C 1214.932 151.831 1216.639 156.274 1216.726 162.082 C 1216.75 163.649 1216.773 166.204 1216.013 169.396 C 1215.957 169.641 1215.896 169.883 1215.829 170.122 C 1214.578 174.672 1210.331 183.003 1192.656 189.227 C 1196.976 188.383 1214.714 184.458 1220.691 170.393 C 1221.152 169.308 1223.874 165.491 1222.681 156.266 C 1219.717 133.351 1216.135 121.864 1216.135 121.864 C 1215.691 120.44 1208.529 97.268 1203.63 71.345 C 1202.264 64.117 1200.979 56.18 1198.006 42.247 C 1196.456 34.987 1195.076 29.041 1194.137 25.096 C 1194.132 25.066 1194.054 24.735 1193.919 24.132 C 1186.822 -7.419 1186.843 -30.56 1186.843 -30.56 C 1186.853 -33.566 1186.964 -45.059 1189.286 -59.989 C 1191.179 -72.156 1193.922 -82.624 1196.621 -91.079 C 1182.086 -105.048 1162.357 -120.828 1136.739 -134.083 C 1069.516 -168.866 1004.279 -164.263 974.804 -160.19 C 934.315 -155.881 892.188 -152.369 848.516 -149.884 C 768.91 -145.355 693.681 -144.783 623.471 -146.923 C 594.297 -146.181 557.522 -145.165 514.968 -143.796 C 505.318 -143.486 470.717 -142.364 422.92 -140.585 C 340.745 -137.525 322.682 -136.357 277.556 -135.5 C 222.584 -134.456 199.434 -135.239 174.595 -137.509 C 129.293 -141.648 106.605 -148.15 93.942 -152.323 C 66.843 -161.253 45.705 -172.68 31.22 -181.692 C 35.475 -166.082 41.627 -147.869 50.679 -128.246 C 59.841 -108.387 69.835 -91.717 79.053 -78.247 C 87.87 -65.01 96.174 -55.317 102.094 -48.94 C 114.009 -36.105 121.164 -31.425 123.861 -20.216 C 124.497 -17.574 127.257 -6.101 120.629 3.312 C 113.921 12.837 102.024 13.966 96.934 14.448 C 78.994 16.149 65.551 5.524 61.893 2.423 C 60.598 1.244 58.67 -0.662 56.709 -3.295 C 52.886 -8.425 51.633 -12.694 48.798 -20.316 C 47.485 -23.847 45.454 -29.113 42.676 -35.572 C 33.064 -31.792 25.291 -27.96 19.55 -24.876 C 10.989 -20.278 7.795 -17.8 5.178 -14.169 C 1.466 -9.016 0.363 -3.55 0 0" style="fill: rgb(236, 229, 216); fill-opacity: 1;"/>
      </g>
    </g>
    <g style="clip-path: url(&quot;#clippath0&quot;);">
      <g transform="translate(79.2055 892.5656)">
        <path d="M 0 0 C 0.428 -3.345 1.587 -8.752 5.178 -14.169 C 6.466 -16.112 9.68 -20.488 17.485 -25.185 C 27.369 -31.132 36.979 -32.997 42.55 -33.782 C 70.77 -37.755 114.424 -30.766 118.941 -30.025 C 94.411 -59.848 77.95 -85.317 67.459 -103.16 C 60.306 -115.328 55.25 -125.087 53.663 -128.203 C 43.122 -148.901 36.146 -166.724 29.726 -183.127 C 17.216 -215.088 10.992 -231.365 12.532 -245.851 C 14.06 -260.24 19.641 -272.463 12.5 -280.989 C 5.305 -289.578 -8.964 -288.28 -11.511 -287.998 C -31.644 -285.767 -43.935 -266.784 -46.935 -262.151 C -65.257 -233.854 -54.035 -196.849 -36.47 -134.285 C -28.613 -106.299 -15.83 -60.174 0 0" style="fill: rgb(218, 207, 189); fill-opacity: 1;"/>
      </g>
    </g>
  </g>
</svg>