<?xml version="1.0" encoding="utf-8"?>
<svg xmlns="http://www.w3.org/2000/svg" width="318px" height="144px" viewBox="0 0 318 144">
  <defs>
    <clipPath id="clippath0" transform="">
      <path d="M 0 187.74 L 497.611 187.74 L 497.611 0 L 0 0 Z" style="fill: none; clip-rule: nonzero;"/>
    </clipPath>
    <clipPath id="clippath1" transform="" style="clip-path: url(&quot;#clippath0&quot;);">
      <path d="M 631.962 302.386 L 409.499 302.386 L 409.499 549.129 L 631.962 549.129 Z" style="fill: none; clip-rule: nonzero;"/>
    </clipPath>
    <clipPath id="clippath2" transform="">
      <path d="M 0 187.74 L 497.611 187.74 L 497.611 0 L 0 0 Z" style="fill: none; clip-rule: nonzero;"/>
    </clipPath>
    <clipPath id="clippath3" transform="" style="clip-path: url(&quot;#clippath2&quot;);">
      <path d="M 954.984 -27.251 L 10.728 -27.251 L 10.728 -641.06 L 954.984 -641.06 Z" style="fill: none; clip-rule: nonzero;"/>
    </clipPath>
    <clipPath id="clippath4" transform="" style="clip-path: url(&quot;#clippath2&quot;);">
      <path d="M 887.417 -657.972 L 77.551 -657.972 L 77.551 -1506.521 L 887.417 -1506.521 Z" style="fill: none; clip-rule: nonzero;"/>
    </clipPath>
  </defs>
  <g class="page-1" transform="matrix(1, 0, 0, -1, -84, 159.740005)">
    <g transform="">
      <path d="M 0 187.74 L 497.611 187.74 L 497.611 0 L 0 0 Z" style="fill: none;"/>
    </g>
    <g style="clip-path: url(&quot;#clippath0&quot;);">
      <g transform="">
        <path d="M 631.962 302.386 L 409.499 302.386 L 409.499 549.129 L 631.962 549.129 Z" style="fill: none;"/>
      </g>
    </g>
    <g style="clip-path: url(&quot;#clippath1&quot;);">
      <g transform="translate(495.4556 -57.4034)">
        <path d="M 0 0 C 0.191 -0.035 0.382 -0.07 0.573 -0.105 C -0.867 64.483 -2.307 129.071 -3.746 193.659 C -3.936 193.65 -4.126 193.64 -4.316 193.631 C -2.878 129.087 -1.439 64.544 0 0 M -4.925 173.962 C -4.859 173.963 -4.793 173.965 -4.728 173.967 C -6.37 247.647 -8.012 321.326 -9.658 395.005 C -9.71 397.366 -9.543 399.907 -9.944 402.031 C -10.298 403.906 -11.303 405.316 -12.021 406.931 C -12.762 405.206 -13.885 403.709 -14.15 401.7 C -14.494 399.1 -14.17 396.09 -14.104 393.257 C -12.6 328.558 -11.037 263.861 -9.598 199.16 C -7.739 115.575 -5.998 31.985 -4.087 -51.599 C -4.028 -54.186 -2.716 -58.756 -1.875 -58.922 C 0.643 -59.418 0.363 -54.808 0.277 -51.301 C -0.14 -34.303 -0.645 -17.308 -1.031 -0.309 C -2.349 57.781 -3.63 115.871 -4.925 173.962 M -11.109 173.945 C -11.153 173.944 -11.196 173.943 -11.24 173.942 C -11.571 188.817 -11.912 203.691 -12.233 218.566 C -13.514 277.863 -14.788 337.16 -16.07 396.456 C -16.106 398.107 -15.903 400.246 -16.333 401.303 C -17.213 403.467 -18.403 406.24 -19.551 406.489 C -20.45 406.685 -21.892 403.826 -22.339 401.652 C -22.83 399.258 -22.52 396.095 -22.457 393.269 C -20.952 325.243 -19.433 257.217 -17.916 189.191 C -16.156 110.285 -14.399 31.378 -12.627 -47.528 C -12.512 -52.644 -12.857 -59.401 -9.228 -59.47 C -5.201 -59.546 -6.083 -52.385 -6.198 -47.168 C -7.815 26.537 -9.466 100.241 -11.109 173.945 M -25.925 -57.718 C -23.646 -62.33 -22.422 -59.872 -21.765 -55.171 C -21.492 -53.219 -21.663 -50.959 -21.71 -48.841 C -23.438 29.078 -25.147 106.998 -26.947 184.916 C -27.169 194.497 -27.889 204.063 -28.378 213.636 C -28.545 213.627 -28.713 213.619 -28.88 213.611 C -28.819 210.853 -28.757 208.096 -28.696 205.339 C -26.821 121.044 -24.944 36.75 -23.074 -47.545 C -23.021 -49.903 -22.741 -52.49 -23.112 -54.536 C -23.329 -55.729 -24.632 -56.056 -25.447 -56.773 C -25.813 -41.654 -26.204 -26.536 -26.543 -11.416 C -28.278 66.074 -30 143.564 -31.727 221.054 C -32.98 277.285 -34.252 333.515 -35.458 389.747 C -35.557 394.4 -35.212 399.064 -35.073 403.723 C -34.586 403.727 -34.099 403.732 -33.612 403.736 C -33.382 400.738 -33.013 397.745 -32.944 394.743 C -31.688 339.694 -30.473 284.644 -29.225 229.596 C -29.162 226.844 -28.886 224.098 -28.71 221.349 C -28.381 221.415 -28.052 221.482 -27.724 221.549 C -27.775 223.853 -27.827 226.157 -27.878 228.462 C -29.11 283.747 -30.317 339.034 -31.622 394.317 C -31.728 398.79 -30.845 406.167 -34.47 405.879 C -37.701 405.621 -36.58 398.65 -36.485 394.301 C -33.244 246.871 -29.956 99.443 -26.646 -47.984 C -26.573 -51.234 -26.174 -54.475 -25.925 -57.718 M -28.673 403.302 C -25.46 405.111 -24.845 403.992 -24.657 395.584 C -23.132 327.584 -21.62 259.584 -20.103 191.584 C -18.344 112.717 -16.584 33.85 -14.827 -45.017 C -14.774 -47.378 -14.703 -49.743 -14.713 -52.099 C -14.731 -56.056 -15.619 -58.282 -17.722 -57.872 C -18.147 -53.309 -18.85 -48.754 -18.954 -44.181 C -20.869 39.407 -22.713 122.997 -24.571 206.587 C -24.63 209.249 -24.69 211.911 -24.749 214.572 C -25.07 214.579 -25.391 214.586 -25.712 214.592 C -25.767 212.662 -25.896 210.732 -25.865 208.802 C -25.711 199.357 -25.54 189.912 -25.33 180.469 C -23.641 104.435 -21.968 28.4 -20.166 -47.63 C -20.076 -51.43 -18.836 -55.192 -18.13 -58.967 C -14.464 -60.353 -13.58 -58.507 -13.78 -49.488 C -15.845 43.732 -17.922 136.951 -19.998 230.17 C -21.175 283.039 -22.356 335.907 -23.532 388.776 C -23.611 392.316 -23.554 395.872 -23.743 399.392 C -24.126 406.521 -26.239 408.322 -29.236 404.235 C -29.525 400.867 -30.126 397.492 -30.055 394.133 C -28.885 338.7 -27.633 283.269 -26.389 227.838 C -26.341 225.676 -26.191 223.516 -26.089 221.355 C -25.697 221.364 -25.306 221.374 -24.914 221.384 C -24.972 224.008 -25.031 226.632 -25.089 229.256 C -26.299 283.508 -27.514 337.759 -28.705 392.011 C -28.788 395.772 -28.688 399.538 -28.673 403.302 M -4.661 417.001 C -4.837 414.438 -5.014 411.876 -5.191 409.309 C -10.192 407.746 -9.218 400.008 -9.066 393.175 C -7.848 338.13 -6.622 283.086 -5.379 228.042 C -5.323 225.522 -5.077 223.009 -4.919 220.492 C -4.538 220.567 -4.157 220.641 -3.776 220.715 C -5.132 281.525 -6.487 342.334 -7.843 403.144 C -7.561 403.146 -7.279 403.148 -6.997 403.151 C -3.591 250.379 -0.186 97.607 3.22 -55.165 C 2.796 -55.192 2.372 -55.219 1.948 -55.246 C 1.65 -41.887 1.352 -28.527 1.054 -15.167 C 0.728 -15.218 0.402 -15.268 0.076 -15.319 C 0.359 -28.044 0.544 -40.778 1.014 -53.486 C 1.103 -55.887 2.325 -58.188 2.982 -60.392 C 1.471 -60.433 -0.397 -60.486 -2.264 -60.536 C -10.558 -60.758 -18.852 -61.035 -27.149 -61.095 C -27.802 -61.1 -28.482 -59.594 -29.149 -58.79 L -29.167 -58.762 C -26.014 -60.628 -27.112 -55.525 -27.15 -53.112 C -27.401 -37.062 -27.788 -21.011 -28.159 -4.962 C -29.797 65.842 -31.492 136.645 -33.074 207.45 C -34.487 270.702 -35.78 333.957 -37.123 397.21 C -37.214 401.476 -36.818 406.257 -40.272 406.77 L -39.979 408.453 C -32.511 408.658 -25.043 408.862 -17.576 409.067 C -17.599 409.306 -17.623 409.546 -17.647 409.785 C -25.764 409.562 -33.881 409.34 -41.998 409.117 C -42.13 409.342 -42.26 409.574 -42.386 409.813 C -42.683 415.456 -40.905 415.342 -38.848 415.414 C -27.449 415.814 -16.056 416.447 -4.661 417.001" style="fill: rgb(190, 179, 162); fill-opacity: 1;"/>
      </g>
    </g>
    <g style="clip-path: url(&quot;#clippath1&quot;);">
      <g transform="translate(483.4328 116.466)">
        <path d="M 0 0 C -0.479 21.482 -0.958 42.964 -1.437 64.447 C -2.601 116.66 -3.757 168.873 -4.947 221.085 C -5.035 224.932 -4.626 230.027 -7.408 230.353 C -7.953 230.417 -9.127 224.578 -9.076 221.465 C -8.609 193.156 -7.927 164.848 -7.324 136.539 C -6.461 96.028 -5.628 55.516 -4.749 15.006 C -4.032 -18.021 -3.242 -51.046 -2.526 -84.073 C -1.534 -129.83 -0.625 -175.589 0.481 -221.342 C 0.563 -224.722 1.964 -230.876 2.725 -230.907 C 5.513 -231.02 4.882 -225.686 4.938 -221.836 C 4.959 -220.425 4.882 -219.002 4.85 -217.585 C 3.234 -145.057 1.617 -72.528 0 0 M 0.913 0.075 C 2.556 -73.629 4.208 -147.332 5.825 -221.037 C 5.94 -226.255 6.822 -233.416 2.794 -233.339 C -0.834 -233.27 -0.489 -226.514 -0.604 -221.397 C -2.377 -142.491 -4.133 -63.585 -5.893 15.322 C -7.41 83.348 -8.929 151.374 -10.434 219.4 C -10.497 222.225 -10.808 225.389 -10.316 227.783 C -9.869 229.956 -8.427 232.815 -7.528 232.62 C -6.38 232.371 -5.19 229.597 -4.31 227.434 C -3.881 226.376 -4.083 224.237 -4.047 222.587 C -2.765 163.29 -1.491 103.994 -0.21 44.697 C 0.111 29.822 0.451 14.947 0.783 0.072 C 0.826 0.073 0.87 0.074 0.913 0.075" style="fill: rgb(236, 229, 216); fill-opacity: 1;"/>
      </g>
    </g>
    <g style="clip-path: url(&quot;#clippath1&quot;);">
      <g transform="translate(492.913 -114.6645)">
        <path d="M 0 0 C 0.469 0.054 0.937 0.107 1.406 0.161 C 1.553 2.484 1.86 4.808 1.823 7.13 C 1.545 24.369 1.257 41.61 0.864 58.848 C -0.457 116.707 -1.85 174.564 -3.163 232.423 C -4.83 305.872 -6.44 379.323 -8.107 452.773 C -8.177 455.872 -8.576 458.963 -8.822 462.057 L -10.466 461.903 C -10.54 458.638 -10.743 455.37 -10.671 452.11 C -8.847 369.218 -6.995 286.327 -5.147 203.436 C -3.704 138.73 -2.268 74.023 -0.791 9.318 C -0.719 6.206 -0.272 3.106 0 0 M -2.382 231.223 C -1.087 173.132 0.194 115.042 1.512 56.952 C 1.897 39.953 2.403 22.958 2.819 5.96 C 2.905 2.453 3.186 -2.157 0.668 -1.661 C -0.174 -1.495 -1.485 3.075 -1.545 5.662 C -3.455 89.246 -5.197 172.836 -7.056 256.421 C -8.494 321.122 -10.058 385.819 -11.562 450.518 C -11.628 453.351 -11.951 456.361 -11.608 458.962 C -11.342 460.971 -10.22 462.467 -9.478 464.192 C -8.761 462.577 -7.756 461.167 -7.402 459.292 C -7.001 457.168 -7.168 454.627 -7.115 452.267 C -5.47 378.587 -3.828 304.908 -2.185 231.228 C -2.251 231.226 -2.316 231.224 -2.382 231.223" style="fill: rgb(236, 229, 216); fill-opacity: 1;"/>
      </g>
    </g>
    <g style="clip-path: url(&quot;#clippath1&quot;);">
      <g transform="translate(469.5292 -115.1242)">
        <path d="M 0 0 C -0.247 3.245 -0.647 6.486 -0.72 9.737 C -4.03 157.164 -7.318 304.592 -10.558 452.022 C -10.654 456.37 -11.775 463.342 -8.544 463.599 C -4.919 463.888 -5.802 456.511 -5.696 452.038 C -4.391 396.755 -3.184 341.468 -1.952 286.183 C -1.9 283.878 -1.849 281.574 -1.797 279.269 C -2.126 279.203 -2.455 279.136 -2.783 279.069 C -2.96 281.818 -3.236 284.564 -3.299 287.316 C -4.546 342.365 -5.762 397.415 -7.018 452.463 C -7.087 455.466 -7.456 458.459 -7.686 461.456 C -8.173 461.452 -8.66 461.448 -9.147 461.444 C -9.286 456.785 -9.631 452.121 -9.531 447.468 C -8.326 391.236 -7.054 335.006 -5.801 278.775 C -4.073 201.285 -2.352 123.795 -0.616 46.305 C -0.278 31.185 0.113 16.067 0.48 0.947 C 0.32 0.631 0.16 0.316 0 0" style="fill: rgb(236, 229, 216); fill-opacity: 1;"/>
      </g>
    </g>
    <g style="clip-path: url(&quot;#clippath1&quot;);">
      <g transform="translate(477.3203 -116.1948)">
        <path d="M 0 0 C -0.712 4.121 -1.96 8.223 -2.058 12.365 C -4.012 95.224 -5.837 178.087 -7.679 260.95 C -7.907 271.242 -8.098 281.536 -8.27 291.828 C -8.305 293.931 -8.18 296.035 -8.129 298.138 C -7.808 298.13 -7.487 298.122 -7.165 298.114 C -7.101 295.213 -7.036 292.312 -6.971 289.412 C -4.946 198.314 -2.935 107.216 -0.853 16.12 C -0.739 11.136 -0.027 6.171 0.406 1.195 C 0.271 0.795 0.136 0.397 0 0" style="fill: rgb(236, 229, 216); fill-opacity: 1;"/>
      </g>
    </g>
    <g style="clip-path: url(&quot;#clippath1&quot;);">
      <g transform="translate(470 -113.7818)">
        <path d="M 0 0 C 0.813 0.779 2.116 1.133 2.33 2.433 C 2.698 4.661 2.412 7.481 2.355 10.051 C 0.315 101.917 -1.73 193.782 -3.774 285.648 C -3.841 288.653 -3.908 291.658 -3.975 294.663 L -3.472 294.689 C -2.964 284.256 -2.225 273.829 -1.984 263.388 C -0.028 178.472 1.837 93.553 3.721 8.635 C 3.772 6.327 3.948 3.863 3.679 1.737 C 3.031 -3.385 1.812 -6.06 -0.477 -1.03 C -0.318 -0.688 -0.159 -0.344 0 0" style="fill: rgb(236, 229, 216); fill-opacity: 1;"/>
      </g>
    </g>
    <g style="clip-path: url(&quot;#clippath1&quot;);">
      <g transform="translate(466.2177 346.8334)">
        <path d="M 0 0 C 2.999 4.085 5.112 2.284 5.495 -4.844 C 5.684 -8.365 5.627 -11.921 5.706 -15.461 C 6.882 -68.329 8.063 -121.198 9.24 -174.067 C 11.315 -267.286 13.393 -360.505 15.458 -453.724 C 15.658 -462.744 14.774 -464.59 11.107 -463.206 C 11.243 -462.843 11.379 -462.478 11.515 -462.11 C 13.619 -462.519 14.507 -460.293 14.524 -456.336 C 14.535 -453.98 14.464 -451.615 14.411 -449.254 C 12.654 -370.387 10.894 -291.52 9.135 -212.652 C 7.618 -144.653 6.106 -76.653 4.581 -8.653 C 4.393 -0.245 3.777 0.874 0.565 -0.935 C 0.376 -0.623 0.188 -0.312 0 0" style="fill: rgb(236, 229, 216); fill-opacity: 1;"/>
      </g>
    </g>
    <g style="clip-path: url(&quot;#clippath1&quot;);">
      <g transform="translate(495.3346 -51.9749)">
        <path d="M 0 0 C -1.568 70.341 -3.136 140.681 -4.704 211.022 C -4.514 211.032 -4.324 211.042 -4.134 211.052 C -2.565 140.663 -0.996 70.273 0.573 -0.116 C 0.382 -0.077 0.191 -0.039 0 0" style="fill: rgb(236, 229, 216); fill-opacity: 1;"/>
      </g>
    </g>
    <g style="clip-path: url(&quot;#clippath1&quot;);">
      <g transform="translate(466.7825 345.8983)">
        <path d="M 0 0 C -0.015 -3.764 -0.114 -7.529 -0.032 -11.29 C 1.159 -65.543 2.374 -119.794 3.584 -174.046 C 3.642 -176.67 3.701 -179.294 3.759 -181.918 C 3.367 -181.927 2.976 -181.937 2.584 -181.947 C 2.482 -179.786 2.332 -177.626 2.284 -175.463 C 1.04 -120.033 -0.212 -64.602 -1.382 -9.169 C -1.452 -5.81 -0.852 -2.435 -0.564 0.934 C -0.376 0.623 -0.188 0.312 0 0" style="fill: rgb(236, 229, 216); fill-opacity: 1;"/>
      </g>
    </g>
    <g style="clip-path: url(&quot;#clippath1&quot;);">
      <g transform="translate(466.3067 -116.1931)">
        <path d="M 0 0 C -3.429 153.8 -6.857 307.6 -10.286 461.4 C -9.863 461.421 -9.44 461.443 -9.016 461.465 C -8.957 458.815 -8.898 456.165 -8.839 453.516 C -7.917 412.165 -6.994 370.815 -6.072 329.464 C -3.702 223.144 -1.32 116.824 0.984 10.502 C 1.059 7.021 0.334 3.52 -0.018 0.028 C -0.018 0.028 0 0 0 0" style="fill: rgb(236, 229, 216); fill-opacity: 1;"/>
      </g>
    </g>
    <g style="clip-path: url(&quot;#clippath1&quot;);">
      <g transform="translate(483.4328 116.466)">
        <path d="M 0 0 C 1.617 -72.528 3.234 -145.057 4.851 -217.585 C 4.882 -219.002 4.959 -220.425 4.938 -221.836 C 4.882 -225.686 5.513 -231.02 2.725 -230.907 C 1.964 -230.876 0.563 -224.722 0.481 -221.342 C -0.625 -175.589 -1.534 -129.83 -2.526 -84.073 C -3.242 -51.046 -4.032 -18.021 -4.749 15.006 C -5.628 55.516 -6.461 96.028 -7.324 136.539 C -7.927 164.848 -8.609 193.156 -9.076 221.465 C -9.127 224.578 -7.953 230.417 -7.408 230.353 C -4.626 230.027 -5.035 224.932 -4.947 221.085 C -3.757 168.873 -2.601 116.66 -1.437 64.447 C -0.958 42.964 -0.479 21.482 0 0" style="fill: rgb(236, 229, 216); fill-opacity: 1;"/>
      </g>
    </g>
    <g style="clip-path: url(&quot;#clippath1&quot;);">
      <g transform="translate(492.913 -114.6645)">
        <path d="M 0 0 C -0.272 3.106 -0.719 6.206 -0.791 9.318 C -2.268 74.023 -3.704 138.73 -5.147 203.436 C -6.995 286.327 -8.847 369.218 -10.671 452.11 C -10.743 455.37 -10.54 458.638 -10.466 461.903 L -8.822 462.057 C -8.576 458.963 -8.177 455.872 -8.107 452.773 C -6.44 379.323 -4.83 305.872 -3.163 232.423 C -1.85 174.564 -0.457 116.707 0.864 58.848 C 1.257 41.61 1.545 24.369 1.823 7.13 C 1.86 4.808 1.553 2.484 1.406 0.161 C 0.937 0.107 0.469 0.054 0 0" style="fill: rgb(236, 229, 216); fill-opacity: 1;"/>
      </g>
    </g>
    <g style="clip-path: url(&quot;#clippath0&quot;);">
      <g transform="translate(157.0412 95.8001)">
        <path d="M 0 0 C 1.844 5.138 3.688 10.276 5.531 15.415 C 1.229 13.006 -1.108 6.166 0 0 M 18.246 30.315 C 15.718 27.592 10.154 27.199 11.204 21.478 C 11.109 22.696 11.013 23.913 10.825 26.322 C 8.948 23.868 7.74 22.289 6.533 20.709 C 6.783 20.383 7.033 20.057 7.283 19.731 C 13.325 21.53 18.919 20.424 24.017 17.103 C 27.441 23.52 29.579 21.591 36.99 17.138 C 34.754 16.227 32.776 15.422 30.211 14.377 C 35.278 12.728 39.388 10.135 36.875 4.235 C 31.23 1.646 29.419 6.802 26.346 10.289 C 25.861 8.478 25.601 7.51 25.331 6.5 C 19.075 8.23 21.827 12.157 23.129 15.629 C 18.893 18.254 14.927 20.567 10.038 18.055 C 7.871 18.828 6.791 18.115 6.661 15.761 C 6.561 13.933 6.242 12.118 6.624 10.084 C 7.734 12.79 8.844 15.496 9.957 18.195 C 10.852 12.754 11.743 7.319 12.635 1.884 C 12.295 1.758 11.955 1.633 11.615 1.508 C 10.548 4.468 9.48 7.428 8.552 10.003 C 5.656 5.981 2.62 1.801 -0.355 -2.421 C -0.696 -2.906 -0.843 -3.633 -0.833 -4.243 C -0.73 -10.579 1.455 -16.085 5.739 -21.162 C 5.892 -20.447 6.007 -20.193 5.989 -19.95 C 5.353 -11.44 6.922 -9.298 14.978 -7.653 C 15.453 -7.556 15.998 -7.398 16.335 -7.082 C 20.926 -2.758 21.071 -2.74 26.929 -7.657 C 25.723 -7.561 24.516 -7.465 23.31 -7.37 C 30.196 -11.88 30.939 -13.759 27.821 -19.757 C 24.76 -17.676 21.805 -15.667 18.642 -13.515 C 18.609 -14.878 18.581 -16.065 18.554 -17.201 C 13.439 -16.277 13.953 -12.879 14.977 -9.481 C 10.518 -8.628 8.611 -10.919 7.71 -14.423 C 6.667 -18.48 7.698 -22.142 10.185 -25.421 C 13.756 -30.132 18.733 -32.432 24.527 -33.8 C 22.381 -31.255 20.395 -28.899 18.409 -26.542 C 18.703 -26.241 18.998 -25.939 19.293 -25.637 C 20.808 -26.915 22.335 -28.179 23.835 -29.473 C 25.566 -30.967 27.064 -33.383 29.029 -33.844 C 38.399 -36.046 47.139 -34.012 54.916 -28.352 C 59.247 -25.2 58.947 -19.89 54.818 -16.267 C 52.888 -14.575 51.518 -12.244 49.895 -10.202 C 50.314 -9.868 50.733 -9.533 51.152 -9.199 C 53.343 -11.588 55.534 -13.978 57.046 -15.626 C 60.796 -9.918 63.658 -3.349 68.474 1.098 C 72.671 4.973 73.248 8.573 72.491 13.302 C 72.069 15.933 71.457 18.534 70.931 21.148 L 70.997 21.008 C 71.094 21.509 71.192 22.009 71.315 22.642 C 75.937 18.388 80.401 14.278 84.926 10.113 C 79.557 9.276 77.461 14.292 73.759 17.149 C 74.018 13.082 74.241 9.571 74.422 6.719 C 79.512 7.224 84.37 7.705 89.227 8.186 L 89.163 8.332 C 88.624 7.877 88.152 7.173 87.536 7.006 C 82.599 5.67 77.635 4.436 72.679 3.171 C 65.043 -2.935 59.956 -10.472 59.422 -20.547 C 59.38 -21.328 59.53 -22.12 59.658 -23.783 C 67.338 -15.84 70.824 -6.731 72.687 3.187 C 72.058 -1.765 71.429 -6.719 70.866 -11.148 C 73.169 -10.816 75.996 -10.408 78.695 -10.019 C 81.724 -17.598 81.044 -19.097 74.253 -22.08 C 72.751 -20.862 71.562 -19.897 70.371 -18.932 C 70.013 -17.551 69.58 -15.881 69.024 -13.735 C 67.05 -16.748 65.943 -19.897 63.725 -21.526 C 58.688 -25.221 59.96 -29.387 61.803 -33.778 C 62.992 -36.61 64.46 -39.331 65.932 -42.032 C 66.417 -42.922 67.255 -44.201 68.017 -44.263 C 72.837 -44.649 75.251 -48.415 78.43 -51.167 C 80.478 -52.94 82.792 -54.403 84.987 -56.005 L 85.319 -55.816 C 90.706 -60.018 97.05 -60.118 102.92 -58.275 C 109.319 -56.266 115.239 -52.721 121.368 -49.846 C 121.445 -49.976 121.523 -50.106 121.601 -50.236 C 120.616 -51.274 119.786 -52.552 118.62 -53.313 C 109.905 -59.001 100.636 -61.819 90.019 -59.852 C 85.529 -59.02 80.744 -59.773 76.093 -59.806 C 76.06 -59.435 76.027 -59.064 75.994 -58.692 C 77.292 -58.212 78.591 -57.731 80.35 -57.079 C 79.327 -56.577 78.713 -56.368 78.204 -56.01 C 74.228 -53.211 69.332 -51.353 67.859 -45.968 C 70.692 -48.419 73.509 -50.89 76.375 -53.302 C 76.861 -53.711 77.562 -53.865 78.313 -54.205 C 75.961 -49.554 72.111 -46.59 67.917 -46.081 C 66.597 -47.336 65.013 -48.422 64.025 -49.906 C 62.241 -52.584 60.217 -53.826 56.923 -52.868 C 55.797 -52.54 54.225 -52.755 53.18 -53.32 C 49.363 -55.384 47.305 -55.013 44.264 -51.128 C 45.379 -50.781 46.408 -50.46 47.853 -50.011 C 38.395 -46.501 38.395 -46.501 38.909 -41.765 C 44.471 -38.4 47.055 -41.985 48.8 -46.232 C 49.908 -44.623 50.753 -42.486 51.495 -42.52 C 52.786 -42.58 54.19 -43.817 55.187 -44.894 C 55.641 -45.385 54.96 -46.787 55.285 -47.572 C 55.874 -49 56.588 -51.065 57.698 -51.406 C 58.948 -51.789 61.043 -50.945 62.137 -49.942 C 63.648 -48.558 64.566 -46.527 65.716 -44.805 C 64.2 -42.045 62.515 -39.438 61.296 -36.628 C 60.088 -33.844 59.349 -30.856 58.388 -27.908 C 46.644 -35.501 42.144 -36.628 28.427 -36.121 C 25.626 -36.017 22.8 -36.977 19.968 -37.143 C 18.591 -37.224 17.173 -36.605 15.774 -36.302 C 15.759 -35.927 15.743 -35.551 15.727 -35.176 C 16.872 -34.964 18.016 -34.752 19.905 -34.403 C 17.037 -32.669 15.03 -31.618 13.196 -30.321 C 4.101 -23.886 -1.29 -15.085 -3.245 -4.134 C -4.076 1.231 -4.906 6.595 -5.737 11.96 C -5.349 12.074 -4.962 12.188 -4.575 12.302 C -4.143 11.113 -3.588 9.953 -3.31 8.729 C -2.993 7.327 -2.922 5.868 -2.842 5.229 C -0.366 10.436 2.335 16.134 5.054 21.824 C 6.249 24.325 4.723 30.173 1.562 34.386 C -0.284 28.028 -3.788 30.829 -7.732 33.698 C -5.926 25.069 -7.057 17.831 -10.597 11.162 C -12.781 7.047 -15.708 3.321 -18.36 -0.539 C -20.777 -4.057 -22.384 -7.752 -21.497 -12.589 C -14.207 -11.95 -8.642 -8.086 -3.142 -4.054 C -4.127 -5.394 -4.833 -7.376 -6.16 -7.976 C -11.68 -10.474 -17.387 -12.554 -23.026 -14.788 L -22.917 -14.756 C -25.886 -14.376 -28.855 -13.996 -31.825 -13.616 C -31.777 -13.315 -31.73 -13.014 -31.682 -12.713 C -28.965 -12.75 -26.249 -12.788 -23.548 -12.825 C -23.333 -10.068 -23.16 -7.844 -22.952 -5.174 C -25.669 -6.517 -28.215 -7.476 -30.403 -8.965 C -31.8 -9.915 -33.488 -11.584 -33.603 -13.044 C -33.868 -16.405 -35.857 -17.318 -38.503 -18.187 C -39.114 -16.563 -39.641 -15.158 -40.199 -13.676 C -44.503 -18.486 -44.503 -18.486 -50.836 -15.944 C -49.681 -10.553 -47.054 -7.27 -40.857 -8.908 C -41.8 -8.195 -42.744 -7.482 -43.659 -6.79 C -42.128 -3.25 -40.147 -2.756 -37.65 -5.422 C -35.31 -7.921 -32.98 -8.234 -29.728 -7.036 C -21.806 -4.116 -17.876 2.593 -13.253 9.019 C -14.431 8.989 -15.306 8.967 -16.563 8.935 C -6.257 19.16 -5.738 29.788 -14.499 43.473 C -7.753 47.422 -7.418 47.401 -1.929 42.597 C -1.5 43.55 -1.091 44.459 -0.646 45.446 C 2.26 43.174 6.149 41.671 3.048 37.142 C 2.831 36.825 3.071 36.089 3.262 35.614 C 4.682 32.097 6.142 28.598 7.594 25.083 C 9.478 26.512 11.396 27.965 13.313 29.418 L 13.175 29.363 C 14.885 29.631 16.594 29.898 18.303 30.166 Z" style="fill: rgb(94, 13, 28); fill-opacity: 1;"/>
      </g>
    </g>
    <g style="clip-path: url(&quot;#clippath0&quot;);">
      <g transform="translate(264.4525 141.1219)">
        <path d="M 0 0 C 4.182 -0.87 8.556 -0.82 12.844 -1.179 C 12.868 -0.827 12.892 -0.476 12.916 -0.124 C 7.926 0.521 2.875 0.878 -2.035 1.91 C -5.493 2.636 -8.829 4.121 -12.082 5.575 C -13.885 6.381 -14.781 6.182 -15.272 4.301 C -16.173 4.541 -17.068 4.781 -18.652 5.204 C -9.148 -0.478 -0.231 -5.811 8.989 -11.324 C 3.711 -4.971 -3.098 -1.47 -10.227 1.6 C -12.012 2.369 -13.649 3.482 -15.353 4.436 C -10.243 2.923 -5.201 1.082 0 0 M 0.37 -46.633 C 2.53 -45.317 4.762 -44.1 6.851 -42.674 C 10.865 -39.933 13.074 -36.384 13.086 -33.34 C 11.129 -34.454 9.014 -35.658 6.898 -36.862 C 6.605 -36.415 6.311 -35.967 6.017 -35.519 C 7.955 -34.068 9.971 -32.707 11.799 -31.129 C 12.757 -30.302 13.667 -29.201 14.112 -28.038 C 15.576 -24.217 14.128 -18.119 10.924 -15.624 C 6.181 -11.931 1.323 -8.354 -3.728 -5.105 C -5.897 -3.711 -8.78 -3.483 -11.152 -2.339 C -15.209 -0.382 -19.118 1.883 -23.093 4.012 C -24.271 4.642 -25.723 5.012 -26.567 5.941 C -27.357 6.81 -28.089 8.461 -27.766 9.395 C -27.484 10.212 -25.71 10.907 -24.577 10.936 C -23.166 10.973 -21.754 10.176 -20.311 9.907 C -16.019 9.109 -11.711 8.397 -7.413 7.631 C -7.209 7.595 -7.04 7.356 -6.578 6.996 C -7.764 6.542 -8.766 6.159 -10.813 5.377 C 0.947 2.49 11.636 0.562 22.686 2.356 L 22.67 2.361 C 25.69 2.88 28.727 3.322 31.718 3.975 C 32.438 4.132 33.411 4.886 33.575 5.54 C 34.213 8.082 34.247 10.814 35.141 13.242 C 35.831 15.117 37.469 16.644 38.685 18.325 C 39.036 18.109 39.388 17.894 39.739 17.678 C 39.399 14.991 39.059 12.304 38.704 9.499 C 45.437 12.778 45.981 12.451 45.572 5.967 C 44.027 5.384 42.593 4.843 41.16 4.303 C 41.193 3.893 41.226 3.484 41.259 3.074 C 43.976 2.413 46.693 1.751 49.353 1.104 C 45.781 -3.463 43.532 -2.948 37.702 3.749 C 27.498 1.399 17.415 -0.924 6.529 -3.431 C 11.411 -5.183 15.749 -6.739 20.087 -8.296 C 19.938 -8.674 19.79 -9.053 19.642 -9.432 C 17.163 -8.542 14.683 -7.652 12.204 -6.763 C 9.827 -5.91 7.451 -5.057 5.074 -4.204 C 6.621 -6.516 8.49 -8.073 9.967 -9.941 C 11.67 -12.095 12.86 -14.658 14.576 -16.799 C 16.665 -19.405 19.416 -21.526 21.245 -24.281 C 23.184 -27.201 25.185 -28.484 28.83 -28.035 C 32.791 -27.547 34.892 -29.849 35.091 -33.813 C 32.886 -33.456 30.693 -33.101 28.126 -32.685 C 28.87 -34.086 29.412 -35.107 30.062 -36.332 C 27.798 -37.131 25.762 -37.849 23.721 -38.569 C 23.116 -36.732 22.72 -35.529 22.026 -33.422 C 20.336 -36.289 19.083 -38.413 17.656 -40.834 C 14.946 -37.005 16.25 -34.254 19.006 -32.045 C 21.976 -29.664 22.115 -27.321 19.686 -24.566 C 18.475 -23.194 17.353 -21.744 15.856 -19.92 C 15.821 -23.888 16.086 -27.203 15.706 -30.443 C 14.71 -38.937 7.526 -46.266 0.293 -46.513 C 0.293 -46.513 0.378 -46.639 0.37 -46.633" style="fill: rgb(94, 13, 28); fill-opacity: 1;"/>
      </g>
    </g>
    <g style="clip-path: url(&quot;#clippath0&quot;);">
      <g transform="translate(251.3453 101.2597)">
        <path d="M 0 0 C -0.241 -0.452 -0.482 -0.903 -0.724 -1.355 C 2.272 -2.99 5.267 -4.625 8.263 -6.26 C 8.549 -5.728 8.835 -5.196 9.121 -4.664 C 6.081 -3.109 3.04 -1.555 0 0 M -5.076 2.718 C -4.673 7.191 -4.185 11.667 -3.905 16.156 C -3.768 18.354 -3.119 21.564 -4.26 22.605 C -7.897 25.925 -5.702 29.917 -6.95 33.382 C -6.434 33.525 -5.918 33.669 -5.401 33.812 C -3.889 28.621 -2.377 23.43 -0.885 18.308 C 6.067 21.192 15.559 22.897 17.327 14.628 C 16.447 14.739 15.68 14.836 14.48 14.987 C 18.285 12 19.465 7.182 16.765 6.403 C 13.582 5.483 13.989 2.428 12.633 1.634 C 10.402 3.389 8.594 4.812 6.602 6.38 C 6.884 7.734 7.243 9.458 7.69 11.605 C 6.239 10.399 5.285 9.607 3.933 8.484 C 3.796 11.058 3.693 12.993 3.558 15.539 C 3.876 15.916 4.676 16.865 5.833 18.239 C 4.555 18.421 3.912 18.672 3.328 18.572 C -2.589 17.563 -6.555 8.019 -3.207 2.821 C -2.905 2.352 -2.248 1.927 -1.696 1.833 C 4.404 0.791 9.033 -2.811 13.477 -6.771 C 13.485 -6.776 13.4 -6.651 13.407 -6.655 C 19.704 -12.906 25.994 -19.151 32.284 -25.397 C 32.097 -25.666 31.91 -25.934 31.724 -26.203 C 27.773 -23.32 23.823 -20.437 19.593 -17.349 C 22.456 -26.97 19.88 -35.383 13.708 -42.299 C 8.636 -47.984 6.564 -54.793 3.882 -61.54 C 2.185 -55.926 5.868 -51.595 7.93 -46.44 C 3.679 -46.294 0.317 -45.077 -2.261 -41.707 C -1.34 -34.079 1.998 -33.821 9.573 -34.963 C 10.317 -36.941 10.883 -38.444 11.189 -39.257 C 10.652 -40.754 10.235 -41.914 9.819 -43.075 C 10.151 -43.198 10.483 -43.321 10.815 -43.444 C 12.319 -41.393 13.902 -39.394 15.314 -37.281 C 20.836 -29.017 20.139 -16.466 13.726 -9.421 C 12.9 -8.514 11.636 -7.443 10.556 -7.424 C 3.093 -7.288 -1.537 -3.039 -5.141 2.873 C -5.141 2.873 -5.077 2.726 -5.076 2.718" style="fill: rgb(94, 13, 28); fill-opacity: 1;"/>
      </g>
    </g>
    <g style="clip-path: url(&quot;#clippath0&quot;);">
      <g transform="translate(293.5538 128.9391)">
        <path d="M 0 0 C 8.603 -7.977 18.797 -14.971 17.927 -28.842 C 17.812 -30.673 17.479 -32.49 17.175 -34.887 C 14.267 -33.203 11.645 -31.658 9.69 -35.51 C 10.481 -35.867 11.265 -36.222 12.072 -36.587 C 9.177 -39.932 9.177 -39.932 10.463 -45.968 C 15.062 -47.38 18.046 -45.302 20.22 -41.142 C 21.191 -41.743 22.051 -42.275 22.859 -42.775 C 24.737 -41.37 22.377 -36.877 18.781 -34.948 C 20.809 -23.148 18.119 -12.907 7.722 -5.333 C 15.134 -6.773 20.251 -11.762 21.907 -18.556 C 22.277 -20.072 23.455 -21.389 24.698 -22.515 C 25.488 -13.521 18.841 -9.573 12.954 -5.247 C 19.461 -7.581 26.039 -9.942 32.618 -12.303 C 32.797 -11.82 32.975 -11.337 33.154 -10.853 C 26.848 -6.763 19.371 -5.648 12.317 -3.644 C 16.614 -3.843 20.949 -4.456 25.217 -4.139 C 30.734 -3.73 34.266 -0.534 34.843 3.534 C 31.804 1.762 28.938 -0.914 25.678 -1.55 C 21.388 -2.388 16.766 -1.86 12.326 -1.475 C 8.351 -1.13 4.429 -0.181 0.484 0.501 C 0.305 0.351 0.144 0.184 0 0" style="fill: rgb(94, 13, 28); fill-opacity: 1;"/>
      </g>
    </g>
    <g style="clip-path: url(&quot;#clippath0&quot;);">
      <g transform="translate(270.2708 29.9136)">
        <path d="M 0 0 C -0.036 -1.275 -0.065 -2.298 -0.113 -3.985 C -2.02 -0.852 -3.992 1.271 -7.591 -0.506 C -9.357 -1.379 -10.244 -4.808 -8.46 -6.426 C -7.018 -7.734 -4.841 -8.231 -2.955 -9.103 C -3.175 -9.511 -3.725 -10.531 -4.274 -11.551 C -2.996 -11.843 -1.485 -11.799 -0.488 -12.495 C 1.855 -14.129 3.263 -12.663 4.988 -11.486 C 5.677 -11.015 6.878 -10.838 7.685 -11.076 C 11.683 -12.255 14.778 -11.058 17.237 -7.384 C 17.94 -9.044 18.481 -10.323 19.023 -11.602 C 19.372 -11.603 19.722 -11.604 20.072 -11.605 C 20.163 -10.201 20.4 -8.789 20.315 -7.396 C 20.141 -4.555 19.451 -1.707 19.6 1.106 C 19.821 5.295 19.299 8.955 16.062 11.568 C 16.684 7.653 17.964 3.758 17.691 -0.026 C 17.478 -2.982 15.645 -6.01 13.898 -8.574 C 13.244 -9.535 10.681 -9.748 9.22 -9.38 C 8.437 -9.183 7.714 -7.032 7.709 -5.759 C 7.691 -0.601 5.651 1.121 0 0" style="fill: rgb(94, 13, 28); fill-opacity: 1;"/>
      </g>
    </g>
    <g style="clip-path: url(&quot;#clippath0&quot;);">
      <g transform="translate(278.6421 45.5644)">
        <path d="M 0 0 C 1.424 -1.286 2.847 -2.571 4.271 -3.857 C 4.566 -3.675 4.861 -3.493 5.156 -3.311 C 1.964 -0.048 -1.477 3.654 1.136 8.058 C 3.289 11.686 7.005 14.384 10.027 17.494 C 10.446 17.165 10.866 16.835 11.285 16.506 C 8.301 11.936 5.317 7.367 2.411 2.916 C 5.528 3.813 8.471 8.143 14.954 21.728 C 15.865 16.949 16.288 12.224 21.278 10.418 C 21.664 10.623 22.051 10.828 22.437 11.033 C 20.856 14.086 18.98 17.029 17.794 20.229 C 16.947 22.512 16.779 25.136 16.738 27.615 C 16.617 34.957 16.833 42.306 16.635 49.644 C 16.581 51.678 15.545 53.685 14.185 55.579 C 14.23 54.786 14.12 53.946 14.343 53.208 C 16.857 44.893 16.32 36.489 15.025 28.085 C 14.235 22.966 12.897 22.004 7.74 21.716 C 6.512 21.648 5.363 20.637 4.112 20.355 C 2.979 20.099 1.756 20.247 0.244 19.414 C 2.51 18.738 4.776 18.062 7.5 17.25 C 1.784 13.056 -3.415 8.513 -0.233 0.39 C -0.155 0.26 -0.078 0.13 0 0" style="fill: rgb(94, 13, 28); fill-opacity: 1;"/>
      </g>
    </g>
    <g style="clip-path: url(&quot;#clippath0&quot;);">
      <g transform="translate(268.5721 83.0499)">
        <path d="M 0 0 C -2.984 1.593 -5.997 3.2 -8.96 4.781 C -14.699 -3.025 -13.116 -8.24 -4.974 -10.561 C -3.55 -9.334 -2.298 -8.254 -1.452 -7.525 C -0.977 -5.064 -0.558 -2.894 0 0" style="fill: rgb(94, 13, 28); fill-opacity: 1;"/>
      </g>
    </g>
    <g style="clip-path: url(&quot;#clippath0&quot;);">
      <g transform="translate(244.675 97.9161)">
        <path d="M 0 0 C -1.025 -0.831 -2.283 -1.852 -3.725 -3.022 C -4.044 -4.245 -4.459 -5.832 -5.17 -8.555 C -3.646 -10.411 -1.847 -13.753 2.732 -12.979 C 6.76 -12.298 7.133 -8.674 9.478 -5.567 C 7.658 -5.519 6.842 -5.498 5.835 -5.471 C 5.974 -4.424 6.11 -3.402 6.165 -2.987 C 4.091 -1.982 2.268 -1.099 0 0" style="fill: rgb(94, 13, 28); fill-opacity: 1;"/>
      </g>
    </g>
    <g style="clip-path: url(&quot;#clippath0&quot;);">
      <g transform="translate(232.216 68.2878)">
        <path d="M 0 0 C 0.115 -3.89 0.21 -7.106 0.328 -11.079 C 4.014 -11.046 7.572 -11.014 11.838 -10.976 C 10.358 -7.945 13.303 -3.953 9.091 -2.178 C 6.272 -0.989 3.074 -0.701 0 0" style="fill: rgb(94, 13, 28); fill-opacity: 1;"/>
      </g>
    </g>
    <g style="clip-path: url(&quot;#clippath0&quot;);">
      <g transform="translate(294.7226 40.7164)">
        <path d="M 0 0 C -3.262 2.219 -5.942 4.504 -9.394 1.194 C -12.431 -1.719 -12.553 -4.662 -10.803 -8.141 C -10.37 -7.978 -9.945 -7.881 -9.949 -7.81 C -10.373 -0.787 -6.585 1.119 0 0" style="fill: rgb(94, 13, 28); fill-opacity: 1;"/>
      </g>
    </g>
    <g style="clip-path: url(&quot;#clippath0&quot;);">
      <g transform="translate(240.0636 55.0682)">
        <path d="M 0 0 C 3.694 -4.683 13.13 -5.201 17.877 -1.006 C 11.811 -2.484 5.795 -3.27 0 0" style="fill: rgb(94, 13, 28); fill-opacity: 1;"/>
      </g>
    </g>
    <g style="clip-path: url(&quot;#clippath0&quot;);">
      <g transform="translate(252.6915 76.6701)">
        <path d="M 0 0 C -0.82 -1.958 -1.666 -3.907 -2.344 -5.912 C -2.367 -5.979 -0.35 -7.188 0.13 -6.897 C 2.777 -5.288 2.681 -2.934 1.499 -0.485 C 0.999 -0.323 0.5 -0.162 0 0" style="fill: rgb(94, 13, 28); fill-opacity: 1;"/>
      </g>
    </g>
    <g style="clip-path: url(&quot;#clippath0&quot;);">
      <g transform="translate(247.9971 82.217)">
        <path d="M 0 0 C -0.344 -3.394 1.618 -4.336 3.931 -4.699 C 4.347 -4.764 5.519 -3.392 5.397 -2.941 C 4.703 -0.375 2.864 0.504 0 0" style="fill: rgb(94, 13, 28); fill-opacity: 1;"/>
      </g>
    </g>
    <g style="clip-path: url(&quot;#clippath0&quot;);">
      <g transform="translate(242.5642 69.2676)">
        <path d="M 0 0 C 1.162 -2.201 2.91 -3.246 5.41 -2.059 C 5.94 -1.807 6.044 -0.655 6.345 0.082 C 4.38 0.589 2.416 1.095 0.451 1.602 C 0.301 1.068 0.15 0.534 0 0" style="fill: rgb(94, 13, 28); fill-opacity: 1;"/>
      </g>
    </g>
    <g style="clip-path: url(&quot;#clippath0&quot;);">
      <g transform="translate(246.0617 83.4092)">
        <path d="M 0 0 C -1.956 -1.431 -3.298 -2.119 -4.167 -3.191 C -4.525 -3.632 -3.864 -4.9 -3.666 -5.791 C -2.349 -5.055 -0.918 -4.455 0.218 -3.503 C 0.579 -3.201 0.156 -1.96 0 0" style="fill: rgb(94, 13, 28); fill-opacity: 1;"/>
      </g>
    </g>
    <g style="clip-path: url(&quot;#clippath0&quot;);">
      <g transform="translate(242.3605 39.984)">
        <path d="M 0 0 C -1.005 2.816 -2.009 5.632 -3.014 8.448 C -3.409 8.294 -3.803 8.14 -4.197 7.985 C -5.212 4.339 -3.315 1.858 -0.332 -0.188 C -0.332 -0.188 0 0 0 0" style="fill: rgb(94, 13, 28); fill-opacity: 1;"/>
      </g>
    </g>
    <g style="clip-path: url(&quot;#clippath0&quot;);">
      <g transform="translate(224.9005 49.8324)">
        <path d="M 0 0 C 2.833 -2.451 5.649 -4.922 8.516 -7.334 C 9.002 -7.743 9.702 -7.898 10.454 -8.238 C 8.102 -3.587 4.251 -0.623 0.058 -0.113 C 0.053 -0.103 0 0 0 0" style="fill: rgb(94, 13, 28); fill-opacity: 1;"/>
      </g>
    </g>
    <g style="clip-path: url(&quot;#clippath0&quot;);">
      <g transform="translate(260.4665 96.596)">
        <path d="M 0 0 C -3.04 1.555 -6.081 3.109 -9.121 4.664 C -9.362 4.212 -9.604 3.76 -9.845 3.308 C -6.849 1.674 -3.854 0.039 -0.858 -1.596 C -0.572 -1.064 -0.286 -0.532 0 0" style="fill: rgb(94, 13, 28); fill-opacity: 1;"/>
      </g>
    </g>
    <g transform="">
      <path d="M 0.381 -0.655 L 0.381 -0.093 Q 0.381 -0.085 0.272 -0.043 Q 0.162 0 0.138 0 Q 0.113 0 0.082 -0.043 Q 0.05 -0.086 0.05 -0.146 L 0.05 -0.626 Q 0.05 -0.68 0.009 -0.689 L 0.009 -0.711 L 0.11 -0.768 Q 0.132 -0.759 0.151 -0.739 Q 0.17 -0.718 0.17 -0.7 L 0.294 -0.77 Q 0.312 -0.77 0.347 -0.729 Q 0.381 -0.688 0.381 -0.655 Z M 0.221 -0.092 Q 0.24 -0.092 0.26 -0.108 L 0.26 -0.58 Q 0.26 -0.651 0.209 -0.651 Q 0.189 -0.651 0.17 -0.636 L 0.17 -0.166 Q 0.17 -0.092 0.221 -0.092 Z M 0.481 -0.102 L 0.481 -0.607 Q 0.481 -0.64 0.467 -0.664 Q 0.453 -0.688 0.432 -0.688 L 0.432 -0.71 Q 0.439 -0.711 0.541 -0.771 Q 0.548 -0.769 0.558 -0.766 Q 0.568 -0.762 0.585 -0.746 Q 0.601 -0.73 0.601 -0.709 Q 0.607 -0.712 0.635 -0.728 Q 0.709 -0.77 0.727 -0.77 Q 0.744 -0.77 0.766 -0.752 Q 0.787 -0.734 0.798 -0.709 Q 0.8 -0.71 0.839 -0.73 Q 0.917 -0.77 0.933 -0.77 Q 0.965 -0.77 0.993 -0.728 Q 1.021 -0.686 1.021 -0.651 L 1.021 -0.148 Q 1.021 -0.093 1.07 -0.083 L 1.07 -0.061 L 0.961 0 Q 0.939 -0.009 0.92 -0.03 Q 0.901 -0.05 0.901 -0.068 L 0.901 -0.558 Q 0.901 -0.618 0.882 -0.642 Q 0.862 -0.665 0.811 -0.667 L 0.811 -0.148 Q 0.811 -0.093 0.86 -0.083 L 0.86 -0.061 L 0.751 0 Q 0.729 -0.009 0.71 -0.03 Q 0.691 -0.05 0.691 -0.068 L 0.691 -0.558 Q 0.691 -0.621 0.673 -0.644 Q 0.654 -0.667 0.601 -0.667 L 0.601 -0.154 Q 0.601 -0.117 0.609 -0.101 Q 0.617 -0.085 0.642 -0.085 L 0.642 -0.054 L 0.437 0.032 L 0.421 0 Q 0.443 0 0.463 -0.026 Q 0.481 -0.051 0.481 -0.102 Z M 1.241 -0.7 Q 1.354 -0.767 1.362 -0.767 Q 1.371 -0.767 1.391 -0.752 Q 1.411 -0.736 1.431 -0.709 Q 1.451 -0.681 1.451 -0.655 L 1.451 -0.487 Q 1.451 -0.464 1.369 -0.429 Q 1.39 -0.423 1.421 -0.385 Q 1.452 -0.346 1.452 -0.315 L 1.452 -0.093 Q 1.452 -0.085 1.342 -0.043 Q 1.233 0 1.208 0 Q 1.184 0 1.152 -0.043 Q 1.121 -0.086 1.121 -0.146 L 1.121 -0.626 Q 1.121 -0.68 1.08 -0.689 L 1.08 -0.711 L 1.181 -0.768 Q 1.203 -0.759 1.222 -0.739 Q 1.241 -0.718 1.241 -0.7 Z M 1.292 -0.092 Q 1.311 -0.092 1.331 -0.108 L 1.331 -0.263 Q 1.331 -0.337 1.28 -0.337 Q 1.26 -0.337 1.241 -0.322 L 1.241 -0.166 Q 1.241 -0.092 1.292 -0.092 Z M 1.331 -0.6 Q 1.331 -0.627 1.319 -0.647 Q 1.308 -0.666 1.286 -0.666 Q 1.265 -0.666 1.241 -0.636 L 1.241 -0.429 Q 1.331 -0.454 1.331 -0.537 L 1.331 -0.6 Z M 1.546 -0.713 L 1.546 -0.744 Q 1.546 -0.746 1.577 -0.758 Q 1.609 -0.77 1.614 -0.77 Q 1.62 -0.77 1.629 -0.757 Q 1.638 -0.744 1.638 -0.73 L 1.638 -0.69 Q 1.638 -0.668 1.619 -0.622 Q 1.601 -0.575 1.571 -0.558 L 1.537 -0.59 Q 1.55 -0.595 1.556 -0.619 Q 1.563 -0.642 1.563 -0.661 Q 1.563 -0.664 1.554 -0.679 Q 1.546 -0.693 1.546 -0.713 Z M 1.895 -0.606 Q 1.895 -0.65 1.886 -0.668 Q 1.878 -0.685 1.858 -0.685 Q 1.839 -0.685 1.823 -0.665 L 1.823 -0.573 Q 1.823 -0.56 1.822 -0.554 Q 1.821 -0.547 1.814 -0.539 Q 1.808 -0.531 1.794 -0.526 L 1.69 -0.486 L 1.676 -0.5 Q 1.703 -0.53 1.703 -0.564 L 1.703 -0.678 Q 1.703 -0.684 1.808 -0.727 Q 1.914 -0.77 1.932 -0.77 Q 1.951 -0.77 1.983 -0.726 Q 2.015 -0.681 2.015 -0.657 L 2.015 -0.52 Q 2.015 -0.467 1.956 -0.361 Q 1.898 -0.255 1.84 -0.176 L 1.782 -0.096 Q 1.893 -0.098 1.911 -0.098 Q 1.966 -0.098 1.978 -0.131 Q 1.989 -0.13 1.994 -0.13 L 2 -0.13 L 2.056 -0.049 Q 2.053 -0.044 2.048 -0.036 Q 2.042 -0.027 2.022 -0.014 Q 2.003 0 1.98 0 L 1.699 0 Q 1.678 -0.054 1.678 -0.093 Q 1.678 -0.106 1.732 -0.188 Q 1.786 -0.269 1.84 -0.359 Q 1.895 -0.448 1.895 -0.48 L 1.895 -0.606 Z M 2.225 -0.662 L 2.225 -0.478 Q 2.225 -0.438 2.243 -0.438 Q 2.247 -0.438 2.305 -0.464 Q 2.363 -0.49 2.375 -0.49 Q 2.399 -0.49 2.418 -0.447 Q 2.436 -0.404 2.436 -0.343 L 2.436 -0.102 Q 2.436 -0.083 2.322 -0.037 Q 2.207 0.01 2.19 0.01 Q 2.183 0.01 2.174 -0.007 Q 2.165 -0.024 2.151 -0.056 Q 2.136 -0.087 2.125 -0.108 Q 2.113 -0.129 2.093 -0.129 L 2.093 -0.149 Q 2.109 -0.156 2.135 -0.17 Q 2.199 -0.205 2.204 -0.205 Q 2.219 -0.205 2.247 -0.146 Q 2.274 -0.087 2.288 -0.087 Q 2.298 -0.087 2.307 -0.095 Q 2.316 -0.103 2.316 -0.117 L 2.316 -0.33 Q 2.316 -0.375 2.291 -0.375 Q 2.283 -0.375 2.228 -0.351 Q 2.173 -0.327 2.166 -0.327 Q 2.141 -0.327 2.123 -0.365 Q 2.105 -0.403 2.105 -0.458 L 2.105 -0.741 Q 2.105 -0.76 2.132 -0.76 L 2.284 -0.76 Q 2.347 -0.76 2.357 -0.792 L 2.38 -0.793 L 2.435 -0.711 Q 2.428 -0.692 2.407 -0.677 Q 2.386 -0.662 2.364 -0.662 Z" transform="matrix(130.316803, 0, 0, -92.244003, 83.542, 68.689499)" style="fill: rgb(238, 230, 217);"/>
      <path d="M 0 187.74 L 497.611 187.74 L 497.611 0 L 0 0 Z" style="fill: none;"/>
    </g>
    <g style="clip-path: url(&quot;#clippath2&quot;);">
      <g transform="">
        <path d="M 954.984 -27.251 L 10.728 -27.251 L 10.728 -641.06 L 954.984 -641.06 Z" style="fill: none;"/>
      </g>
    </g>
    <g style="clip-path: url(&quot;#clippath3&quot;);">
      <g transform="translate(618.8069 309.972)">
        <path d="M 0 0 C -10.634 19.174 -14.08 42.048 -35.554 55.602 C -44.841 61.464 -48.966 75.332 -55.436 85.563 L -23.111 85.563 C -23.351 86.382 -23.63 89.04 -24.837 91.188 C -40.624 119.291 -36.548 165.983 -16.027 190.637 C -2.922 206.382 6.656 206.503 25.637 191.164 C -6.582 183.534 -18.953 163.237 -10.309 127.386 C -0.25 85.666 15.043 44.935 21.946 2.794 C 27.792 -32.889 27.764 -70.208 24.693 -106.333 C 23.168 -124.266 8.961 -141.142 -0.401 -160.327 L 34.398 -160.327 C 18.7 -183.024 6.63 -200.474 -6.464 -219.405 C -0.58 -222.327 8.15 -226.663 16.88 -230.999 C 17.391 -233.375 17.902 -235.75 18.413 -238.126 C -1.625 -243.427 -21.663 -248.727 -41.701 -254.027 C -7.616 -236.18 0.723 -277.003 24.026 -283.248 C 26.213 -283.834 27.358 -291.612 27.367 -296.054 C 27.385 -304.47 -2.545 -330.724 -11.065 -330.502 C -47.618 -329.551 -61.657 -316.987 -68.127 -279.381 C -76.666 -308.591 -68.003 -326.021 -35.541 -330.953 C -23.061 -332.849 -10.228 -339.153 0.09 -346.63 C 13.229 -356.152 13.68 -366.577 -5.994 -371.064 C 7.215 -385.474 31.749 -397.478 5.76 -420.504 C 30.779 -436.527 31.883 -464.865 30.845 -488.761 C 28.789 -536.126 21.014 -583.371 13.488 -630.335 C 8.628 -660.663 -0.568 -690.284 -6.75 -720.438 C -12.51 -748.533 0.699 -766.625 28.25 -775.821 C 27.25 -778.252 26.25 -780.683 25.249 -783.114 C 15.028 -779.977 4.712 -777.111 -5.385 -773.622 C -14.443 -770.492 -23.258 -766.675 -32.18 -763.161 C -29.935 -737.492 -27.689 -711.822 -25.788 -690.097 C -28.122 -691.396 -37.13 -696.411 -54.331 -705.989 C -52.008 -681.344 -50.384 -664.116 -48.406 -643.125 C -85.345 -671.973 -117.084 -704.157 -169.815 -715.604 C -128.627 -684.362 -93.783 -657.932 -58.94 -631.502 C -49.793 -622.573 -40.646 -613.644 -31.499 -604.714 C 12.729 -561.928 24.386 -510.138 10.501 -451.431 C 9.772 -458.814 9.043 -466.197 8.025 -476.507 C 1.582 -473.821 -2.987 -471.916 -7.309 -470.115 C -11.01 -498.798 -35.21 -503.254 -55.996 -502.87 C -68.078 -502.647 -85.179 -489.935 -90.555 -478.488 C -98.483 -461.606 -85.946 -448.93 -67.727 -444.034 C -68.523 -451.639 -69.389 -459.308 -70.23 -466.761 C -43.994 -475.129 -19.143 -479.4 -9.831 -445.405 C -1.532 -415.114 -13.52 -394.21 -41.575 -383.464 C -35.476 -395.848 -28.627 -409.757 -22.195 -422.817 C -40.646 -431.548 -54.532 -438.12 -68.418 -444.691 C -70.615 -431.639 -72.813 -418.586 -75.01 -405.533 C -75.01 -405.533 -75.521 -406.155 -75.521 -406.155 C -69.952 -410.811 -64.384 -415.467 -58.815 -420.123 C -56.34 -420.023 -53.865 -419.922 -51.39 -419.821 C -53.303 -411.148 -52.256 -398.408 -57.672 -394.548 C -75.683 -381.712 -95.216 -372.111 -119.425 -372.191 C -208.457 -372.487 -243.293 -318.273 -206.34 -238.913 L -207.212 -239.742 C -177.232 -229.952 -147.393 -219.707 -117.219 -210.544 C -99.245 -205.085 -80.211 -202.791 -62.589 -196.506 C -23.49 -182.56 -11.86 -157.21 -17.378 -101.03 C -8.42 -99.327 0.684 -97.595 15.658 -94.748 C 11.395 -69.074 6.797 -41.378 2.199 -13.681 C 1.466 -9.121 0.733 -4.561 0 0" style="fill: rgb(111, 14, 30); fill-opacity: 1;"/>
      </g>
    </g>
    <g style="clip-path: url(&quot;#clippath3&quot;);">
      <g transform="translate(424.2937 176.6704)">
        <path d="M 0 0 C 6.524 -5.268 13.048 -10.536 18.44 -14.89 C 66.187 12.707 47.888 -52.596 71.442 -52.165 C 78.664 -45.041 84.711 -39.075 90.759 -33.109 C 94.236 -37.983 101.732 -45.021 100.458 -47.337 C 96.156 -55.161 87.784 -67.716 82.689 -66.969 C 62.753 -64.045 43.202 -57.489 24.032 -50.808 C 4.673 -44.061 -13.445 -32.232 -33.222 -28.64 C -61.327 -23.534 -72.087 -34.477 -74.225 -62.099 C -93.605 -45.916 -92.088 -22.982 -67.674 -13.776 C -46.218 -5.686 -22.061 -4.61 0.904 -0.436 C 0.904 -0.436 0 0 0 0" style="fill: rgb(111, 14, 30); fill-opacity: 1;"/>
      </g>
    </g>
    <g style="clip-path: url(&quot;#clippath3&quot;);">
      <g transform="translate(524.5366 274.0302)">
        <path d="M 0 0 C -9.493 -24.307 -18.986 -48.613 -28.217 -72.249 C -3.552 -78.222 0.74 -91.512 -22.737 -116.099 C -21.067 -71.838 -58.321 -90.051 -78.267 -80.864 C -96.035 -72.681 -116.233 -69.667 -135.359 -64.372 C -134.691 -62.156 -134.023 -59.94 -133.355 -57.724 C -115.401 -61.34 -97.377 -68.317 -79.507 -67.951 C -22.882 -66.792 1.757 -27.125 -15.002 29.731 C -19.81 46.043 -19.621 63.798 -22.351 86.009 C 0.832 80.24 14.729 76.783 28.626 73.325 C -8.465 63.008 -13.489 50.375 -0.212 -0.721 C -0.214 -0.702 0 0 0 0" style="fill: rgb(111, 14, 30); fill-opacity: 1;"/>
      </g>
    </g>
    <g style="clip-path: url(&quot;#clippath3&quot;);">
      <g transform="translate(364.0552 50.9516)">
        <path d="M 0 0 C 8.353 -12.858 21.201 -25.072 23.218 -38.839 C 24.27 -46.024 7.031 -61.964 -3.316 -63.263 C -20.147 -65.375 -35.479 -53.176 -32.392 -34.322 C -30.4 -22.158 -19.246 -11.464 -12.198 -0.111 C -8.132 -0.074 -4.066 -0.037 0 0" style="fill: rgb(111, 14, 30); fill-opacity: 1;"/>
      </g>
    </g>
    <g style="clip-path: url(&quot;#clippath3&quot;);">
      <g transform="translate(412.4667 71.0593)">
        <path d="M 0 0 C -5.115 -2.127 -10.598 -3.662 -15.277 -6.495 C -28.578 -14.551 -42.39 -16.547 -46.325 0.954 C -48.393 10.153 -43.147 26.651 -35.832 30.995 C -22.258 39.057 -8.348 33.897 -4.55 15.433 C -3.429 9.985 -2.138 4.571 -0.898 -0.844 C -0.872 -0.829 0 0 0 0" style="fill: rgb(111, 14, 30); fill-opacity: 1;"/>
      </g>
    </g>
    <g style="clip-path: url(&quot;#clippath3&quot;);">
      <g transform="translate(428.775 130.6193)">
        <path d="M 0 0 C 7.502 -11.905 16.054 -19.512 14.935 -25.285 C 13.68 -31.76 3.683 -36.577 -2.511 -42.115 C -7.975 -35.891 -17.275 -29.941 -17.759 -23.358 C -18.189 -17.51 -8.838 -10.958 0 0" style="fill: rgb(111, 14, 30); fill-opacity: 1;"/>
      </g>
    </g>
    <g style="clip-path: url(&quot;#clippath3&quot;);">
      <g transform="translate(425.1974 176.2348)">
        <path d="M 0 0 L -54.376 0 C -42.678 20.137 -21.13 26.436 0.078 11.673 C 1.6 10.614 -0.583 4.339 -0.973 0.463 C -0.904 0.435 0 0 0 0" style="fill: rgb(111, 14, 30); fill-opacity: 1;"/>
      </g>
    </g>
    <g style="clip-path: url(&quot;#clippath2&quot;);">
      <g transform="">
        <path d="M 887.417 -657.972 L 77.551 -657.972 L 77.551 -1506.521 L 887.417 -1506.521 Z" style="fill: none;"/>
      </g>
    </g>
    <g style="clip-path: url(&quot;#clippath4&quot;);">
      <g transform="translate(706.8929 -76.6522)">
        <path d="M 0 0 C -18.862 29.999 -24.975 65.787 -63.064 86.993 C -79.536 96.164 -86.854 117.862 -98.329 133.87 L -40.993 133.87 C -41.419 135.151 -41.914 139.31 -44.054 142.669 C -72.056 186.64 -64.826 259.693 -28.428 298.265 C -5.182 322.899 11.806 323.089 45.473 299.09 C -11.675 287.152 -33.618 255.397 -18.286 199.304 C -0.444 134.031 26.683 70.304 38.927 4.371 C 49.295 -51.457 49.246 -109.845 43.798 -166.366 C 41.094 -194.422 15.895 -220.827 -0.712 -250.844 L 61.013 -250.844 C 33.169 -286.353 11.761 -313.656 -11.465 -343.274 C -1.029 -347.846 14.456 -354.63 29.94 -361.414 C 30.846 -365.131 31.753 -368.848 32.659 -372.566 C -2.883 -380.858 -38.425 -389.151 -73.967 -397.444 C -13.509 -369.52 1.282 -433.391 42.615 -443.161 C 46.496 -444.078 48.526 -456.248 48.542 -463.198 C 48.573 -476.364 -4.514 -517.44 -19.627 -517.094 C -84.462 -515.607 -109.364 -495.949 -120.839 -437.112 C -135.985 -482.813 -120.62 -510.083 -63.04 -517.8 C -40.904 -520.767 -18.141 -530.629 0.159 -542.328 C 23.464 -557.225 24.265 -573.536 -10.631 -580.556 C 12.797 -603.101 56.314 -621.882 10.216 -657.909 C 54.595 -682.977 56.552 -727.314 54.711 -764.701 C 51.064 -838.807 37.273 -912.726 23.925 -986.203 C 15.304 -1033.654 -1.007 -1079.999 -11.973 -1127.176 C -22.19 -1171.134 1.24 -1199.439 50.108 -1213.827 C 48.334 -1217.63 46.56 -1221.434 44.785 -1225.237 C 26.656 -1220.329 8.357 -1215.846 -9.552 -1210.386 C -25.617 -1205.489 -41.253 -1199.518 -57.079 -1194.02 C -53.096 -1153.858 -49.113 -1113.696 -45.741 -1079.705 C -49.881 -1081.738 -65.859 -1089.585 -96.37 -1104.57 C -92.249 -1066.012 -89.369 -1039.057 -85.859 -1006.216 C -151.38 -1051.35 -207.676 -1101.704 -301.208 -1119.614 C -228.151 -1070.733 -166.347 -1029.382 -104.544 -988.03 C -88.319 -974.06 -72.095 -960.089 -55.871 -946.118 C 22.578 -879.176 43.254 -798.147 18.626 -706.296 C 17.333 -717.847 16.04 -729.398 14.235 -745.529 C 2.806 -741.327 -5.298 -738.346 -12.964 -735.528 C -19.528 -780.405 -62.453 -787.377 -99.323 -786.776 C -120.753 -786.427 -151.086 -766.538 -160.62 -748.628 C -174.683 -722.215 -152.446 -702.382 -120.129 -694.723 C -121.542 -706.622 -123.077 -718.62 -124.57 -730.28 C -78.034 -743.373 -33.956 -750.056 -17.437 -696.868 C -2.718 -649.476 -23.981 -616.77 -73.743 -599.957 C -62.926 -619.332 -50.776 -641.094 -39.369 -661.527 C -72.095 -675.188 -96.725 -685.47 -121.355 -695.751 C -125.253 -675.33 -129.151 -654.908 -133.049 -634.486 C -133.049 -634.486 -133.954 -635.459 -133.954 -635.459 C -124.077 -642.744 -114.2 -650.028 -104.323 -657.313 C -99.932 -657.155 -95.542 -656.997 -91.152 -656.84 C -94.546 -643.271 -92.689 -623.338 -102.296 -617.299 C -134.242 -597.215 -168.888 -582.194 -211.828 -582.32 C -369.748 -582.782 -431.538 -497.961 -365.994 -373.796 L -367.54 -375.094 C -314.364 -359.776 -261.437 -343.747 -207.917 -329.41 C -176.035 -320.871 -142.273 -317.281 -111.016 -307.447 C -41.666 -285.627 -21.037 -245.967 -30.824 -158.069 C -14.934 -155.404 1.214 -152.695 27.772 -148.24 C 20.212 -108.071 12.057 -64.738 3.901 -21.406 C 2.6 -14.27 1.3 -7.135 0 0" style="fill: rgb(218, 207, 189); fill-opacity: 1;"/>
      </g>
    </g>
    <g style="clip-path: url(&quot;#clippath4&quot;);">
      <g transform="translate(539.6819 -132.8857)">
        <path d="M 0 0 C -16.838 -38.029 -33.676 -76.059 -50.05 -113.039 C -6.301 -122.384 1.312 -143.176 -40.329 -181.645 C -37.368 -112.396 -103.446 -140.891 -138.826 -126.518 C -170.341 -113.715 -206.167 -108.999 -240.091 -100.714 C -238.906 -97.247 -237.721 -93.78 -236.536 -90.314 C -204.692 -95.972 -172.722 -106.887 -141.024 -106.315 C -40.587 -104.5 3.117 -42.439 -26.61 46.517 C -35.138 72.038 -34.802 99.816 -39.645 134.567 C 1.475 125.542 26.125 120.132 50.776 114.722 C -15.014 98.58 -23.926 78.815 -0.375 -1.129 C -0.38 -1.098 0 0 0 0" style="fill: rgb(218, 207, 189); fill-opacity: 1;"/>
      </g>
    </g>
    <g style="clip-path: url(&quot;#clippath4&quot;);">
      <g transform="translate(544.2549 151.9158)">
        <path d="M 0 0 C -75.942 -22.369 -131.86 23.081 -124.635 101.322 C -124.625 101.333 -125.761 100.378 -125.75 100.389 C -118.994 97.38 -106.406 94.416 -106.367 91.332 C -105.582 29.276 -57.17 10.379 0.758 -0.683 C 0.925 -0.82 0 0 0 0" style="fill: rgb(218, 207, 189); fill-opacity: 1;"/>
      </g>
    </g>
  </g>
</svg>