<?xml version="1.0" encoding="utf-8"?>
<svg xmlns="http://www.w3.org/2000/svg" width="1406.85px" height="1363.41px" viewBox="0 0 1406.85 1363.41">
  <defs>
    <clipPath id="clippath0" transform="">
      <path d="M 0 1363.407 L 1406.855 1363.407 L 1406.855 0 L 0 0 Z" style="fill: none; clip-rule: nonzero;"/>
    </clipPath>
    <clipPath id="clippath1" transform="" style="clip-path: url(&quot;#clippath0&quot;);">
      <path d="M 0 1426.43 L 1042.039 1426.43 L 1042.039 2443.615 L 0 2443.615 Z" style="fill: none; clip-rule: nonzero;"/>
    </clipPath>
  </defs>
  <g class="page-1" transform="matrix(1, 0, 0, -1, 0, 1363.41)">
    <g transform="">
      <path d="M 0 1363.407 L 1406.855 1363.407 L 1406.855 0 L 0 0 Z" style="fill: none;"/>
    </g>
    <g style="clip-path: url(&quot;#clippath0&quot;);">
      <g transform="">
        <path d="M 0 1426.43 L 1042.039 1426.43 L 1042.039 2443.615 L 0 2443.615 Z" style="fill: none;"/>
      </g>
    </g>
    <g style="clip-path: url(&quot;#clippath1&quot;);">
      <g transform="translate(15.3428 1574.223)">
        <path d="M 0 0 C 8.171 4.963 12.985 0.494 62.299 0 C 89.231 -0.269 92.685 1.015 115.076 0 C 128.896 -0.626 145.112 -1.413 165.683 -4.879 C 184.516 -8.053 204.669 -11.449 229.3 -22.311 C 252.109 -32.369 268.968 -44.512 279.524 -53.152 C 282.405 -55.51 293.706 -64.881 306.98 -79.969 C 312.056 -85.739 331.073 -107.862 348.022 -142.12 C 369.244 -185.012 376.992 -226.248 379.945 -255.088 L 379.945 -297.906 L 362.581 -271.486 C 340.692 -223.433 315.782 -191.035 297.065 -170.362 C 278.252 -149.582 276.256 -152.314 245.198 -119.344 C 210.951 -82.989 205.647 -71.462 186.051 -64.683 C 169.408 -58.925 152.814 -61.755 119.625 -67.416 C 91.785 -72.164 70.82 -79.391 47.739 -87.458 C 24.81 -95.474 6.091 -103.363 -7.196 -109.323 C -22.889 -33.696 -13.371 -8.121 0 0" style="fill: rgb(172, 93, 39); fill-opacity: 1;"/>
      </g>
    </g>
    <g style="clip-path: url(&quot;#clippath1&quot;);">
      <g transform="translate(110.6385 1392.473)">
        <path d="M 0 0 L 195.828 -19.533 L 331.055 -63.315 L 422.816 -127.978 L 387.567 -134.713 L 327.691 -83.522 L 201.21 -51.865 L 73.384 -36.373 L 144.698 -73.419 L 235.439 -134.713 L 139.315 -131.346 L 90.203 -86.217 L -4.657 -59.947 L -102.491 -70.724 L -110.639 -29.066 L -110.639 -22.228 L 81.457 90.932 L 198.519 167.045 L 271 243.158 L 242.249 260.671 L 168.245 172.433 L 74.057 116.527 L -22.822 54.559 L -105.572 6.736 L -121.719 -20.88" style="fill: rgb(172, 93, 39); fill-opacity: 1;"/>
      </g>
    </g>
    <g style="clip-path: url(&quot;#clippath1&quot;);">
      <g transform="translate(488.7869 1628.2216)">
        <path d="M 0 0 L -96.206 -77.46 L -172.902 -121.242 L -327.638 -204.764 L -434.609 -276.162 L -383.478 -264.712 L -279.872 -201.792 L -152.046 -133.366 L -83.423 -91.351 L 11.437 -12.124 Z" style="fill: rgb(172, 93, 39); fill-opacity: 1;"/>
      </g>
    </g>
    <g style="clip-path: url(&quot;#clippath0&quot;);">
      <g transform="translate(353.2469 560.9327)">
        <path d="M 0 0 C -0.783 34.529 -1.565 69.058 -2.348 103.586 C -22.28 79.591 -20.548 33.895 0 0 M 38.89 220.455 C 30.144 198.63 -1.819 183.671 17.375 152.277 C 14.049 159.248 10.722 166.219 4.139 180.015 C -1.371 161.263 -4.916 149.194 -8.462 137.126 C -6.245 135.769 -4.028 134.412 -1.811 133.054 C 29.783 157.398 65.329 163.574 102.974 155.543 C 108.619 201.212 125.627 194.675 179.501 185.212 C 168.368 174.758 158.518 165.509 145.74 153.51 C 179.409 155.282 209.569 149.308 208.126 108.758 C 180.675 80.65 158.269 106.982 132.201 120.593 C 133.451 108.8 134.12 102.493 134.817 95.914 C 93.943 91.921 101.276 121.36 101.08 144.822 C 70.103 150.699 41.432 155.353 18.266 129.414 C 3.715 129.056 -1.043 122.391 3.539 108.198 C 7.096 97.178 9.335 85.731 16.209 74.591 C 16.618 93.09 17.027 111.588 17.468 130.059 C 35.111 99.96 52.721 69.89 70.332 39.82 C 68.609 38.308 66.885 36.797 65.162 35.285 C 52.137 50.339 39.112 65.393 27.778 78.493 C 19.816 48.165 11.381 16.588 3.404 -15.105 C 2.489 -18.739 3.273 -23.366 4.717 -26.946 C 19.716 -64.13 45.127 -91.68 81.954 -111.924 C 81.232 -107.355 81.337 -105.598 80.678 -104.203 C 57.593 -55.392 61.991 -39.182 105.823 -11.171 C 108.41 -9.518 111.273 -7.351 112.54 -4.716 C 129.835 31.241 130.65 31.676 176.408 15.949 L 154.384 9.426 C 205.29 -1.567 213.947 -10.977 209.155 -53.478 C 186.352 -48.139 164.344 -42.986 140.775 -37.467 C 143.679 -45.587 146.209 -52.658 148.631 -59.43 C 116.325 -65.592 111.641 -44.358 109.974 -21.971 C 81.708 -27.058 75.65 -44.919 78.287 -67.658 C 81.34 -93.982 95.749 -113.266 117.879 -126.981 C 149.669 -146.684 184.278 -148.965 221.6 -143.884 C 203.149 -133.727 186.068 -124.324 168.987 -114.921 C 170.043 -112.47 171.099 -110.019 172.155 -107.569 C 184.002 -111.671 195.888 -115.669 207.688 -119.905 C 221.305 -124.792 235.635 -135.653 248.286 -133.917 C 308.619 -125.638 355.606 -93.777 388.674 -42.689 C 407.09 -14.236 393.254 16.434 360.644 28.448 C 345.409 34.06 332.025 44.714 317.802 53.082 C 319.516 56.008 321.23 58.934 322.944 61.86 C 341.311 52.727 359.677 43.594 372.344 37.296 C 381.527 79.519 383.504 124.811 401.845 162.006 C 417.828 194.419 413.059 216.991 397.845 243.193 C 389.38 257.774 379.86 271.74 370.815 285.983 L 371.52 285.307 C 370.959 288.483 370.398 291.659 369.689 295.674 C 406.641 281.051 442.335 266.926 478.514 252.609 C 448.716 235.472 424.944 260.331 396.598 268.795 C 407.363 245.363 416.654 225.141 424.202 208.712 C 453.11 223.248 480.702 237.123 508.294 250.998 L 507.583 251.717 C 505.435 247.804 504.247 242.573 500.986 240.187 C 474.867 221.088 448.356 202.526 421.965 183.8 C 390.741 130.401 377.822 74.338 397.552 13.634 C 399.082 8.926 401.762 4.593 406.299 -4.939 C 433.606 59.408 433.504 121.113 421.977 183.911 C 429.511 153.24 437.048 122.557 443.785 95.13 C 456.628 102.32 472.398 111.148 487.447 119.572 C 522.55 81.705 521.939 71.305 488.612 38.265 C 476.977 42.047 467.764 45.042 458.54 48.04 C 453.29 55.381 446.939 64.261 438.782 75.668 C 433.966 53.392 434.588 32.282 425.184 17.628 C 403.838 -15.636 420.808 -37.344 441.667 -59.089 C 455.117 -73.111 469.968 -85.845 484.791 -98.448 C 489.677 -102.603 497.535 -108.254 502.17 -106.885 C 531.511 -98.221 554.322 -114.973 579.346 -124.005 C 595.461 -129.822 612.451 -133.204 629.049 -137.677 L 630.583 -135.81 C 671.934 -148.386 709.622 -134.566 740.1 -110.353 C 773.325 -83.957 800.229 -49.579 829.889 -18.68 C 830.643 -19.271 831.397 -19.861 832.151 -20.452 C 828.692 -28.823 826.698 -38.254 821.541 -45.395 C 782.994 -98.774 734.665 -136.467 667.505 -148.968 C 639.099 -154.255 612.554 -169.57 585.163 -180.327 C 584.125 -178.21 583.088 -176.093 582.05 -173.975 C 588.625 -168.186 595.199 -162.397 604.109 -154.552 C 596.927 -153.91 592.828 -154.077 589.01 -153.117 C 559.174 -145.62 526.042 -145.763 505.114 -117.311 C 527.41 -125.35 549.654 -133.546 572.056 -141.278 C 575.857 -142.59 580.344 -141.911 585.552 -142.212 C 561.103 -120.088 531.633 -111.332 505.712 -117.848 C 500.767 -128.257 493.881 -138.269 491.414 -149.274 C 486.962 -169.142 477.831 -181.073 456.205 -182.896 C 448.815 -183.52 440.02 -188.355 435.131 -194.069 C 417.282 -214.926 404.287 -217.41 377.502 -201.373 C 383.301 -196.789 388.649 -192.562 396.161 -186.625 C 332.337 -187.38 332.337 -187.38 324.616 -158.247 C 349.817 -125.745 373.222 -141.048 393.167 -162.159 C 396.056 -150.147 396.191 -135.606 400.655 -134.121 C 408.408 -131.541 419.511 -135.658 427.843 -139.756 C 431.642 -141.624 430.806 -151.448 434.505 -155.348 C 441.231 -162.44 450.137 -173.013 457.463 -172.503 C 465.716 -171.928 476.165 -162.184 480.352 -153.776 C 486.128 -142.176 486.937 -128.092 489.818 -115.315 C 474.593 -102.458 458.724 -90.892 445.143 -77.071 C 431.686 -63.376 420.536 -47.407 408.166 -32.18 C 356.065 -103.689 332.053 -120.568 249.9 -148.729 C 233.126 -154.478 218.616 -166.566 202.271 -173.979 C 194.323 -177.584 184.547 -177.144 175.599 -178.536 C 174.654 -176.354 173.708 -174.172 172.763 -171.99 C 179.04 -168.141 185.316 -164.291 195.678 -157.936 C 174.804 -154.215 160.564 -152.566 146.791 -149.071 C 78.468 -131.733 26.643 -92.005 -9.774 -31.782 C -26.862 -1.991 -43.95 27.801 -61.038 57.593 C -59.011 59.145 -56.984 60.698 -54.957 62.251 C -49.705 56.214 -43.791 50.622 -39.373 44.024 C -34.313 36.467 -30.581 28.017 -28.66 24.422 C -25.864 60.795 -22.854 100.575 -19.726 140.346 C -18.351 157.833 -40.644 188.896 -68.878 206.598 C -65.336 164.86 -92.39 173.444 -122.195 181.423 C -91.932 134.573 -82.17 89.266 -87.926 41.846 C -91.478 12.584 -100.3 -16.065 -107.193 -44.884 C -113.475 -71.145 -114.572 -96.619 -98.347 -123.163 C -56.747 -102.833 -32.668 -67.374 -9.348 -31.073 C -12.12 -41.223 -11.784 -54.53 -18.259 -61.092 C -45.182 -88.376 -74.158 -113.626 -102.381 -139.622 L -101.807 -139.182 C -120.205 -143.682 -138.602 -148.182 -156.999 -152.682 C -157.402 -150.798 -157.806 -148.914 -158.209 -147.029 C -142.081 -141.079 -125.954 -135.129 -109.925 -129.214 C -114.915 -112.45 -118.943 -98.922 -123.777 -82.684 C -136.772 -96.784 -149.632 -108.231 -159.17 -121.99 C -165.259 -130.772 -171.434 -144.466 -168.798 -153.345 C -162.728 -173.793 -172.403 -183.707 -186.052 -194.846 C -193.347 -186.641 -199.654 -179.547 -206.31 -172.06 C -220.802 -210.238 -220.802 -210.238 -263.975 -209.614 C -269.397 -175.158 -261.341 -149.804 -221.029 -145.398 C -228.218 -143.331 -235.407 -141.264 -242.386 -139.257 C -241.385 -114.874 -230.808 -107.458 -210.01 -117.531 C -190.512 -126.974 -176.043 -123.531 -159.565 -109.068 C -119.417 -73.83 -111.45 -25.289 -98.743 23.153 C -105.633 20.301 -110.746 18.185 -118.099 15.141 C -80.465 98.928 -101.539 162.865 -184.353 223.775 C -153.487 262.417 -151.464 263.055 -108.142 247.153 C -107.773 253.754 -107.42 260.056 -107.037 266.891 C -84.716 260.071 -58.335 260.031 -66.364 226.246 C -66.926 223.882 -63.835 220.079 -61.626 217.711 C -45.258 200.168 -28.682 182.819 -12.131 165.365 C -4.246 178.08 3.776 191.016 11.797 203.952 L 11.109 203.311 C 20.594 208.775 30.08 214.24 39.565 219.704 Z" style="fill: rgb(209, 168, 75); fill-opacity: 1;"/>
      </g>
    </g>
    <g style="clip-path: url(&quot;#clippath0&quot;);">
      <g transform="translate(884.5711 1072.5181)">
        <path d="M 0 0 C 26.671 4.362 52.385 14.588 78.524 22.211 C 77.867 24.341 77.211 26.472 76.554 28.602 C 45.619 21.078 14.98 11.715 -16.353 6.656 C -38.424 3.092 -61.495 4.281 -84.006 5.478 C -96.482 6.142 -101.322 2.933 -99.951 -9.288 C -105.817 -9.917 -111.644 -10.536 -121.959 -11.633 C -52.933 -23.603 11.836 -34.836 78.801 -46.449 C 33.201 -20.923 -14.955 -15.714 -64.025 -13.78 C -76.31 -13.295 -88.502 -10.44 -100.737 -8.674 C -67.122 -6.003 -33.166 -5.424 0 0 M 108.103 -274.529 C 117.867 -261.848 128.284 -249.595 137.38 -236.426 C 154.858 -211.127 159.84 -185.15 153 -167.153 C 143.972 -178.176 134.215 -190.09 124.458 -202.004 C 121.707 -200.027 118.957 -198.05 116.206 -196.073 C 124.354 -183.103 133.165 -170.491 140.377 -157.019 C 144.155 -149.961 147.026 -141.393 147.015 -133.511 C 146.979 -107.625 124.581 -74.904 99.991 -67.449 C 63.597 -56.414 26.787 -46.324 -10.421 -38.614 C -26.393 -35.304 -43.933 -40.509 -60.538 -39.14 C -88.942 -36.798 -117.168 -32.306 -145.474 -28.762 C -153.862 -27.712 -163.276 -28.825 -170.374 -25.259 C -177.012 -21.924 -185.082 -13.833 -185.297 -7.586 C -185.486 -2.122 -176.59 6.011 -169.968 8.757 C -161.717 12.18 -151.57 10.678 -142.439 12.37 C -115.283 17.403 -88.228 22.987 -61.108 28.223 C -59.817 28.473 -58.281 27.446 -54.734 26.367 C -60.706 20.999 -65.755 16.459 -76.061 7.194 C -0.064 16.856 67.434 29.749 128.61 65.44 L 128.505 65.431 C 145.158 75.357 162.085 84.864 178.264 95.511 C 182.162 98.076 186.192 104.739 185.676 108.969 C 183.67 125.431 177.667 141.64 177.429 158.005 C 177.246 170.647 183.45 183.382 186.814 196.075 C 189.378 195.599 191.942 195.123 194.506 194.647 C 198.602 178.008 202.698 161.37 206.974 144 C 239.284 178.655 243.239 177.96 255.553 138.741 C 247.749 131.788 240.512 125.341 233.276 118.894 C 234.401 116.55 235.525 114.207 236.649 111.864 C 254.196 114.128 271.743 116.393 288.92 118.61 C 278.202 83.531 263.749 81.467 214.117 107.773 C 159.199 70.717 104.931 34.1 46.349 -5.429 C 79.154 -4.685 108.304 -4.025 137.454 -3.364 C 137.439 -5.937 137.424 -8.51 137.409 -11.083 C 120.747 -11.46 104.085 -11.838 87.422 -12.216 C 71.452 -12.578 55.482 -12.939 39.512 -13.301 C 53.899 -23.441 68.471 -28.386 81.432 -36.062 C 96.381 -44.914 109.228 -57.345 124.226 -66.09 C 142.481 -76.734 163.545 -83.012 180.601 -95.124 C 198.685 -107.967 213.411 -110.994 233.913 -100.066 C 256.199 -88.186 273.834 -97.008 284.011 -119.967 C 270.179 -122.866 256.422 -125.749 240.321 -129.122 C 247.896 -135.707 253.412 -140.502 260.037 -146.261 C 248.482 -156.119 238.091 -164.983 227.671 -173.872 C 219.928 -164.398 214.855 -158.193 205.977 -147.331 C 202.506 -168.098 199.934 -183.485 197.002 -201.025 C 172.304 -184.567 173.755 -165.362 185.012 -146.06 C 197.146 -125.254 192.646 -111.101 172.04 -100.353 C 161.776 -94.999 151.856 -88.982 138.875 -81.616 C 147.679 -105.123 156.775 -124.099 161.889 -144.095 C 175.298 -196.514 149.527 -256.107 107.374 -273.992 C 107.374 -273.992 108.159 -274.542 108.103 -274.529" style="fill: rgb(209, 168, 75); fill-opacity: 1;"/>
      </g>
    </g>
    <g style="clip-path: url(&quot;#clippath0&quot;);">
      <g transform="translate(897.7114 807.3625)">
        <path d="M 0 0 C -0.398 -3.215 -0.797 -6.431 -1.195 -9.646 C 20.207 -12.497 41.608 -15.347 63.01 -18.198 C 63.491 -14.406 63.972 -10.614 64.453 -6.823 C 42.969 -4.548 21.484 -2.274 0 0 M -36.149 4.52 C -43.929 31.849 -51.209 59.39 -59.752 86.533 C -63.935 99.825 -67.397 120.251 -76.498 123.808 C -105.514 135.151 -101.621 163.706 -116.859 181.332 C -114.136 183.352 -111.414 185.372 -108.692 187.392 C -87.973 160.174 -67.253 132.956 -46.81 106.101 C -12.306 138.92 39.87 170.545 69.092 125.733 C 63.642 124.389 58.897 123.218 51.463 121.384 C 80.717 112.39 98.627 86.621 84.454 75.884 C 67.745 63.226 77.093 46.11 70.886 38.342 C 53.729 43.64 39.821 47.934 24.494 52.666 C 23.084 61.306 21.289 72.298 19.053 85.996 C 13.221 75.578 9.387 68.73 3.957 59.029 C -2.699 73.919 -7.701 85.109 -14.284 99.837 C -13.263 102.789 -10.695 110.21 -6.981 120.946 C -14.941 119.124 -19.308 119.143 -22.53 117.228 C -55.179 97.828 -56.919 32.467 -25.343 9.372 C -22.494 7.288 -17.651 6.273 -14.176 6.97 C 24.209 14.67 59.723 3.918 94.962 -9.373 C 95.019 -9.387 94.234 -8.836 94.287 -8.848 C 145.667 -31.454 196.994 -54.048 248.32 -76.642 C 247.828 -78.654 247.335 -80.665 246.842 -82.677 C 216.968 -74.623 187.094 -66.569 155.099 -57.944 C 193.861 -108.254 197.754 -163.784 177.021 -218.643 C 159.98 -263.733 163.208 -308.643 162.696 -354.578 C 139.925 -325.281 151.839 -291.34 152.302 -256.214 C 126.873 -265.01 104.257 -265.461 81.376 -251.416 C 69.493 -204.281 88.614 -195.173 135.939 -184.715 C 144.824 -194.701 151.578 -202.293 155.233 -206.401 C 155.461 -216.457 155.638 -224.257 155.815 -232.057 C 158.055 -232.03 160.295 -232.002 162.536 -231.974 C 166.759 -216.444 171.564 -201.046 175.102 -185.361 C 188.94 -124.02 156.32 -51.487 102.449 -24.452 C 95.514 -20.972 85.614 -17.525 79.191 -19.862 C 34.818 -36.008 -2.174 -21.434 -36.881 5.287 C -36.881 5.287 -36.171 4.568 -36.149 4.52" style="fill: rgb(209, 168, 75); fill-opacity: 1;"/>
      </g>
    </g>
    <g style="clip-path: url(&quot;#clippath0&quot;);">
      <g transform="translate(1084.0847 1066.6758)">
        <path d="M 0 0 C 68.918 -27.568 144.996 -45.709 171.365 -129.599 C 174.845 -140.667 177.008 -152.151 180.654 -166.997 C 159.661 -163.658 140.666 -160.49 137.875 -187.677 C 143.353 -187.992 148.789 -188.305 154.385 -188.627 C 144.885 -214.954 144.885 -214.954 166.192 -247.674 C 196.551 -245.566 209.454 -226.518 212.843 -197.018 C 219.942 -198.36 226.226 -199.547 232.137 -200.665 C 240.032 -188.104 215.895 -166.931 190.281 -163.709 C 175.456 -89.427 136.305 -35.061 57.708 -13.953 C 104.748 -5.62 146.293 -23.457 171.507 -59.817 C 177.132 -67.929 187.084 -73.029 196.976 -76.853 C 181.218 -21.952 133 -13.735 88.409 -1.559 C 132.134 -0.568 176.345 0.434 220.555 1.436 C 220.511 4.695 220.468 7.954 220.424 11.213 C 173.895 21.045 127.214 10.646 81.007 6.46 C 106.835 15.043 133.827 21.267 158.305 32.83 C 189.957 47.782 203.552 74.674 197.719 100.004 C 183.799 82.638 172.956 60.333 155.151 49.17 C 131.719 34.479 103.229 27.095 76.134 19.286 C 51.88 12.297 26.567 8.991 1.721 4.06 C 1.003 2.768 0.429 1.415 0 0" style="fill: rgb(209, 168, 75); fill-opacity: 1;"/>
      </g>
    </g>
    <g style="clip-path: url(&quot;#clippath0&quot;);">
      <g transform="translate(1171.5128 429.0492)">
        <path d="M 0 0 C 2.683 -7.613 4.834 -13.716 8.384 -23.787 C -9.993 -9.621 -26.462 -1.562 -43.673 -20.231 C -52.123 -29.397 -49.569 -51.655 -35.364 -57.16 C -23.877 -61.612 -9.892 -59.596 3.223 -60.465 C 2.852 -63.373 1.924 -70.644 0.995 -77.914 C 9.204 -76.737 18.032 -73.045 25.499 -74.888 C 43.043 -79.218 48.029 -67.367 55.54 -56.495 C 58.541 -52.151 65.232 -48.376 70.534 -47.948 C 96.823 -45.828 112.382 -31.732 118.558 -4.452 C 126.476 -12.657 132.577 -18.979 138.679 -25.302 C 140.746 -24.514 142.814 -23.726 144.882 -22.937 C 142.232 -14.442 140.422 -5.563 136.757 2.467 C 129.279 18.85 118.736 34.1 113.224 51.047 C 105.015 76.283 93.619 96.71 68.571 104.792 C 81.136 83.083 97.538 62.994 104.525 40.03 C 109.983 22.089 106.032 0.044 101.542 -19.065 C 99.86 -26.224 85.209 -33.304 75.75 -34.448 C 70.675 -35.062 61.521 -24.002 58.603 -16.496 C 46.781 13.918 30.82 19.454 0 0" style="fill: rgb(209, 168, 75); fill-opacity: 1;"/>
      </g>
    </g>
    <g style="clip-path: url(&quot;#clippath0&quot;);">
      <g transform="translate(1185.3979 540.4808)">
        <path d="M 0 0 C 11.326 -4.357 22.652 -8.715 33.979 -13.073 C 35.307 -11.328 36.636 -9.584 37.964 -7.839 C 11.709 4.179 -17.022 18.224 -11.592 50.166 C -7.12 76.473 8.692 100.846 19.478 126.076 C 22.701 125.083 25.924 124.09 29.147 123.098 C 21.906 89.338 14.666 55.578 7.614 22.698 C 23.982 35.069 31.528 67.326 38.955 162.27 C 55.184 136.119 68.415 109.175 101.983 109.847 C 103.799 111.936 105.616 114.024 107.432 116.113 C 91.163 130.548 73.402 143.665 59.127 159.864 C 48.941 171.423 41.991 186.536 36.117 201.085 C 18.725 244.16 3.311 288.046 -14.522 330.929 C -19.467 342.819 -30.143 352.318 -42.47 360.413 C -40.406 355.833 -39.148 350.623 -36.153 346.769 C -2.427 303.379 13.493 252.537 24.93 199.969 C 31.897 167.949 26.18 159.223 -3.619 145.815 C -10.713 142.622 -15.201 134.041 -21.95 129.534 C -28.061 125.452 -35.62 123.546 -42.655 115.194 C -27.738 116.35 -12.821 117.507 5.104 118.897 C -19.122 81.148 -39.502 42.509 -2.262 1.772 C -1.508 1.181 -0.754 0.591 0 0" style="fill: rgb(209, 168, 75); fill-opacity: 1;"/>
      </g>
    </g>
    <g style="clip-path: url(&quot;#clippath0&quot;);">
      <g transform="translate(1040.7947 738.9604)">
        <path d="M 0 0 C -21.24 2.626 -42.679 5.276 -63.766 7.884 C -79.93 -51.248 -58.734 -78.45 -5.385 -73.657 C 0.234 -63.179 5.177 -53.96 8.516 -47.734 C 5.731 -32.124 3.275 -18.355 0 0" style="fill: rgb(209, 168, 75); fill-opacity: 1;"/>
      </g>
    </g>
    <g style="clip-path: url(&quot;#clippath0&quot;);">
      <g transform="translate(865.9177 772.4683)">
        <path d="M 0 0 C -4.162 -7.237 -9.272 -16.121 -15.13 -26.307 C -14.239 -34.255 -13.082 -44.565 -11.096 -62.256 C 2.117 -69.756 20.332 -85.404 45.613 -70.434 C 67.848 -57.267 61.818 -35.019 68.611 -11.343 C 57.757 -15.195 52.888 -16.923 46.883 -19.054 C 45.326 -12.556 43.806 -6.208 43.19 -3.635 C 28.657 -2.412 15.888 -1.337 0 0" style="fill: rgb(209, 168, 75); fill-opacity: 1;"/>
      </g>
    </g>
    <g style="clip-path: url(&quot;#clippath0&quot;);">
      <g transform="translate(859.6414 569.2158)">
        <path d="M 0 0 C 9.514 -22.708 17.379 -41.481 27.097 -64.674 C 48.791 -56.107 69.726 -47.839 94.83 -37.924 C 79.208 -23.39 87.53 6.87 58.631 7.789 C 39.284 8.404 19.743 2.84 0 0" style="fill: rgb(209, 168, 75); fill-opacity: 1;"/>
      </g>
    </g>
    <g style="clip-path: url(&quot;#clippath0&quot;);">
      <g transform="translate(1291.3643 548.3764)">
        <path d="M 0 0 C -24.303 5.693 -45.315 13.098 -58.182 -14.288 C -69.502 -38.384 -63.535 -56.04 -45.299 -72.612 C -43.116 -70.663 -40.826 -69.123 -41.012 -68.714 C -59.463 -28.207 -41.424 -8.346 0 0" style="fill: rgb(209, 168, 75); fill-opacity: 1;"/>
      </g>
    </g>
    <g style="clip-path: url(&quot;#clippath0&quot;);">
      <g transform="translate(936.0067 508.9781)">
        <path d="M 0 0 C 32.45 -19.261 89.345 -0.891 107.85 34.664 C 75.385 12.158 41.644 -6.147 0 0" style="fill: rgb(209, 168, 75); fill-opacity: 1;"/>
      </g>
    </g>
    <g style="clip-path: url(&quot;#clippath0&quot;);">
      <g transform="translate(961.5102 665.2186)">
        <path d="M 0 0 C -0.393 -13.423 -0.962 -26.853 -0.415 -40.238 C -0.396 -40.682 14.258 -43.243 16.429 -40.431 C 28.406 -24.918 22.496 -11.238 9.951 0.54 C 6.634 0.36 3.317 0.18 0 0" style="fill: rgb(209, 168, 75); fill-opacity: 1;"/>
      </g>
    </g>
    <g style="clip-path: url(&quot;#clippath0&quot;);">
      <g transform="translate(921.1912 687.3107)">
        <path d="M 0 0 C 5.678 -20.825 19.405 -21.93 33.885 -18.816 C 36.487 -18.257 40.297 -7.495 38.552 -5.11 C 28.624 8.467 15.768 9.485 0 0" style="fill: rgb(209, 168, 75); fill-opacity: 1;"/>
      </g>
    </g>
    <g style="clip-path: url(&quot;#clippath0&quot;);">
      <g transform="translate(918.5219 598.5051)">
        <path d="M 0 0 C 11.862 -10.358 24.557 -12.561 36.623 0.13 C 39.18 2.82 37.18 9.858 37.279 14.893 C 24.528 13.424 11.776 11.954 -0.976 10.484 C -0.65 6.99 -0.325 3.495 0 0" style="fill: rgb(209, 168, 75); fill-opacity: 1;"/>
      </g>
    </g>
    <g style="clip-path: url(&quot;#clippath0&quot;);">
      <g transform="translate(907.0552 689.9546)">
        <path d="M 0 0 C -8.297 -12.892 -14.659 -20.005 -17.359 -28.311 C -18.469 -31.723 -11.688 -37.71 -8.496 -42.525 C -2.391 -35.186 4.695 -28.393 9.245 -20.188 C 10.689 -17.585 5.371 -11.219 0 0" style="fill: rgb(209, 168, 75); fill-opacity: 1;"/>
      </g>
    </g>
    <g style="clip-path: url(&quot;#clippath0&quot;);">
      <g transform="translate(983.83 425.123)">
        <path d="M 0 0 C -12.329 14.347 -24.658 28.694 -36.987 43.041 C -38.965 41.234 -40.944 39.427 -42.923 37.621 C -40.634 13.785 -23.794 3.445 -1.534 -1.868 C -1.534 -1.868 0 0 0 0" style="fill: rgb(209, 168, 75); fill-opacity: 1;"/>
      </g>
    </g>
    <g style="clip-path: url(&quot;#clippath0&quot;);">
      <g transform="translate(858.3608 443.6216)">
        <path d="M 0 0 C 22.297 -8.039 44.54 -16.235 66.942 -23.966 C 70.744 -25.279 75.23 -24.6 80.438 -24.901 C 55.989 -2.777 26.519 5.979 0.598 -0.537 C 0.546 -0.487 0 0 0 0" style="fill: rgb(209, 168, 75); fill-opacity: 1;"/>
      </g>
    </g>
    <g style="clip-path: url(&quot;#clippath0&quot;);">
      <g transform="translate(962.1641 800.54)">
        <path d="M 0 0 C -21.484 2.274 -42.968 4.548 -64.453 6.823 C -64.851 3.607 -65.25 0.392 -65.648 -2.824 C -44.246 -5.674 -22.844 -8.525 -1.442 -11.375 C -0.962 -7.584 -0.481 -3.792 0 0" style="fill: rgb(209, 168, 75); fill-opacity: 1;"/>
      </g>
    </g>
  </g>
</svg>