<svg id="eAJeor0jhON1" xmlns="http://www.w3.org/2000/svg" xmlns:xlink="http://www.w3.org/1999/xlink" viewBox="0 0 385.74 1593.86" shape-rendering="geometricPrecision" text-rendering="geometricPrecision" project-id="71b5c796b5d94d92815339a6ca182603" export-id="a69a08a1a3ae4983a7ed172facb0dad9" cached="false"><g transform="translate(-791.888184-313.812012)"><rect width="233.532" height="1329.82" rx="0" ry="0" transform="translate(866.801 465.06)" fill="#eae1cc"/><rect width="259.526" height="18.109" rx="0" ry="0" transform="translate(858.843 459.072)" fill="#c9c1b3"/><rect width="339.1" height="88.325" rx="0" ry="0" transform="translate(814.047 376.365)" fill="#c9c1b3"/><polygon points="1005.002,313.812 964.61,313.812 814.047,313.812 814.047,330.722 964.61,330.722 1005.002,330.722 1155.564,330.722 1155.564,313.812" fill="#eae1cc"/><path d="M1005.002,330.722h-40.392-142.812c0,0,8.776,2.378,13.164,7.37c4.388,4.993,4.022,8.797,4.022,8.797h.082v12.433h125.544h40.391h125.544v-12.433h.081c0,0-.366-3.804,4.023-8.797c4.388-4.993,13.164-7.37,13.164-7.37h-142.811Z" fill="#c9c1b3"/><polygon points="821.798,330.722 1147.813,330.722 1136.02,336.745" fill="#a8a198"/><rect width="123.123" height="1307.3" rx="0" ry="0" transform="translate(888.655 477.181)" opacity="0.2" fill="#fff"/><rect width="32.226" height="1307.3" rx="0" ry="0" transform="translate(922.527 477.181)" opacity="0.43" fill="#fff"/><path d="M1103.414,1806.301h-240.531c-6.026,0-10.912-4.885-10.912-10.912v0c0-6.026,4.886-10.911,10.912-10.911h240.531c6.027,0,10.912,4.885,10.912,10.911v0c0,6.027-4.885,10.912-10.912,10.912Z" fill="#eae1cc"/><path d="M1102.151,1784.478h-7.075c1.313,1.741,2.081,3.842,2.081,6.103c0,6.027-5.451,10.912-12.175,10.912h-230.93c2.188,2.901,5.892,4.809,10.094,4.809h238.004c6.724,0,12.175-4.885,12.175-10.912v0c.001-6.028-5.45-10.912-12.174-10.912Z" fill="#c9c1b3"/><path d="M1099.13,1806.301h-113.625-4.713-113.625c-27.046,0-48.972,19.65-48.972,43.891v19.469h162.597h4.713h162.597v-19.469c.001-24.241-21.925-43.891-48.972-43.891Z" fill="#eae1cc"/><path d="M1098.352,1806.301h-46.141c27.047,0,48.972,19.65,48.972,43.891v19.469h46.141v-19.469c-.001-24.241-21.926-43.891-48.972-43.891Z" fill="#c9c1b3"/><rect width="344.832" height="48.575" rx="0" ry="0" transform="translate(810.733 1859.1)" fill="#eae1cc"/><rect width="41.238" height="48.575" rx="0" ry="0" transform="translate(1114.33 1859.1)" fill="#c9c1b3"/><polygon points="823.222,1859.101 1148.103,1859.101 1147.323,1850.191" fill="#a8a198"/><polygon points="866.913,1784.478 1100.333,1784.478 1100.333,1777.362" fill="#a8a198"/><path d="M905.776,464.69c0,0,9.408-4.676,12.68-14.085c3.272-9.408,2.454-20.861,2.454-20.861h63.796l.1,34.945h-79.03v.001Z" fill="#eae1cc"/><path d="M1063.934,464.422c0,0-9.434-4.623-12.76-14.012s-2.573-20.847-2.573-20.847l-63.794.363.099,34.945l79.028-.449v0Z" fill="#eae1cc"/><g><path d="M938.007,464.69c.613-4.929.706-9.922.26-14.869-.23-2.549-.622-5.155-1.89-7.378s-3.586-4.006-6.144-3.974c-.179,8.804.217,17.457-.421,26.222h8.195v-.001Z" fill="#c9c1b3"/><path d="M922.162,448.513c-.829,4.188-.813,8.542.047,12.725.056.272.128.564.345.736.193.153.457.174.704.188.776.045,1.552.09,2.328.135-.249-.015-.3-8.055-.293-8.747.029-3.038.25-6.087.892-9.062.148-.682,1.466-3.706,1.216-4.198-.482-.951-1.498.154-1.99.698-1.825,2.018-2.732,4.913-3.249,7.525Z" opacity="0.77" fill="#fff"/></g><g><path d="M964.722,464.69c.613-4.929.706-9.922.26-14.869-.229-2.549-.623-5.155-1.891-7.378-1.267-2.223-3.585-4.006-6.144-3.974-.179,8.804.217,17.457-.421,26.222h8.196v-.001Z" fill="#c9c1b3"/><path d="M948.876,448.513c-.829,4.188-.813,8.542.047,12.725.056.272.128.564.345.736.194.153.458.174.704.188.776.045,1.552.09,2.328.135-.249-.015-.3-8.055-.293-8.747.029-3.038.249-6.087.892-9.062.147-.682,1.466-3.706,1.216-4.198-.483-.951-1.498.154-1.991.698-1.824,2.018-2.731,4.913-3.248,7.525Z" opacity="0.77" fill="#fff"/></g><g><path d="M991.436,464.69c.613-4.929.706-9.922.26-14.869-.229-2.549-.623-5.155-1.891-7.378s-3.585-4.006-6.144-3.974c-.179,8.804.217,17.457-.421,26.222h8.196v-.001Z" fill="#c9c1b3"/><path d="M975.591,448.513c-.829,4.188-.813,8.542.047,12.725.056.272.128.564.346.736.194.153.457.174.704.188.776.045,1.552.09,2.328.135-.249-.015-.3-8.055-.293-8.747.029-3.038.25-6.087.892-9.062.148-.682,1.466-3.706,1.216-4.198-.482-.951-1.498.154-1.99.698-1.826,2.018-2.734,4.913-3.25,7.525Z" opacity="0.77" fill="#fff"/></g><g><path d="M1018.151,464.69c.613-4.929.706-9.922.26-14.869-.229-2.549-.623-5.155-1.89-7.378-1.268-2.223-3.586-4.006-6.145-3.974-.18,8.804.217,17.457-.421,26.222h8.196v-.001Z" fill="#c9c1b3"/><path d="M1002.306,448.513c-.829,4.188-.812,8.542.047,12.725.056.272.128.564.346.736.193.153.457.174.704.188.776.045,1.552.09,2.328.135-.249-.015-.3-8.055-.293-8.747.029-3.038.25-6.087.892-9.062.147-.682,1.466-3.706,1.216-4.198-.483-.951-1.498.154-1.99.698-1.827,2.018-2.734,4.913-3.25,7.525Z" opacity="0.77" fill="#fff"/></g><g><path d="M1044.865,464.69c.613-4.929.705-9.922.26-14.869-.229-2.549-.623-5.155-1.891-7.378s-3.585-4.006-6.144-3.974c-.179,8.804.217,17.457-.422,26.222h8.197v-.001Z" fill="#c9c1b3"/><path d="M1029.021,448.513c-.829,4.188-.813,8.542.047,12.725.056.272.128.564.345.736.194.153.458.174.704.188.776.045,1.552.09,2.328.135-.249-.015-.3-8.055-.294-8.747.029-3.038.25-6.087.892-9.062.147-.682,1.466-3.706,1.216-4.198-.483-.951-1.498.154-1.991.698-1.824,2.018-2.731,4.913-3.247,7.525Z" opacity="0.77" fill="#fff"/></g><path d="M833.322,418.825c.414-9.724,5.268-19.621,13.835-24.24c5.462-2.945,11.85-3.551,18.048-3.849c9.54-.458,19.11-.323,28.634.406.079-3.408-2.08-6.577-4.894-8.5-2.815-1.923-6.212-2.785-9.569-3.378-20.047-3.535-41.492,1.778-57.571,14.262-4.499,3.493-8.684,7.65-10.967,12.869-2.13,4.868-2.462,10.333-2.233,15.642.327,7.61,1.787,15.287,5.336,22.027c3.888,7.386,10.213,13.221,17.502,17.182c3.268,1.776,18.188,9.142,20.696,4.565c2.498-4.558-8.848-15.505-10.77-18.827-4.903-8.465-8.469-18.257-8.047-28.159Z" fill="#a8a198"/><path d="M850.619,429.629c4.628,7.72,15.947,10.285,23.632,5.598s10.652-15.592,6.711-23.684c4.997-.054,9.669,2.796,12.973,6.545c3.303,3.75,5.456,8.349,7.565,12.879.75-8.372-.884-17.186-5.859-23.961-4.975-6.774-13.609-11.108-21.895-9.7-4.753.808-9.036,3.351-12.897,6.239-7.151,5.353-15.683,16.99-10.23,26.084Z" fill="#a8a198"/><path d="M1081.522,414.148c-3.835,7.085-3.16,15.9-.248,23.412c1.752,4.521,4.29,8.777,7.724,12.199c6.538,6.517,15.882,9.568,25.082,10.326-5.537,2.847-12.145,3.051-18.226,1.715s-11.743-4.105-17.25-7.009c-3.696-1.949-7.46-4.058-10.03-7.352-3.353-4.298-4.212-10.027-4.282-15.477-.086-6.688.912-13.582,4.333-19.329c5.331-8.956,15.99-13.824,26.406-14.197c5.177-.185,15.941,7.473,7.708,7.95-4.221.244-6.949-2.268-11.692-.496-3.993,1.491-7.494,4.509-9.525,8.258Z" fill="#a8a198"/><path d="M1100.033,394.322c3.652,1.527,21.404,2.719,30.61,8.272c16.408,9.897,17.091,26.601,10.083,37.323-4.396,6.726-4.727,9.835-10.827,15.066c7.732,3.083,16.321-1.465,22.891-6.576c7.012-5.455,13.537-11.985,16.9-20.206c4.898-11.973,2.188-26.285-5.385-36.773-7.572-10.488-19.463-17.351-31.999-20.543s-25.724-2.959-38.552-1.29c-6.132.798-16.363,3.864-14.419,12.161c1.746,7.444,14.745,10.076,20.698,12.566Z" fill="#a8a198"/><rect width="222.484" height="24.402" rx="0" ry="0" transform="translate(875.28 378.192)" fill="#a8a198"/><path d="M984.806,387.67v-28.525h-146.151v.596c-11.37,1.712-48.743,16.91-46.685,54.313c3.074,55.849,45.858,61.229,65.328,62.767c17.229,1.36,36.864-7.305,47.395-21.008s11.785-31.767,3.843-48.419c-2.685-5.631-11.387-14.19-20.751-16.14-16.813-3.501-34.399,2.929-40.007,19.16-1.45,4.196-1.872,8.915-.208,13.032c1.664,4.116,5.73,7.414,10.168,7.298c4.438-.117,8.597-4.351,7.871-8.73-.174-1.05-.591-2.043-.854-3.074-1.986-7.769,6.134-15.547,14.137-15.051s14.58,7.208,17.211,14.782c5.489,15.8-5.044,34.337-21.383,37.911-24.594,5.38-54.455-6.475-55.337-38.23-.512-18.446,14.892-29.915,28.657-30.632l10.742-.048h126.024v-.002Z" fill="#eae1cc"/><path d="M984.707,387.891v-28.525h146.151v.596c11.37,1.712,48.743,16.91,46.684,54.313-3.075,55.849-45.858,61.229-65.329,62.766-17.228,1.36-36.864-7.305-47.395-21.007-10.53-13.703-11.784-31.768-3.843-48.42c2.686-5.631,11.387-14.19,20.751-16.14c16.813-3.502,34.399,2.928,40.007,19.16c1.45,4.196,1.872,8.915.208,13.031s-5.729,7.415-10.167,7.298-8.597-4.351-7.871-8.73c.174-1.05.59-2.042.854-3.074c1.985-7.769-6.134-15.547-14.137-15.051-8.003.497-14.58,7.208-17.211,14.783-5.489,15.799,5.044,34.337,21.384,37.911c24.594,5.38,54.455-6.475,55.336-38.231.512-18.445-14.892-29.915-28.657-30.632l-10.742-.048h-126.023Z" fill="#eae1cc"/><path d="M878.05,418.35c0,8.702-7.054,15.755-15.756,15.755-8.701,0-15.755-7.054-15.755-15.755c0-8.702,7.054-15.756,15.755-15.756c8.702,0,15.756,7.054,15.756,15.756Z" fill="#eae1cc"/><path d="M1123.109,419.877c0,8.701-7.054,15.755-15.755,15.755-8.702,0-15.756-7.054-15.756-15.755c0-8.702,7.054-15.756,15.756-15.756c8.701,0,15.755,7.054,15.755,15.756Z" fill="#eae1cc"/><path d="M1058.667,428.234c.158,3.529,1.177,7.458,4.242,9.214.334.191.719.356,1.096.276.652-.138.937-.899,1.064-1.554.639-3.29.153-6.68.208-10.031.149-9.26,4.698-18.353,12.02-24.025.814-.631,1.717-1.827.948-2.512-.231-.206-.554-.272-.862-.309-12.627-1.512-19.133,19.637-18.716,28.941Z" opacity="0.77" fill="#fff"/><path d="M1083.818,395.323c-.873.325-1.751.815-2.186,1.64-.435.824-.22,2.036.635,2.406.456.197.977.125,1.468.049c2.976-.459,5.951-.919,8.927-1.379.466-.072.955-.153,1.327-.443.97-.753.467-2.458-.61-3.048s-2.395-.412-3.608-.218c-2.387.383-4.774.766-7.162,1.148l1.209-.155Z" opacity="0.77" fill="#fff"/><path d="M906.856,520.332c-.051-1.582-.116-3.164-.195-4.746-.124-2.462-.287-4.952-.982-7.295-.695-2.342-1.985-4.556-3.908-5.798-2.119-1.369-4.713-1.409-7.161-1.244-2.726.183-5.605.647-7.707,2.579-.972.893-1.716,2.049-2.406,3.221-2.801,4.758-4.939,10.736-3.09,16.034.117-3.05.756-6.201,2.502-8.563c1.747-2.362,4.413-5.562,7.785-4.107c2.959,1.276,5.499,2.756,5.551,14.551v1250.39h9.722v-1255.022h-.111Z" fill="#dbd2c1"/><path d="M950.544,520.332c-.051-1.582-.116-3.164-.195-4.746-.124-2.462-.287-4.952-.982-7.295-.696-2.342-1.985-4.556-3.908-5.798-2.119-1.369-4.713-1.409-7.161-1.244-2.726.183-5.605.647-7.707,2.579-.972.893-1.716,2.049-2.406,3.221-2.802,4.758-4.94,10.736-3.09,16.034.117-3.05.756-6.201,2.502-8.563c1.747-2.362,4.413-5.562,7.785-4.107c2.958,1.276,5.499,2.756,5.551,14.551v1250.39h9.722v-1255.022h-.111Z" fill="#dbd2c1"/><path d="M994.232,520.332c-.051-1.582-.116-3.164-.195-4.746-.123-2.462-.287-4.952-.982-7.295-.695-2.342-1.985-4.556-3.908-5.798-2.119-1.369-4.713-1.409-7.161-1.244-2.726.183-5.606.647-7.708,2.579-.972.893-1.716,2.049-2.406,3.221-2.802,4.758-4.939,10.736-3.09,16.034.117-3.05.756-6.201,2.502-8.563c1.747-2.362,4.413-5.562,7.786-4.107c2.958,1.276,5.499,2.756,5.55,14.551v1250.39h9.722v-1255.022h-.11Z" fill="#dbd2c1"/><path d="M1037.92,520.332c-.051-1.582-.116-3.164-.195-4.746-.124-2.462-.287-4.952-.982-7.295-.695-2.342-1.985-4.556-3.908-5.798-2.119-1.369-4.713-1.409-7.161-1.244-2.726.183-5.606.647-7.708,2.579-.972.893-1.716,2.049-2.406,3.221-2.802,4.758-4.94,10.736-3.09,16.034.117-3.05.756-6.201,2.503-8.563s4.413-5.562,7.785-4.107c2.958,1.276,5.499,2.756,5.551,14.551v1250.39h9.722v-1255.022h-.111Z" fill="#dbd2c1"/><path d="M1081.608,520.332c-.051-1.582-.116-3.164-.195-4.746-.124-2.462-.287-4.952-.982-7.295-.695-2.342-1.985-4.556-3.908-5.798-2.119-1.369-4.712-1.409-7.161-1.244-2.726.183-5.605.647-7.708,2.579-.972.893-1.716,2.049-2.406,3.221-2.802,4.758-4.94,10.736-3.09,16.034.117-3.05.756-6.201,2.502-8.563c1.747-2.362,4.413-5.562,7.786-4.107c2.958,1.276,5.499,2.756,5.551,14.551v1250.39h9.722v-1255.022h-.111Z" fill="#dbd2c1"/><path d="M866.801,477.181h233.532v59.295c0,0-20.995-42.142-98.637-48.229-77.643-6.087-134.895-4.214-134.895-4.214v-6.852Z" fill="#a8a198"/></g></svg>
